<svg xmlns="http://www.w3.org/2000/svg" viewbox="0 0 16 16">
    <path d="M3.05454545 2.25454545c-.4418278 0-.8.3581722-.8.8v9.89090905c0 .4418278.3581722.8.8.8h9.89090905c.4418278 0 .8-.3581722.8-.8V3.05454545c0-.4418278-.3581722-.8-.8-.8H3.05454545zm0-.14545454h9.89090905c.5221602 0 .9454546.42329442.9454546.94545454v9.89090905c0 .5221602-.4232944.9454546-.9454546.9454546H3.05454545c-.52216012 0-.94545454-.4232944-.94545454-.9454546V3.05454545c0-.52216012.42329442-.94545454.94545454-.94545454z"/>
    <path d="M2.48487467 2.83912485c-.41943435.04408433-.72371567.41984047-.67963135.83927482l1.03388153 9.83672561c.04408433.41943444.41984047.72371571.83927482.67963139l9.83672561-1.03388153c.41943444-.04408433.72371572-.41984042.67963138-.83927486l-1.03388152-9.83672561c-.04408433-.41943435-.41984042-.72371568-.83927486-.67963134L2.48487467 2.83912485zm-.02280621-.2169866l9.83672561-1.03388152c.53927284-.05667986 1.0223878.334539 1.07906765.87381173l1.03388152 9.83672562c.05667986.53927283-.33453892 1.02238778-.87381175 1.07906764l-9.83672562 1.03388152c-.53927273.05667985-1.02238776-.33453891-1.07906762-.87381175L1.58825673 3.70120588c-.05667985-.53927274.334539-1.02238778.87381173-1.07906763z"/>
    <path d="M1.82908965 3.69219071c-.38973056.09717075-.62689716.49188225-.52972642.88161281L3.6921907 14.1709103c.09717076.38973063.49188226.62689724.88161283.5297265l9.59710678-2.39282747c.38973063-.09717076.62689723-.49188227.52972647-.8816129l-2.39282746-9.59710679c-.09717075-.38973056-.49188226-.62689715-.88161289-.5297264L1.82908965 3.69219072zm-.07037728-.28226784l9.59710678-2.39282747c.5456228-.13603904 1.09821898.19599417 1.23425802.74161696l2.39282747 9.59710678c.13603904.5456228-.19599425 1.098219-.74161705 1.23425804L4.6441808 14.98290465c-.5456228.13603904-1.09821891-.19599427-1.23425796-.74161707L1.0170954 4.6441808c-.13603904-.5456228.19599419-1.0982189.74161698-1.23425793z"/>
    <path d="M1.20437726 4.89564302c-.33024255.14703345-.47876286.5339421-.3317294.86418464L4.895643 14.7956227c.14703347.33024257.53394212.4787629.86418466.33172944L14.7956227 11.104357c.33024257-.14703347.4787629-.53394213.33172942-.8641847l-4.02299514-9.03579504C10.95732353.8741347 10.57041487.7256144 10.2401723.87264788L1.20437726 4.89564302zM1.02689218 4.497005L10.0626872.47400985c.55040429-.24505577 1.195252.0024781 1.44030776.55288234l4.02299514 9.03579504c.24505578.55040428-.00247806 1.19525198-.55288235 1.44030776l-9.03579503 4.02299514c-.55040424.24505576-1.19525198-.00247807-1.44030775-.55288235L.47400983 5.93731274c-.24505575-.55040424.0024781-1.19525199.55288235-1.44030774z"/>
</svg>
