<svg xmlns="http://www.w3.org/2000/svg" width="1200" height="800" fill="none">
  <path fill="#AECE68" fill-rule="evenodd" d="M917.16 585.795c9.19 68.741-213.675 113.577-405.501 82.287-191.825-31.291-279.825-153.484-188.289-218.593 91.535-65.109 584.6 67.566 593.79 136.306z" clip-rule="evenodd" opacity=".1"/>
  <path fill="#EEE" fill-rule="evenodd" d="M787.471 287.353c3.467-2.651 8.847-.962 12.338.603 1.345.603 4.782 2.533 7.332 4.705a91.42 91.42 0 01-.9-4.555 169.668 169.668 0 01-2.179-19.087c-.093-1.664.028-3.522.151-5.405v-.003c.042-.637.084-1.277.117-1.913-.139-.15-.234-.358-.273-.639-.015.117-.023.21-.03.282-.01.116-.015.174-.034.178-.018.005-.051-.044-.115-.143l-.091-.137c-2.579-3.859-4.746-8.209-5.044-12.99-.252-4.054 3.079-11.726 7.799-6.415 2.112 2.372 1.564 19.03-1.608 20.051.847 5.519 1.912 11.03 3.247 16.47.2-.035.404-.038.606-.011-.019-1.352-.021-2.828.034-3.336.476-4.372 4.126-13.248 9.937-11.524 4.466 1.324 1.729 6.776.209 9.162-2.446 3.842-5.214 5.505-8.718 7.503-.07.826-.602 1.306-1.231 1.462 2.347 8.786 5.43 17.356 9.465 25.45l.107-.515c.512-2.457 1.109-5.321 1.488-5.923 1.977-3.149 6.355-6.995 10.392-5.132 8.478 3.919-.725 15.181-7.943 16.406-.3.415-.617.749-.955.94a103.619 103.619 0 004.505 7.167c2.405 3.506 4.99 7 7.7 10.475.084-2.718 1.157-8.775 1.461-9.426 1.851-3.952 7.185-8.018 11.513-5.211 4.868 3.166.454 9.147-2.322 11.854-1.138 1.11-6.767 5.178-8.752 5.196 6.548 8.193 13.775 16.245 21.123 24.007-.609-3.475-1.404-13.043-1.315-14.105.456-5.482 4.056-14.25 11.149-12.113 6.882 2.069 3.838 11.177 1.482 15.519-1.427 2.628-3.4 5.298-5.779 7.131-.429.33-.989.6-1.548.869-.674.324-1.347.648-1.787 1.077-.392.382-.512.821-.631 1.256-.126.459-.251.914-.693 1.295a819.229 819.229 0 0011.911 12.241 266.142 266.142 0 005.665 5.533c1.047-.434 2.538.137 2.461 1.62a1.78 1.78 0 01-.129.571 376.846 376.846 0 004.378 4.014c-.034-.386-.024-.931.043-1.682-1.058 1.506-1.014-.688-.98-2.361.012-.591.023-1.116-.017-1.391a75.914 75.914 0 00-.558-3.202c-.429-2.27-.856-4.532-.835-6.875.046-4.973 3.193-13.308 9.815-10.347 6.09 2.717 3.874 10.088 1.577 14.708-1.454 2.924-3.444 5.535-5.524 8.034-.37.446-.782 1.05-1.19 1.649-.604.888-1.201 1.762-1.641 2.088 5.654 5.072 11.44 9.995 17.228 14.918l.003.003c2.591 2.204 5.182 4.409 7.762 6.627.112-.487.205-.97.285-1.421-.161.182-.381.267-.663.251-.075-.374-.183-.87-.314-1.466-1.594-7.272-6.448-29.423 6.695-25.13 9.63 3.154 2.833 22.442-4.349 29.189 4.358 3.767 8.675 7.583 12.891 11.512a184.734 184.734 0 018.859 8.822c-1.474-3.935-2.862-9.028-1.951-13.081 1.327-5.899 7.545-11.468 13.615-8.112 7.567 4.202 1.745 9.942-3.714 15.324-2.788 2.748-5.481 5.403-6.249 7.712 9.053 9.967 16.782 21.04 21.947 33.653 5.616 13.717 10.83 32.148 7.947 47.494.532-6.748-1.745-15.22-3.344-21.171-.218-.81-.423-1.573-.607-2.279-2.403-9.229-5.816-18.208-10.315-26.612-7.205-13.461-16.723-24.887-27.711-35.261-2.503.873-5.22 2.489-7.471 3.827-1.381.821-2.585 1.538-3.457 1.914-4.205 1.817-12.277 4.419-14.956-1.301-2.633-5.624 4.089-8.77 8.255-10.031 4.026-1.216 7.656-1.069 11.412-.072-5.816-5.163-11.774-10.162-17.731-15.16l-.002-.001-3.285-2.759c-1.514 1.243-3.187 3.04-4.963 4.948-5.636 6.055-12.313 13.229-18.276 7.368-8.999-8.845 8.213-17.835 15.545-17.133.901.086 1.771.276 2.621.534-7.478-6.355-14.84-12.842-21.803-19.785-1.25.229-3.239 2.069-5.628 4.281-5.371 4.97-12.764 11.812-18.332 6.425-4.02-3.889-2.644-9.946 1.242-13.409 3.901-3.478 9.557-3.472 14.363-2.301 2.078.504 3.995 1.466 5.783 2.638l.222.012c-6.852-6.904-13.745-13.963-20.385-21.263l-.353.115c-.402.492-1.074.672-1.69.563l-1.039.359c-5.259 1.817-12.019 4.153-17.26 3.146-3.858-.742-7.358-3.882-4.093-7.748 2.655-3.144 9.858-2.693 13.37-1.948 1.715.364 3.581 1.418 5.453 2.476.787.444 1.575.889 2.353 1.284a1.56 1.56 0 01.956-.796c-6.556-7.336-12.812-14.925-18.487-22.844-1.717.266-3.622 1.022-5.586 1.801-4.728 1.875-9.801 3.887-13.442-.447-5.376-6.398 4.734-10.133 9.54-9.525 1.622.205 3.222.665 4.767 1.274-4.129-6.52-7.282-13.489-9.497-20.808a.592.592 0 00-.061.033c-.032.017-.063.035-.101.052.033-.018.062-.037.092-.056l.066-.042a86.984 86.984 0 01-.635-2.206 7.454 7.454 0 00-.894-.426c2.183 1.507-7.029 2.245-8.754 2.383-3.814.305-8.923.419-11.721-2.71-2.35-2.628-2.213-6.51.664-8.709zm175.584 221.392c-.162 2.223-.563 4.26-1.313 5.939a46.77 46.77 0 001.313-5.939z" clip-rule="evenodd"/>
  <g fill-rule="evenodd" clip-rule="evenodd" opacity=".7">
    <path fill="#67A4BF" d="M887.828 406.77c13.652-.708 30.536 7.261 31.993 22.101 1.058 10.782.73 21.534 2.368 32.301 1.309 8.604 4.078 16.864 7.855 24.702 3.631 7.537 11.165 13.953 13.124 22.005 1.249 5.131.55 12.348-1.172 17.366-2.095 6.102-.982 5.62 3.192 10.74 8.177 10.033 15.54 20.322 20.747 32.305 7.501 17.26 12.418 37.435 9.634 56.328-.354 2.399-.774 11.009-4.077 11.611-3.69.673-1.965-4.251-1.768-5.842 1.256-10.149 2.371-19.02.857-29.328-5.844-39.771-34.375-65.974-52.952-99.728-1.021-1.741-3.177-5.886-4.676-8.62-2.367-4.318-4.746-12.532-7.95-15.734-6.034-6.03-.487 6.094.689 8.408 1.487 2.928 3.122 6.04 4.645 8.605 6.97 11.892 14.75 24.872 21.949 37.131-31.133 7.093-53.06-30.336-61.414-54.943-6.884-20.273-15.12-67.673 16.956-69.408z"/>
    <path fill="#8BC0D8" d="M1070.81 369.121c-22.82 1.811-37.47 16.871-44.29 37.935-3.68 11.351-4.1 23.012-6.14 34.678-3.08 17.55-9.69 30.851-22.611 43.355-4.002 3.872-6.951 7.848-9.048 12.102-4.162 4.247-7.785 9.053-10.446 14.929-3.401 7.504-4.363 16.508-.437 23.989 1.056 2.012 3.689 6.049 6.418 7.883-10.218 21.76-15.835 45.592-15.202 69.394.383 14.367 1.084 28.741 1.902 43.091.221 3.853 1.475 10.216 3.36 3.754 1.725-5.911-.438-15.19-.638-21.364-.974-30.081-1.807-57.432 10.576-85.536a217.72 217.72 0 014.109-8.766c.084-.049.162-.108.241-.165.055.042.105.087.159.129.092-.164.217-.358.364-.575.411-.425.77-.961 1.111-1.559 1.099-1.522 2.342-3.311 2.348-4.29 0-.007-.004-.019-.004-.027 7.668-12.513 16.448-24.336 25.418-35.929-.07.085 9.72-13.252 8.21-5.877-.73 3.555-7.94 10.323-10.85 14.088-6.43 8.375-13.99 18.988-20.272 29.25-.846.486-2.04 2.87-2.904 4.647-.476.9-.921 1.807-1.359 2.598 22.255 7.353 39.575-7.459 51.375-24.687.02-.021.03-.042.04-.062 3.59-4.76 7.27-9.487 11.87-13.25 7.67-6.28 15.89-7.388 24.93-10.478 24.67-8.427 35.15-40.391 38.48-64.108 3.76-26.757-14.62-67.787-46.71-65.149z"/>
    <path fill="#8BC0D8" d="M1025.73 294.191c-23.43 24.378-34.742 58.192-43.703 89.981-10.008 35.504-16.618 71.556-16.872 108.47-.166 24.253-.826 48.657.59 72.881.502 8.603 1.359 17.222 2.723 25.732.112.7 3.163 19.703 6.082 15.275 1.66-2.518-3.127-19.713-3.489-22.577-2.035-16.131-2.508-32.38-2.408-48.627.163-26.751-.626-53.364 2.085-80.016.405-3.98.725-8.159 1.67-12.052 1.003-4.139-.275-2.332 2.994-3.971 3.176-1.592 7.101-1.365 10.397-3.363 13.073-7.927 19.761-28.289 24.961-41.649 5.96-15.277 9.57-31.569 12.46-47.647 2.13-11.812 3.64-23.553 4.5-35.518.27-3.771.29-7.714 1.03-11.422.2-1 1.2-2.769 1.16-3.655-.07-1.875-1.2-2.977-1.3-4.552-.98.882-1.94 1.786-2.88 2.71zM898.006 619c0 40.317 32.683 73 73 73 40.314 0 73.004-32.683 73.004-73"/>
    <path fill="#67A4BF" d="M1021.03 555.085c18.07-1.332 38.25 13.244 46.96 28.412 7.03 12.229 5.84 28.288 1.5 41.281-2.9 8.698-9.24 21.1-19.82 21.221-13.23.151-13.87-16.203-14.13-25.763-.34-12.711-1.94-23.783-11.96-32.447-1.23-1.069-2.53-2.07-3.83-3.071-1.15-.889-2.3-1.777-3.41-2.713-.18-.15-.36-.299-.53-.449-3.55-2.977-7.27-6.103-7.72-11.01-.65-7.11 3.36-8.39 9.49-7.069.19.043.73.246 1.46.523 3.13 1.186 9.81 3.718 8.55.692-.48-1.14-2.22-2.044-4.41-2.721-5.67-.617-12.44-1.333-14.39-.905-20.993 4.606-29.167 33.689-31.338 52.167a173.914 173.914 0 00-.589 5.999h-3.857c.267-4.839.621-9.67 1.43-14.456 3.094-18.303 12.77-45.185 33.994-48.156.78-.11 3.66-.129 7.15.076 1.65-.924 3.5-1.483 5.45-1.611z"/>
  </g>
  <path fill="#EEE" fill-rule="evenodd" d="M1087.64 206.827c-2.98-9.951-9.99-17.74-17.26-24.876-14.15-13.893-21.77-22.483-26.81-42.805-2.97-11.953-5.99-24.618-15.4-33.29-6.85-6.315-18.64-11.62-27.81-7.098-14.094 8.414-17.879 25.681-16.458 41.142 1.762 19.164 10.714 30.98 27.908 38.038 9.69 3.975 16.13 9.221 21.39 18.361 4.21 7.308 6.66 16.46 11.95 23.085 7.91 9.905 17.8 14.307 29.99 12.662-11.42-21.011-24.76-42.22-40.86-59.911-1.5-1.778-10.39-8.586-8.6-11.617 1.98-3.337 11.1 9.2 11.03 9.124 4.68 5.368 9.01 11.073 13.26 16.833a.177.177 0 01-.04.014 855.864 855.864 0 0112.98 17.98c1.72 2.569 3.4 5.17 5 7.837 2.35 3.913 6.09 15.019 9.94 17.425.83.514 1.59.802 2.3.92 2.63 4.305 5.19 8.644 7.62 13.034 6.36 11.466 11.81 23.572 14.31 36.517.73 3.779.22 17.912 2.79 20.64 4.72 4.989 3.34-4.619 3.06-7.519-2.35-24.013-10.97-44.471-23.48-64.659 3.84-5.022 4.4-17.805 3.19-21.837zM926.136 218.43c4.971-5.857 16.922-6.851 24.23-6.459 9.044.485 18.333 2.687 26.937 5.349 14.174 4.384 27.947 12.386 40.427 20.131 1.51.933 20.04 12.078 18.4 14.034-1.63 1.938-19.82-11.301-23.87-13.583-8.66-4.87-16.592-10.63-26.13-13.847-9.876-3.331-20.32-4.65-30.704-4.559-1.333.012-5.681-.917-5.774 1.055-.092 1.928 7.101.922 8.37.934 5.239.048 10.51.541 15.675 1.449 9.676 1.701 18.774 5.127 27.063 10.383-2.314 5.377-7.858 7.856-13.673 6.511-5.026-1.164-9.926-4.033-14.847-4.862-3.39-.571-6.784-.231-10.07.724-8.67 2.519-13.671 7.681-23.203 4.09-7.473-2.814-19.97-12.927-12.831-21.35zm-21.378-94.379c-11.038-.805-23.365 8.005-28.689 17.172-4.292 7.392-3.569 17.098-.918 24.95 1.775 5.258 5.65 12.753 12.111 12.826 8.084.092 8.474-9.792 8.63-15.571.208-7.682 1.189-14.374 7.308-19.61.756-.647 1.548-1.252 2.341-1.857a61.574 61.574 0 002.085-1.639l.326-.272c2.164-1.799 4.436-3.688 4.713-6.654.401-4.297-2.051-5.071-5.795-4.272-.121.025-.449.148-.895.316-1.912.717-5.992 2.247-5.221.418.291-.689 1.352-1.235 2.692-1.645 3.467-.373 7.601-.805 8.79-.547 12.827 2.784 17.822 20.362 19.148 31.53.15 1.264.27 2.533.375 3.804h2.351c-.164-2.985-.379-5.964-.883-8.915-1.891-11.063-7.802-27.31-20.767-29.106-.478-.066-2.237-.078-4.368.046a7.953 7.953 0 00-3.334-.974z" clip-rule="evenodd"/>
  <path fill="#F5F5F5" fill-rule="evenodd" d="M313.297 145.33c-2.531-1.916-6.459-.692-9.009.441-.982.436-3.493 1.833-5.355 3.405.247-1.089.467-2.187.659-3.295.79-4.552 1.334-9.191 1.598-13.802.068-1.203-.02-2.547-.109-3.908v-.001c-.03-.461-.06-.924-.084-1.385a.82.82 0 00.2-.462c.01.084.016.152.021.204.008.083.011.126.025.129.013.003.037-.032.084-.104l.066-.099c1.885-2.792 3.469-5.937 3.688-9.394.185-2.933-2.243-8.479-5.692-4.637-1.543 1.716-1.149 13.761 1.167 14.498a136.954 136.954 0 01-2.377 11.912 1.424 1.424 0 00-.442-.008c.014-.978.016-2.046-.024-2.412-.346-3.162-3.008-9.579-7.251-8.33-3.261.959-1.265 4.9-.156 6.625 1.784 2.777 3.804 3.979 6.362 5.422.051.597.44.944.898 1.057-1.716 6.354-3.97 12.552-6.919 18.406l-.078-.372c-.374-1.776-.809-3.847-1.085-4.282-1.442-2.277-4.637-5.056-7.585-3.707-6.192 2.836.523 10.976 5.793 11.86.219.3.45.541.697.679a75.072 75.072 0 01-3.292 5.184 154.686 154.686 0 01-5.626 7.577c-.06-1.965-.841-6.344-1.063-6.815-1.35-2.857-5.243-5.795-8.404-3.764-3.556 2.291-.335 6.615 1.691 8.571.83.802 4.938 3.741 6.388 3.754-4.784 5.927-10.064 11.752-15.432 17.367.446-2.513 1.03-9.432.966-10.2-.331-3.964-2.957-10.302-8.136-8.755-5.026 1.499-2.806 8.084-1.088 11.223 1.041 1.9 2.48 3.83 4.217 5.154.313.239.722.433 1.13.628.492.234.983.468 1.304.778.286.276.374.593.46.908.092.332.183.661.506.936a597.91 597.91 0 01-8.701 8.856 192.797 192.797 0 01-4.139 4.003c-.764-.313-1.853.1-1.797 1.172.008.156.045.29.093.413a266.396 266.396 0 01-3.197 2.904c.025-.279.018-.673-.031-1.216.772 1.089.74-.498.716-1.707-.008-.428-.016-.808.013-1.006.114-.778.262-1.547.409-2.316.314-1.641.627-3.278.612-4.972-.032-3.595-2.326-9.622-7.163-7.478-4.447 1.967-2.832 7.296-1.156 10.636 1.06 2.114 2.512 4.001 4.03 5.808.27.322.571.759.868 1.191.441.642.876 1.274 1.198 1.51-4.13 3.669-8.356 7.231-12.583 10.793h-.001l-.001.001c-1.894 1.596-3.787 3.191-5.672 4.796a20.806 20.806 0 01-.207-1.028.568.568 0 00.484.182c.055-.27.134-.629.23-1.06 1.166-5.259 4.718-21.279-4.879-18.169-7.032 2.284-2.077 16.229 3.164 21.105-3.183 2.725-6.337 5.486-9.416 8.329a134.357 134.357 0 00-6.472 6.382c1.078-2.846 2.093-6.529 1.429-9.46-.966-4.264-5.504-8.289-9.937-5.86-5.527 3.042-1.278 7.189 2.706 11.079 2.034 1.986 3.999 3.905 4.559 5.575-6.613 7.21-12.261 15.22-16.036 24.342-4.106 9.921-7.92 23.25-5.82 34.346-.386-4.879 1.279-11.007 2.449-15.31.16-.586.31-1.138.444-1.649 1.758-6.674 4.254-13.168 7.541-19.246 5.266-9.736 12.22-18.002 20.247-25.508 1.826.63 3.81 1.798 5.453 2.765 1.007.593 1.887 1.111 2.523 1.383 3.069 1.312 8.962 3.191 10.92-.946 1.925-4.069-2.982-6.341-6.023-7.251-2.939-.878-5.589-.77-8.332-.048 4.249-3.735 8.601-7.353 12.952-10.969.801-.665 1.601-1.33 2.4-1.996 1.106.898 2.326 2.197 3.622 3.576 4.113 4.376 8.985 9.561 13.341 5.32 6.574-6.399-5.989-12.893-11.343-12.382-.658.062-1.294.2-1.914.387 5.463-4.599 10.84-9.292 15.927-14.315.912.165 2.364 1.495 4.107 3.093h.001c3.919 3.592 9.314 8.537 13.382 4.639 2.936-2.813 1.934-7.192-.902-9.695-2.847-2.514-6.976-2.507-10.487-1.658-1.517.365-2.917 1.061-4.222 1.909l-.162.009c5.005-4.995 10.04-10.102 14.891-15.383l.258.083c.293.356.784.486 1.233.407l.753.257.006.002c3.839 1.312 8.774 2.999 12.601 2.268 2.817-.537 5.374-2.809 2.991-5.604-1.937-2.272-7.196-1.943-9.761-1.403-1.252.264-2.615 1.027-3.982 1.792-.575.322-1.15.644-1.719.93a1.136 1.136 0 00-.697-.576c4.789-5.307 9.36-10.797 13.506-16.525 1.253.192 2.644.737 4.078 1.3 3.451 1.354 7.155 2.807 9.815-.328 3.927-4.629-3.453-7.325-6.962-6.884-1.185.149-2.354.482-3.482.923a60.952 60.952 0 006.943-15.05l.044.024a.728.728 0 00.074.037.698.698 0 01-.067-.04 2.107 2.107 0 00-.049-.03c.162-.529.317-1.061.465-1.595.274-.152.53-.263.653-.309-1.595 1.091 5.131 1.621 6.39 1.72 2.785.219 6.515.3 8.56-1.964 1.716-1.901 1.617-4.708-.482-6.297zM184.896 305.029c.123 1.482.488 2.834 1.208 3.942a21.846 21.846 0 01-1.208-3.942zm-60.478 349.427c0 21.287 1.68 38.544 24.228 38.544 22.548 0 24.227-17.257 24.227-38.544" clip-rule="evenodd"/>
  <path fill="#F5F5F5" fill-rule="evenodd" d="M155.353 641.174a44.734 44.734 0 00-2.214 4.366c-.023-3.047.146-6.116.606-9.227.786-5.33 1.987-10.631 3.116-15.925.811-3.804.76-10.636 3.838-13.668.845-.655 1.048.631 1.048 1.188.01.118-.003-2.276-.822-1.859-4.871 2.515-6.449 10.425-8.008 14.385-2.275 5.781-4.211 11.69-5.008 17.704a39.682 39.682 0 00-.336 4.554c-.166-.405-.321-.814-.493-1.218a82.24 82.24 0 00-11.337-18.96c-1.165-1.46-15.809-15.865-16.955-13.66.113.32.35.586.711.797.021.024.022.011.009-.025.86 1.39 3.306 3.535 4.067 4.753 1.917 3.063 3.407 6.314 4.921 9.503 3.199 6.74 6.166 13.547 9.043 20.368a198.751 198.751 0 002.08 4.744c-7.342-10.589-17.136-20.203-30.619-25.707 4.605 2.343 7.624 6.75 10.734 10.125 3.751 4.071 7.701 8.032 11.459 12.098 4.432 4.797 9.648 9.848 13.911 15.156 4.129 8.67 8.142 17.349 10.619 26.462-1.015-3.148-.079-7.5-.253-10.804-.138-2.631-.445-5.24-.866-7.844.52 1.175.969 2.35 1.172 3.444a214.463 214.463 0 00-.629-5.469c.59-1.697 1.169-3.28 1.56-4.585 2.005-6.691 4.392-13.268 7.642-19.677 3.008-5.929 6.459-11.783 10.218-17.458 1.754-2.646 3.532-5.282 5.299-7.923 1.156-1.729 2.257-4.496 3.867-6.153-10.407 9.515-21.777 19.098-28.38 30.515z" clip-rule="evenodd"/>
  <g fill-rule="evenodd" clip-rule="evenodd" opacity=".5">
    <path fill="#67A4BF" d="M277.223 302.445c4.202-5.992 12.001-21.21 17.915-23.351 3.81-1.379 2.699 12.886 2.746 15.606.183 10.524-.841 20.981-2.106 31.416-2.28 18.821-9.733 35.581-19.956 51.599-5.26 8.242-11.431 16.585-19.977 21.727-3.933 2.369-8.666 2.765-12.551 4.806-4.525 2.375-2.061.455-4.1 5.169-2.831 6.546-3.737 14.991-5.047 21.975-6.015 32.063-20.579 201.553-18.054 234.166.224 2.891-3.806 3.582-4.008.053-1.069-18.711 8.185-148.289 12.855-190.664 4.669-42.376 9.394-79.813 14.131-94.473 5.748-17.787 16.128-39.176 24.769-55.763 4.014-7.705 8.389-15.146 13.383-22.266z"/>
    <path fill="#ACDCF0" d="M308.414 510.278c10.935-8.028 22.772 7.123 12.876 15.152-5.47 4.438-11.189 2.86-14.408-.839-2.09 2.548-4.046 5.212-5.926 7.461a371.067 371.067 0 00-16.312 21.059c-10.746 14.924-19.955 30.69-29.584 46.167-9.502 15.276-18.928 30.63-27.541 46.293-7.296 13.27-17.021 28.881-19.519 43.429 3.79-30.854 18.172-60.51 35.298-87.709 16.987-26.977 36.481-56.438 62.783-77.727-2.677-3.937-2.751-9.556 2.333-13.286z"/>
    <path fill="#67A4BF" d="M100.913 435.031c6.119 1.196 16.118 15.039 21.162 20.313 5.995 6.268 11.433 12.948 16.56 19.948 11.036 15.066 20.906 31.084 29.299 47.788 13.682 27.231 24.644 55.185 32.599 84.838 4.87 18.151 8.023 36.965 9.891 55.647.353 3.524 4.047 30.688-1.276 31.42-4.787.659-3.308-20.626-3.539-23.522-2.611-32.665-10.432-64.448-21.31-95.237-2.37-6.707-4.571-14.922-8.361-20.958-2.729-4.347-.019-2.831-4.815-4.476-4.118-1.414-8.81-1.068-13.027-2.799-9.16-3.756-16.495-11.049-22.925-18.385-12.495-14.257-22.397-29.68-27.558-47.948-2.864-10.128-5.495-20.316-6.955-30.758-.377-2.699-3.686-16.642.255-15.871z"/>
    <path fill="#8BC0D8" d="M125.061 204.716c23.05 39.974 41.992 83.885 54.222 128.36 7.411 26.947 12.593 54.599 17.742 82.05 7.972 42.506 15.513 85.008 17.658 128.269 2.158 43.511 6.425 93.697-7.822 135.605 7.117-42.548.341-87.838-.859-130.65-.573-20.438-2.234-40.676-4.414-60.995-2.115-19.71-5.57-39.326-8.787-58.881a2521.598 2521.598 0 00-4.889-28.537c-.501-2.836-.712-11.25-2.511-13.187-1.81-1.95-11.047-2.745-13.947-4.176-5.839-2.881-11.332-6.974-16.193-11.299-9.319-8.291-17.426-19.124-23.825-29.803-14.805-24.708-20.724-54.862-20.425-83.478.057-5.556 8.992-65.384 5.404-66.208.216-.253.42-.514.613-.786a1086.38 1086.38 0 018.033 13.716z"/>
    <path fill="#8BC0D8" d="M373.846 348.887c.356-.513 2.671-4.08 1.505-3.852 2.373-.465-3.264 3.934 2.649 1.235-2.808 2.652-1.187 6.096-1.15 9.665.061 5.795-.908 11.541-1.999 17.211-1.725 8.963-4.294 17.677-8.023 26.013-8.127 18.167-21.927 35.655-38.31 47.013-8.088 5.607-16.014 7.517-25.238 10.098-5.827 1.631-6.289 4.645-9.382 10.299-6.438 11.776-12.762 23.509-18.441 35.682-6.78 14.537-13.362 29.089-19.571 43.881-20.917 49.825-37.941 101.446-46.881 154.868-.219-31.481 7.064-63.905 16.25-93.912 6.692-21.862 15.403-42.937 24.695-63.798 2.251-5.054 5.663-11.555 6.62-17.135.669-3.91-1.378-7.669-2.315-11.788-3.654-16.037-3.392-34.004-.184-50.127 3.538-17.779 13.768-26.031 31.074-28.549 6.329-.922 14.374-.584 20.177-3.283 6.323-2.938 8.931-12.598 12.527-18.798 9.657-16.657 21.131-32.631 34.306-46.665a111.29 111.29 0 0111.733-10.795c2.625-2.097 8.17-4.68 9.958-7.263z"/>
    <path fill="#ACDCF0" d="M174.845 672.729a5 5 0 014.946-5.729h61.418a5 5 0 014.946 5.729l-4.747 32.189C239.961 714.73 231.541 722 221.622 722h-22.244c-9.919 0-18.339-7.27-19.786-17.082l-4.747-32.189z"/>
  </g>
  <rect width="335" height="346" x="432" y="194" fill="#EEE" rx="8"/>
  <rect width="70" height="81" x="681" y="237" fill="#fff" rx="8"/>
  <path fill="#E0E0E0" fill-rule="evenodd" d="M716 284c8.837 0 16-7.163 16-16s-7.163-16-16-16-16 7.163-16 16 7.163 16 16 16z" clip-rule="evenodd"/>
  <rect width="50" height="6" x="691" y="288" fill="#E0E0E0" rx="3"/>
  <rect width="34" height="6" x="699" y="298" fill="#E0E0E0" rx="3"/>
  <path fill="#BDBDBD" d="M432 202a8 8 0 018-8h319a8 8 0 018 8v19H432v-19z"/>
  <path fill="#EEE" fill-rule="evenodd" d="M445 212a4 4 0 100-8 4 4 0 000 8zm12 0a4 4 0 100-8 4 4 0 000 8zm12 0a4 4 0 100-8 4 4 0 000 8z" clip-rule="evenodd"/>
  <rect width="70" height="194" x="681" y="326" fill="#fff" rx="8"/>
  <rect width="34" height="26" x="699" y="344" fill="#E0E0E0" rx="4"/>
  <rect width="34" height="25" x="699" y="378" fill="#BDBDBD" rx="4"/>
  <rect width="34" height="25" x="699" y="411" fill="#E0E0E0" rx="4"/>
  <rect width="34" height="25" x="699" y="477" fill="#E0E0E0" rx="4"/>
  <rect width="34" height="25" x="699" y="444" fill="#9E9E9E" rx="4"/>
  <rect width="225" height="47" x="448" y="238" fill="#fff" rx="4"/>
  <rect width="167" height="7.05" x="457" y="252.1" fill="#E0E0E0" rx="3"/>
  <rect width="112.096" height="7.05" x="457" y="263.85" fill="#E0E0E0" rx="3"/>
  <path fill="#E0E0E0" fill-rule="evenodd" d="M648.954 268.5a7 7 0 100-14 7 7 0 000 14z" clip-rule="evenodd"/>
  <path fill="#EEE" fill-rule="evenodd" d="M648.954 264.5a3 3 0 100-6 3 3 0 000 6z" clip-rule="evenodd"/>
  <rect width="225" height="39" x="448" y="387" fill="#fff" rx="4"/>
  <rect width="167" height="5.85" x="457" y="398.7" fill="#E0E0E0" rx="2.925"/>
  <rect width="112.096" height="5.85" x="457" y="408.45" fill="#E0E0E0" rx="2.925"/>
  <path fill="#E0E0E0" fill-rule="evenodd" d="M648.954 413.5a7 7 0 100-14 7 7 0 000 14z" clip-rule="evenodd"/>
  <path fill="#EEE" fill-rule="evenodd" d="M648.954 409.5a3 3 0 100-6 3 3 0 000 6z" clip-rule="evenodd"/>
  <rect width="225" height="39" x="448" y="340" fill="#fff" rx="4"/>
  <rect width="167" height="5.85" x="457" y="351.7" fill="#E0E0E0" rx="2.925"/>
  <rect width="112.096" height="5.85" x="457" y="361.45" fill="#E0E0E0" rx="2.925"/>
  <path fill="#E0E0E0" fill-rule="evenodd" d="M648.954 366.5a7 7 0 100-14 7 7 0 000 14z" clip-rule="evenodd"/>
  <path fill="#BDBDBD" fill-rule="evenodd" d="M648.954 362.5a3 3 0 100-6 3 3 0 000 6z" clip-rule="evenodd"/>
  <rect width="225" height="39" x="448" y="293" fill="#fff" rx="4"/>
  <rect width="167" height="5.85" x="457" y="304.7" fill="#E0E0E0" rx="2.925"/>
  <rect width="112.096" height="5.85" x="457" y="314.45" fill="#E0E0E0" rx="2.925"/>
  <path fill="#E0E0E0" fill-rule="evenodd" d="M648.954 319.5a7 7 0 100-14 7 7 0 000 14z" clip-rule="evenodd"/>
  <path fill="#EEE" fill-rule="evenodd" d="M648.954 315.5a3 3 0 100-6 3 3 0 000 6z" clip-rule="evenodd"/>
  <rect width="225" height="39" x="448" y="434" fill="#fff" rx="4"/>
  <rect width="167" height="5.85" x="457" y="445.7" fill="#E0E0E0" rx="2.925"/>
  <rect width="112.096" height="5.85" x="457" y="455.45" fill="#E0E0E0" rx="2.925"/>
  <path fill="#E0E0E0" fill-rule="evenodd" d="M648.954 460.5a7 7 0 100-14 7 7 0 000 14z" clip-rule="evenodd"/>
  <path fill="#EEE" fill-rule="evenodd" d="M648.954 456.5a3 3 0 100-6 3 3 0 000 6z" clip-rule="evenodd"/>
  <rect width="225" height="39" x="448" y="481" fill="#fff" rx="4"/>
  <rect width="167" height="5.85" x="457" y="492.7" fill="#E0E0E0" rx="2.925"/>
  <rect width="112.096" height="5.85" x="457" y="502.45" fill="#E0E0E0" rx="2.925"/>
  <path fill="#E0E0E0" fill-rule="evenodd" d="M648.954 507.5a7 7 0 100-14 7 7 0 000 14z" clip-rule="evenodd"/>
  <path fill="#EEE" fill-rule="evenodd" d="M648.954 503.5a3 3 0 100-6 3 3 0 000 6z" clip-rule="evenodd"/>
  <path fill="#D4A181" fill-rule="evenodd" d="M407.169 359.376c7.811 3.289 15.183 4.377 18.386 3.067 8.03-3.284 4.525-33.523-3.604-44.504-8.13-10.981-42.003-11.54-40.337 12.229.578 8.25 5.08 15.056 11.049 20.29l-3.188 43.635 26.697-3.721-9.003-30.996z" clip-rule="evenodd"/>
  <path fill="#212121" fill-rule="evenodd" d="M404.793 306.369c-3.599-.081-13.129.848-14.876 1.091-1.117.156-2.291.577-3.096-.345-.659-.754-.66-2.186-.958-3.126-.346-1.093-.769-2.161-1.195-3.225-1.212-3.028-2.795-5.849-4.815-8.423-3.79-4.829-8.836-8.322-14.809-9.932-6.596-1.777-13.721-1.401-20.337.068-7.079 1.572-13.23 4.812-19.68 7.954-6.146 2.994-12.777 4.759-19.661 4.675-6.935-.085-12.581-3.008-18.797-5.663-6.364-2.718-13.391-4.097-20.246-2.599-6.4 1.398-11.988 4.87-16.838 9.143-4.537 3.999-8.104 8.546-9.643 14.46-1.657 6.362-.719 12.962 4.159 17.701 7.07 6.869 18.452 7.314 27.658 5.829a51.216 51.216 0 0015.228-5.01c6.394-3.276 11.644-8.05 17.479-12.143 2.739-1.921 5.615-3.585 8.688-4.924 2.981-1.3 5.982-2.123 9.056-.661 3.251 1.547 6.189 3.102 9.764 3.856 3.43.723 6.98.901 10.453.389 6.756-.994 13.129-4.007 19.501-6.318 5.196-1.885 10.767-3.818 16.384-3.485 2.344.139 5.806.617 6.961 2.844-13.502 4.414-16.543 22.112-10.875 34.003 3.06 6.419 16.843 12.499 21.27 8.284 2.804-2.671.493-5.342-1.008-7.108-2.874-3.383-4.353-8.037-.373-11.225 3.432-2.75 8.123 1.991 8.197 1.974 1.019-.223 9.216-6.442 14.32-14.56 6.101-.489 6.46-4.561 4.558-7.586-1.902-3.024-11.495-5.827-16.469-5.938z" clip-rule="evenodd"/>
  <path fill="#D4A181" fill-rule="evenodd" d="M399.033 481.562l83.471 137.969 62.579 116.641h13.479L453.71 481.562h-54.677z" clip-rule="evenodd"/>
  <path fill="#BDBDBD" fill-rule="evenodd" d="M539.697 729.432c-1.065-.47-2.329.004-2.734 1.095-.825 2.223-2.006 5.75-2.006 7.705 0 3.005 1.012 8.768 1.012 8.768h63.358s2.47-8.072-2.851-8.716c-5.321-.643-8.841-1.162-8.841-1.162l-29.57-13.033a1 1 0 00-1.326.53l-1.941 4.654s-4.926 2.272-8.005 2.272c-1.957 0-5.079-1.221-7.096-2.113z" clip-rule="evenodd"/>
  <path fill="#424242" fill-rule="evenodd" d="M527.703 717.494l25.994-7.774s-17.083-50.491-41.875-111.127c-24.792-60.636-53.252-117.031-53.252-117.031h-73.416s31.641 71.337 67.087 129.637c35.447 58.301 75.462 106.295 75.462 106.295z" clip-rule="evenodd"/>
  <path fill="#D4A181" fill-rule="evenodd" d="M393.548 481.562c-7.878 48.484-23.073 110.426-24.507 112.338-.956 1.274-35.371 12.676-103.246 34.205l2.911 11.751c80.941-11.546 123.59-20.504 127.947-26.873 6.535-9.555 39.168-85.038 51.807-131.421h-54.912z" clip-rule="evenodd"/>
  <path fill="#616161" fill-rule="evenodd" d="M289.654 617.947l5.128 18.926c60.539 5.25 97.633 1.457 111.281-11.379 13.648-12.836 29.203-60.813 46.664-143.932H382.72c-11.063 68.063-17.248 103.523-18.555 106.381-1.307 2.857-26.144 12.858-74.511 30.004z" clip-rule="evenodd"/>
  <path fill="#BDBDBD" fill-rule="evenodd" d="M270.951 625.804c.288-1.139-.41-2.32-1.571-2.525-2.358-.416-6.062-.951-8.005-.612-2.992.521-8.557 2.508-8.557 2.508l11.002 61.689s8.469 1.003 8.186-4.29c-.283-5.292-.377-8.809-.377-8.809l7.842-31.031a1.004 1.004 0 00-.761-1.224l-4.965-1.08s-3.119-4.401-3.654-7.4c-.337-1.89.325-5.106.86-7.226z" clip-rule="evenodd"/>
  <path fill="#D4A181" fill-rule="evenodd" d="M478.004 383.65l-35.648 26.289 16.403 13.143 24.456-29.307c14.209-6.087 20.551-9.975 19.025-11.664-1.287-1.424-2.995-1.13-4.569-.86-1.226.211-2.369.408-3.169-.233-1.825-1.462.368-7.771 2.708-13.67 2.339-5.898-.923-4.959-2.716-3.907-5.641 5.039-11.137 11.776-16.49 20.209zm42.979 23.926l-15.654 11.575 3.35 16.693s9.874-9.369 18.955-13.291c11.579-5.002 16.095-8.218 20.932-16.456 2.588-4.408 4.131-12.759.764-14.939-1.292-.837-5.244 2.115-9.277 5.128-3.073 2.295-6.193 4.626-8.218 5.34-2.725.963-2.906-2.679-3.051-5.589-.104-2.089-.189-3.8-1.182-3.164-4.952.776-6.619 14.703-6.619 14.703z" clip-rule="evenodd"/>
  <path fill="#616161" fill-rule="evenodd" d="M422.892 407.902c13.504-2.026 31.138-7.364 48.67-22.122l9.918 15.609c-11.427 14.873-28.574 28.175-44.957 29.996-12.911 1.435-21.664-13.028-13.631-23.483z" clip-rule="evenodd"/>
  <path fill="#9E9E9E" fill-rule="evenodd" d="M402.595 527.138c-13.092.135-25.122.258-31.93 2.597-11.429-24.127-7.157-40.917-3.214-56.416 2.377-9.341 4.635-18.213 3.264-27.941-3.993-28.328 12.832-75.133 16.217-75.604l.971-.136 26.823-3.738 3.071-.428c3.864 17.336 12.443 35.493 21.078 53.767 2.016 4.267 4.036 8.541 5.999 12.812 23.145 1.908 70.47-22.557 70.47-22.557s16.219 23.967 16.823 35.051c-26.87 19.014-50.772 29.152-71.182 32.446 2.353 11.919 2.494 23.553-.993 34.687-4.673 14.918-32.895 15.208-57.397 15.46z" clip-rule="evenodd"/>
  <rect width="120" height="80" x="476" y="322.058" fill="#D34757" rx="4" transform="rotate(-15 476 322.058)"/>
  <path fill="#F3BEC9" d="M541.343 341.82l3.864-1.036 2.588 9.66-3.864 1.035-2.588-9.659zm3.104 11.591l3.864-1.035 1.035 3.864-3.864 1.035-1.035-3.864z"/>
  <path fill="#F3BEC9" d="M543.686 329.183a3.995 3.995 0 00-3.965-1.137 3.993 3.993 0 00-2.865 2.969l-7 30.58a3.968 3.968 0 001.123 3.773 3.968 3.968 0 003.81.984l28.356-7.598a3.971 3.971 0 002.81-2.757 3.98 3.98 0 00-.914-3.83l-21.355-22.984zm-9.932 33.305l7.002-30.58 21.363 22.98-28.365 7.6z"/>
  <path fill="#D4A181" fill-rule="evenodd" d="M770.199 356.808c-6.688 5.172-13.524 8.109-16.959 7.667-8.614-1.11-13.121-31.162-8.135-43.831 4.987-12.669 37.559-21.886 42.154 1.457 1.595 8.101-.977 15.817-5.377 22.393l14.469 41.252-26.759 3.252.607-32.19z" clip-rule="evenodd"/>
  <path fill="#F2C57C" fill-rule="evenodd" d="M747.923 307.055c-5.565 1.36-10.147 2.479-12.341 1.448-.338 9.159 5.245 15.832 21.539 12.43 3.88 1.563 6.93 5.005 10.652 9.554a6.787 6.787 0 012.389-.752c3.695-.449 7.057 2.142 7.509 5.788a6.576 6.576 0 01-1.429 4.968 101.442 101.442 0 006.105 6.092c6.874-5.294 10.803-18.765 2.187-30.262-6.357-16.657-24.006-12.345-36.611-9.266z" clip-rule="evenodd"/>
  <path fill="#D4A181" fill-rule="evenodd" d="M827.97 479.06c-2.026 27.281-132.512 107.598-133.273 109.852-.507 1.502 40.615 94.981 40.615 94.981l-11.406 4.374s-63.076-99.001-59.836-109.55c4.639-15.103 101.243-99.367 101.243-99.367l62.657-.29z" clip-rule="evenodd"/>
  <path fill="#649700" fill-rule="evenodd" d="M732.311 669.819l-18.623 6.69c-39.269-43.723-54.661-79.799-51.855-98.18 2.807-18.382 100.893-99.202 100.893-99.202h66.579c-2.272 63.178-123.216 110.025-124.833 112.718-1.618 2.692 14.302 29.06 27.839 77.974z" clip-rule="evenodd"/>
  <path fill="#BDBDBD" fill-rule="evenodd" d="M736.354 681.441c.84-.802 2.194-.785 2.953.103 1.544 1.807 3.873 4.714 4.549 6.547 1.04 2.818 2.082 8.565 2.082 8.565l-59.537 21.385s-5.113-6.738-.336-9.138c4.777-2.399 7.905-4.074 7.905-4.074l23.277-22.203a1.008 1.008 0 011.432.049l3.433 3.71s5.415.469 8.309-.571c1.837-.66 4.346-2.857 5.933-4.373z" clip-rule="evenodd"/>
  <path fill="#D4A181" fill-rule="evenodd" d="M812.967 479.06l58.128 137.71 57.13 116.422h-13.479L767.277 479.06h45.69z" clip-rule="evenodd"/>
  <path fill="#BDBDBD" fill-rule="evenodd" d="M926.179 726.464c1.064-.469 2.326.005 2.731 1.095.825 2.219 2.007 5.738 2.007 7.69 0 2.998-1.013 8.751-1.013 8.751h-63.358s-2.469-8.057 2.852-8.7c5.321-.642 8.84-1.16 8.84-1.16l29.571-13.009a1 1 0 011.325.53l1.941 4.645s4.926 2.268 8.006 2.268c1.957 0 5.081-1.22 7.098-2.11z" clip-rule="evenodd"/>
  <path fill="#89BA17" fill-rule="evenodd" d="M923.066 709.007l-29.95 5.542c-23.158-33.597-120.074-171.358-130.699-235.489h66.676c35.485 46.36 71.899 195.794 93.973 229.947z" clip-rule="evenodd"/>
  <path fill="#D4A181" fill-rule="evenodd" d="M663.492 367.227l43.815 7.384-8.59 19.049-35.226-15.09c-15.451.963-22.883.351-22.298-1.836.494-1.844 2.151-2.349 3.677-2.814 1.188-.363 2.298-.701 2.716-1.63.956-2.119-3.89-6.746-8.679-10.942s-1.451-4.824.629-4.694c7.336 1.951 15.321 5.475 23.956 10.573zm24.302 110.553l32.368-30.095 10.241 18.223-33.431 18.693c-8.528 12.756-13.501 18.247-14.918 16.47-1.195-1.498-.606-3.107-.063-4.59.423-1.155.817-2.232.318-3.12-1.139-2.028-7.802-.99-14.083.261-6.28 1.252-4.778-1.756-3.42-3.317 5.998-4.609 13.66-8.784 22.988-12.525z" clip-rule="evenodd"/>
  <path fill="#00465D" fill-rule="evenodd" d="M766.794 371.565c-14.947 37.991-39.564 68.713-76.643 102.046l17.495 15.238c43.271-22.135 65.953-35.073 73.526-70.171 1.9-8.809.62-35.998.629-50.387l-15.007 3.274z" clip-rule="evenodd"/>
  <path fill="#E0E0E0" fill-rule="evenodd" d="M835.666 483.718l-85.852 10.434s18.28-91.338 14.854-124.133c-.117-1.114 1.721-3.327 2.674-3.182 10.449 1.587 21.354-4.732 21.354-4.732 24.36 29.829 36.332 68.744 46.97 121.613z" clip-rule="evenodd"/>
  <path fill="#005972" fill-rule="evenodd" d="M773.275 414.004c-6.368 58.389.014 104.777 29.617 101.179l45.776-5.563c1.289-49.1-26.112-113.631-48.009-145.198-.836-1.205-2.578-3.458-5.97-3.045l-13.301 1.616-.011.054c-3.999.519-8.389 1.199-13.143 1.936-24.475 3.791-58.602 9.078-98.674 1.549l-1.766 22.969c37.542 17.858 74.904 30.685 105.481 24.503z" clip-rule="evenodd"/>
</svg>
