<svg xmlns="http://www.w3.org/2000/svg" width="1200" height="800" fill="none">
  <path fill="#AECE68" fill-rule="evenodd" d="M731.794 476.385c-6.895-77.049-376.83-225.761-445.507-152.782-68.677 72.979-2.652 209.942 141.269 245.014 143.922 35.073 311.132-15.183 304.238-92.232z" clip-rule="evenodd" opacity=".1"/>
  <path fill="#67A4BF" fill-rule="evenodd" d="M503.144 526.448c6.176-65.456 337.548-191.793 399.066-129.794 61.518 61.998 45.947 192.405-82.972 222.2-128.919 29.796-322.27-26.95-316.094-92.406z" clip-rule="evenodd" opacity=".1"/>
  <path fill="#F2F2F2" fill-rule="evenodd" d="M166.5 209.673c23.472 0 42.5-10.073 42.5-22.5 0-12.426-19.028-22.5-42.5-22.5s-42.5 10.074-42.5 22.5c0 12.427 19.028 22.5 42.5 22.5z" clip-rule="evenodd"/>
  <path fill="#CFF3FF" fill-rule="evenodd" d="M216 202.673c0-27.614-22.162-50-49.5-50s-49.5 22.386-49.5 50" clip-rule="evenodd"/>
  <path fill="#CFF3FF" d="M164 0h5v160h-5z"/>
  <g opacity=".7">
    <path fill="#F5F5F5" fill-rule="evenodd" d="M242 159c17.545 0 31.768-8.13 31.768-18.158S259.545 122.684 242 122.684s-31.768 8.13-31.768 18.158S224.455 159 242 159z" clip-rule="evenodd"/>
    <path fill="#E0E0E0" fill-rule="evenodd" d="M279 153.351C279 131.066 262.435 113 242 113s-37 18.066-37 40.351" clip-rule="evenodd"/>
    <path fill="#E0E0E0" d="M240 0h5v136h-5z"/>
  </g>
  <path fill="#F5F5F5" fill-rule="evenodd" d="M788 196c29.271 0 53-23.729 53-53s-23.729-53-53-53-53 23.729-53 53 23.729 53 53 53z" clip-rule="evenodd"/>
  <path fill="#000" fill-opacity=".1" fill-rule="evenodd" d="M788 104a3 3 0 100-6 3 3 0 000 6zm-42 42a3 3 0 100-6 3 3 0 000 6zm84 0a3 3 0 100-6 3 3 0 000 6zm-42 42a3 3 0 100-6 3 3 0 000 6z" clip-rule="evenodd"/>
  <path fill="#9E9E9E" fill-rule="evenodd" d="M788 107l2 35h-4l2-35zm17.699 53.698l-18.385-15.556 2.828-2.828 15.557 18.384z" clip-rule="evenodd"/>
  <path fill="#BDBDBD" fill-rule="evenodd" d="M788 147a4 4 0 100-8 4 4 0 000 8z" clip-rule="evenodd"/>
  <path fill="#EEE" fill-rule="evenodd" d="M186.258 432.173c2.865-.35 5.922-.226 8.586.904 5.665 2.405 7.275 9.097 7.197 14.537-.084 5.854-1.327 12.249 3.124 16.966 2.046 2.168 4.591 3.828 6.6 6.037 2.147 2.36 3.832 5.06 5.079 7.96 2.29 5.326 3.414 11.59 1.32 17.177-1.844 4.92-6.483 9.36-5.481 14.954 1.046 5.835 6.929 10.296 10.607 14.643 4.163 4.918 7.996 11.205 8.626 17.655.603 6.182-2.088 12.434-6.217 17.107-8.251 9.338-20.654 13.915-33.159 13.887-5.31-.012-11.321-.252-15.903-3.105-1.417-.882-2.164-1.872-3.006-3.247-.754-1.234-1.751-2.036-2.906-2.909-2.535-1.917-4.366-4.5-5.535-7.392-4.538-11.233-.911-25.129 5.441-35.104 1.505-2.363 2.738-4.638 2.006-7.454-.763-2.941-2.638-5.593-4.297-8.12-1.639-2.499-3.51-4.882-4.791-7.582-1.342-2.83-1.72-5.793-1.483-8.889.446-5.817 2.957-11.185 6.512-15.862 3.424-4.506 7.444-8.818 7.453-14.721.01-6.258-4.173-11.824-2.391-18.186.738-2.634 2.22-5.337 4.609-6.916 2.29-1.515 5.315-2.011 8.009-2.34z" clip-rule="evenodd"/>
  <path fill="#E0E0E0" fill-rule="evenodd" d="M184.386 442.176c.054-.84 1.051-1.344 1.836-1.125 1.032.289 1.013 1.254.985 2.114-.083 2.643.299 5.212.935 7.777 1.32 5.332 3.761 10.244 5.694 15.366 1.932 5.117 2.839 10.401 1.706 15.816-1.069 5.106-2.747 10.079-3.841 15.191-.963 4.506-1.989 9.258-.521 13.752 1.412 4.326 4.534 7.849 6.782 11.758 4.655 8.093 6.719 17.071 6.995 26.31.128 4.29.013 8.62-.982 12.828-.573 2.423-1.343 5.697-3.419 7.37-.957.772-2.595 1.038-3.401-.104-.756-1.071-.093-2.73.148-3.872 1.04-4.944 1.249-9.996 1-15.015-.241-4.862-.816-9.716-2.346-14.36-1.42-4.309-3.578-8.18-6.117-11.95-2.588-3.841-5.278-7.691-6.347-12.243-1.087-4.623-.204-9.327.976-13.862 1.248-4.796 2.883-9.455 4.573-14.122 1.647-4.547 2.23-8.85 1.321-13.609-1.796-9.402-6.603-18.228-5.977-28.02z" clip-rule="evenodd"/>
  <path fill="#EEE" fill-rule="evenodd" d="M261.892 443.582c3.545 1.077 7.066 2.813 9.593 5.536 5.373 5.791 3.724 14.543.758 20.935-3.193 6.88-8.031 13.796-5.303 21.69 1.253 3.629 3.361 6.916 4.55 10.573 1.271 3.908 1.819 7.978 1.749 12.056-.129 7.49-2.121 15.483-7.531 21.001-4.763 4.859-12.55 7.697-14.331 14.833-1.859 7.445 2.684 15.782 4.701 22.835 2.282 7.983 3.455 17.412.784 25.368-2.559 7.625-9.02 13.619-16.334 16.997-14.613 6.75-31.579 5.711-46.232-.828-6.221-2.777-13.145-6.187-17.011-11.945-1.195-1.78-1.549-3.339-1.809-5.403-.233-1.852-.979-3.319-1.871-4.952-1.961-3.586-2.743-7.594-2.585-11.622.614-15.645 12.214-30.192 24.936-38.684 3.015-2.012 5.662-4.06 6.293-7.772.66-3.875-.138-7.987-.748-11.839-.602-3.807-1.537-7.598-1.612-11.459-.078-4.044 1.044-7.745 2.959-11.283 3.597-6.647 9.379-11.689 16.022-15.372 6.397-3.547 13.392-6.555 16.523-13.532 3.319-7.395 1.354-16.154 6.807-22.751 2.258-2.731 5.425-5.157 9.062-5.782 3.487-.599 7.296.388 10.63 1.4z" clip-rule="evenodd"/>
  <path fill="#E0E0E0" fill-rule="evenodd" d="M254.651 455.811c.503-.967 1.933-1.042 2.736-.371 1.056.884.527 2.016.045 3.02-1.482 3.087-2.38 6.329-2.98 9.699-1.248 7.007-.967 14.103-1.389 21.182-.421 7.073-2.128 13.806-6.289 19.624-3.924 5.487-8.491 10.497-12.447 15.978-3.486 4.83-7.174 9.92-7.811 16.011-.615 5.863 1.191 11.672 1.772 17.48 1.204 12.023-1.084 23.737-5.6 34.823-2.097 5.148-4.499 10.215-7.867 14.676-1.939 2.57-4.554 6.044-7.858 6.936-1.523.412-3.578-.13-3.921-1.905-.324-1.666 1.321-3.282 2.2-4.509 3.805-5.309 6.696-11.182 9.033-17.257 2.265-5.884 4.135-11.933 4.778-18.235.596-5.847.1-11.562-.895-17.357-1.014-5.905-2.143-11.875-1.009-17.825 1.151-6.045 4.646-11.153 8.401-15.905 3.971-5.026 8.323-9.686 12.743-14.327 4.307-4.522 7.243-9.311 8.673-15.423 2.824-12.077 1.825-25.048 7.685-36.315z" clip-rule="evenodd"/>
  <path fill="#E0E0E0" fill-rule="evenodd" d="M152.306 488c5.894 0 11.076 3.124 14.647 7.558 4.18 5.19 5.024 11.528 6.722 17.714.844 3.078 2.297 6.134 4.842 8.226 2.316 1.902 5.255 2.282 8.026 3.212 5.539 1.857 10.012 6.331 11.778 11.789 2.155 6.659-.128 13.374.265 20.123.361 6.197 6.472 10.063 11.388 13.034 4.847 2.93 9.215 5.672 10.675 11.379 1.548 6.053 2.067 12.809-.077 18.788-3.57 9.956-14.02 14.34-24.116 15.019-9.163.617-20.684-.351-27.565-7.002-4.118-3.98-5.609-9.547-5.424-15.085.115-3.444.797-6.856 1.679-10.184.625-2.358 1.47-4.707 1.71-7.144.64-6.485-5.353-7.73-10.455-9.511-6.483-2.262-11.021-6.536-14.177-12.491-2.939-5.544-4.172-11.767-2.41-17.871.9-3.117 2.532-5.944 4.745-8.349.974-1.059 2.348-1.942 3.227-3.054.821-1.039.642-2.385.359-3.601-1.308-5.619-5.383-10.272-6.84-15.882-1.316-5.063-.538-11.364 4.09-14.63 2-1.411 4.467-2.022 6.911-2.038z" clip-rule="evenodd"/>
  <path fill="#EEE" fill-rule="evenodd" d="M160.338 502.641c6.247 6.655 7.945 15.684 8.443 24.435.28 4.907-.011 10.083 1.431 14.843 1.233 4.074 4.125 7.188 7.106 10.132 6.001 5.924 12.693 11.948 14.448 20.523 1.03 5.032.335 10.23 1.758 15.206 1.293 4.524 3.572 8.968 6.343 12.788 2.231 3.077 5.137 5.432 7.576 8.299.744.876 1.81 2.164 1.503 3.4-.36 1.447-2.203 1.905-3.511 1.678-3.049-.53-5.616-3.442-7.61-5.559-2.915-3.095-5.393-6.424-7.406-10.159-2.236-4.147-4.036-8.548-4.805-13.201-.798-4.827-.401-9.858-2.223-14.491-3.067-7.795-10.505-12.395-15.883-18.471-6.7-7.57-5.701-16.992-5.015-26.305.377-5.118.752-10.897-1.834-15.57-.987-1.783-3.188-3.446-3.612-5.474-.389-1.857 1.733-3.734 3.291-2.074z" clip-rule="evenodd"/>
  <path fill="#DDEABE" fill-rule="evenodd" d="M167 612c0 38.058 6.211 58 39 58s39-19.942 39-58h-78z" clip-rule="evenodd"/>
  <rect width="38" height="9" x="333" y="557" fill="#8BC0D8" rx="2"/>
  <path fill="#CFF3FF" fill-rule="evenodd" d="M350.217 484h4.566c.518 15.419 2.924 30.085 7.217 44h6.5c8.56 0 15.5 6.94 15.5 15.5 0 8.56-6.94 15.5-15.5 15.5h-33c-8.56 0-15.5-6.94-15.5-15.5 0-8.56 6.94-15.5 15.5-15.5h7.5c6.44-20.872 7.217-44 7.217-44z" clip-rule="evenodd"/>
  <path fill="#ACDCF0" fill-rule="evenodd" d="M316.622 414.679S333.811 413 351 413s34.378 1.679 34.378 1.679L390 494.133S370.5 496 351 496s-39-1.867-39-1.867l4.622-79.454z" clip-rule="evenodd"/>
  <path fill="#EEE" fill-rule="evenodd" d="M289 670V566h125v104h-21v-82h-83v82h-21z" clip-rule="evenodd"/>
  <path fill="#DDEABE" fill-rule="evenodd" d="M857.381 388.208c8.833 20.989 23.848 35.573 31.801 57.397 4.716 12.942 6.682 27.015 6.801 41.427.065 7.828-.072 15.662-.108 23.49-.036 7.634-.243 15.219-.891 22.805-.652 7.625-1.381 15.16-1.702 22.832-.251 5.978-.365 12.932-2.391 18.385-1.612 4.337-5.708 4.972-6.794-.288-.604-2.923-.528-6.188-.461-9.193.085-3.855.309-7.704.424-11.559.459-15.468-.137-30.938.175-46.412.304-15.119 2.247-30.221.097-45.239-1.776-12.401-6.286-23.051-11.47-33.26-4.988-9.822-10.417-19.406-13.787-30.579-.968-3.208-1.716-6.533-2.075-9.984.157-.073.284-.014.381.178z" clip-rule="evenodd"/>
  <path fill="#C5DC94" fill-rule="evenodd" d="M854.974 429.617c1.749 1.263 2.726 3.111 3.908 4.934 1.47 2.266 3.199 4.312 4.669 6.58 3.064 4.729 5.757 9.748 8.551 14.668 5.304 9.338 9.331 19.292 11.325 30.096 2.068 11.197 2.625 22.753 3.492 34.117.92 12.044 1.846 24.176 1.968 36.267.055 5.417.348 11.167-.303 16.546-.405 3.348-1.916 6.202-5.323 6.175-7.236-.058-10.634-8.073-12.053-14.646-2.089-9.68-2.506-19.961-2.175-29.86.399-11.936 2.471-23.692 3.367-35.582.95-12.587.414-24.952-3.914-36.803-2.186-5.989-4.723-11.835-7.002-17.784-.97-2.533-1.765-5.135-3.075-7.494-1.458-2.623-3.267-5.005-4.409-7.831l.974.617z" clip-rule="evenodd"/>
  <path fill="#DDEABE" fill-rule="evenodd" d="M938.334 404.518L939 404c-.639 2.693-1.793 4.88-2.676 7.341-.793 2.213-1.195 4.717-1.729 7.136-1.255 5.681-2.705 11.234-3.889 16.963-2.346 11.337-1.902 23.55-.364 36.128 1.453 11.882 3.75 23.745 4.845 35.624.908 9.851 1.298 20.01.432 29.409-.588 6.383-2.516 14.005-7.771 13.361-2.474-.303-3.764-3.281-4.284-6.642-.835-5.398-1.01-11.074-1.335-16.442-.727-11.982-.871-23.927-1.015-35.786-.136-11.188-.509-22.598.238-33.505.721-10.524 2.976-20.007 6.201-28.757 1.698-4.61 3.317-9.328 5.225-13.722.915-2.107 2.033-3.969 2.949-6.075.736-1.694 1.321-3.432 2.507-4.515zm-81.125 59.784c.957-1.607 3.063 3.691 3.384 4.358l-.409-.993c1.899 3.158 3.637 6.446 4.717 10.067 1.069 3.585 1.987 7.243 2.99 10.853 1.883 6.774 4.311 13.356 6.016 20.191 1.662 6.66 2.081 13.208 1.678 20.097-.418 7.16-.674 14.431-.186 21.587.233 3.418 1.344 6.602 2.105 9.892.762 3.294 1.362 6.632 2.263 9.885.207-.424.233.993.233 1.1a6.827 6.827 0 01-.381 2.265c-.671 1.982-1.928 3.665-3.841 4.212-3.456.987-6.666-2.157-7.78-5.477-1.599-4.764-2.481-10.028-3.243-15.035-.698-4.591-.864-9.21-.656-13.864.409-9.179 2.07-18.238 2.519-27.414.489-9.99-1.49-19.377-3.147-29.101-.798-4.686-1.561-9.327-3.115-13.791-.629-1.808-1.449-3.403-2.308-5.073-.49-.949-1.479-2.643-.839-3.759z" clip-rule="evenodd"/>
  <path fill="#AECE68" fill-rule="evenodd" d="M885.252 448.697c-.396 11.445-1.08 22.803-2.606 34.127-1.557 11.556-3.346 23.073-4.844 34.639-1.459 11.259-2.987 22.705-2.784 34.122.15 8.408-1.244 22.634 8.095 26.784 9.459 4.203 11.488-13.746 12.109-19.67 1.19-11.366.805-22.852.227-34.28-.593-11.73-1.583-23.399-2.809-35.085-1.363-12.981-2.432-26.02-3.291-39.038-.424-6.439-.529-12.867-.412-19.308.111-6.077-.12-12.218-2.281-17.988l-.338.246" clip-rule="evenodd"/>
  <path fill="#C5DC94" fill-rule="evenodd" d="M934.083 484.955c-1.701 2.478-3.416 4.932-5.022 7.557-2.875 4.697-5.474 9.92-6.256 16.635-1.636 14.053-.324 29.232-.007 43.716.065 2.959-.309 5.83.857 8.647 1.058 2.554 3.036 4.5 4.921 4.49 4.035-.023 3.419-9.905 3.426-14.254.012-7.623-.843-15.324-.769-22.94.073-7.546.532-15.112 1.626-22.278 1.108-7.253 2.73-14.219 4.87-20.718.297-.902 2.429-7.873.415-6.671" clip-rule="evenodd"/>
  <path fill="#AECE68" fill-rule="evenodd" d="M916.262 410c-2.653 0-2.637 13.226-2.716 14.925-.289 6.13-.221 12.263-.403 18.394-.399 13.382-.889 26.881-2.9 40.107-1.082 7.121-2.336 14.21-3.686 21.276-1.353 7.087-3.17 14.165-4.06 21.342-.855 6.899-.372 13.933-.255 20.866.117 6.975.328 13.964 1.242 20.878.225 1.706.49 3.407.773 5.103.235 1.414.098 3.167.497 4.51.639 2.151 3.379 2.855 5.224 2.519 4.992-.911 8.181-7.18 9.887-11.76 2.178-5.849 3.334-12.193 4.474-18.356 1.292-6.983 2.049-14.072 2.404-21.181.723-14.448-.204-28.911-1.239-43.313-.576-8.009-1.241-15.983-2.258-23.943-1.014-7.926-2.314-15.817-3.16-23.766-.615-5.776-1.221-11.561-1.619-17.36-.096-1.382-.176-10.241-2.205-10.241z" clip-rule="evenodd"/>
  <path fill="#C5DC94" fill-rule="evenodd" d="M912.941 506.139c-.433-13.886-6.014-74.88-7.284-91.672-.318-4.203-3.375-21.702-3.772-26.467-1.075 1.347-.984 22.309-.972 27.126.013 4.765-.578 9.45-.882 14.189-.31 4.836-7.459 67.286-8.386 71.932-1.846 9.244-3.081 18.729-4.034 28.181-.928 9.211-2.371 18.93-1.129 28.19.285 2.132.737 4.23 1.473 6.188.794 2.116 1.339 4.073 1.977 6.287 1.026 3.566 2.883 6.696 5.736 8.169 5.849 3.019 8.99-3.815 10.583-9.765 2.542-9.502 4.175-19.159 4.94-29.138.846-11.041 2.096-22.104 1.75-33.22z" clip-rule="evenodd"/>
  <rect width="91" height="91" x="851" y="547" fill="#E0E0E0" rx="2"/>
  <rect width="10" height="113" x="841" y="557" fill="#BDBDBD" rx="2"/>
  <rect width="10" height="113" x="891" y="557" fill="#BDBDBD" rx="2"/>
  <rect width="10" height="113" x="942" y="557" fill="#BDBDBD" rx="2"/>
  <path stroke="#BDBDBD" stroke-width="8" d="M943 294.236l18.568-18.576a8.001 8.001 0 0111.316 0l49.436 49.453c3 3.001 4.68 7.069 4.68 11.311V664"/>
  <rect width="59" height="7" x="997" y="663" fill="#E0E0E0" rx="3"/>
  <path fill="#E0E0E0" d="M907.499 283.335c12.887-12.888 33.781-12.888 46.669 0 12.887 12.887 12.887 33.781 0 46.669l-19.799 19.799-46.669-46.669 19.799-19.799z"/>
  <path fill="#F5F5F5" fill-rule="evenodd" d="M907.228 330.527c12.887 12.887 25.392 21.277 27.931 18.738 2.538-2.538-5.851-15.043-18.739-27.93-12.887-12.888-25.392-21.277-27.93-18.739-2.539 2.539 5.851 15.044 18.738 27.931z" clip-rule="evenodd"/>
  <path fill="#D4A181" fill-rule="evenodd" d="M584.167 365.782c7.275 4.398 14.422 6.523 17.777 5.656 8.413-2.175 9.186-33.046 2.677-45.217-6.51-12.17-39.974-17.475-41.661 6.639-.585 8.369 2.918 15.837 8.094 21.932l-9.281 43.391h26.96l-4.566-32.401z" clip-rule="evenodd"/>
  <path fill="#784931" fill-rule="evenodd" d="M616.565 309.35c-.559-1.969-2.06-3.654-4.084-4.154a5.394 5.394 0 00-1.503-.15c-.181.007-.232.06-.316-.067-.063-.094-.064-.325-.09-.435a8.412 8.412 0 00-.305-1.016c-.424-1.129-1.135-2.128-1.993-2.97-1.605-1.576-3.773-2.663-6.025-2.86-1.233-.107-2.457.094-3.622.496a14.35 14.35 0 00-1.758.754c-.172.086-.729.509-.901.482-.19-.031-.572-.505-.727-.624-1.911-1.47-4.271-2.049-6.652-2.031-2.687.02-5.274.155-7.515 1.798a14.777 14.777 0 00-2.012 1.788 9.265 9.265 0 00-.367.423c-.201.245-.169.325-.45.154-1.078-.657-2.328-.964-3.587-.809-.748.092-1.475.317-2.165.613-.236.101-.78.504-1.03.507-.249.004-.786-.369-1.042-.463a8.497 8.497 0 00-4.327-.402c-1.5.244-2.973.844-4.243 1.673-.611.399-1.145.841-1.573 1.434-.185.257-.352.527-.561.765-.123.139-.366.282-.432.458.039-.106-1.64-.755-1.798-.797a4.419 4.419 0 00-2.531.097c-1.555.513-2.892 1.664-3.99 2.844a11.342 11.342 0 00-1.478 1.989 12.71 12.71 0 00-.553 1.053c-.081.174-.135.392-.242.548-.139.202-.232.206-.482.294-1.272.447-2.432 1.204-3.316 2.227-.893 1.034-1.473 2.308-1.716 3.65-.014.079-.022.406-.069.449-.063.059-.319.033-.415.044a8.279 8.279 0 00-2.749.808c-2.172 1.078-3.726 3.1-4.486 5.374-.798 2.387-.784 5.122.17 7.464.154.379.337.746.552 1.093.133.214.175.214.089.438-.095.249-.27.491-.384.734-.37.794-.629 1.636-.793 2.495-.269 1.411-.402 2.893-.137 4.314.123.66.338 1.305.664 1.893a5.459 5.459 0 00.945 1.239c.073.071.168.133.23.213.151.194.182.035.105.32-.109.399-.356.792-.506 1.181-.156.4-.297.805-.425 1.215-.26.829-.481 1.673-.618 2.532-.265 1.649-.218 3.405.559 4.918.333.648.81 1.215 1.388 1.657.283.216.59.402.911.555.166.079.377.113.452.273.081.173-.039.515-.067.708-.239 1.677-.359 3.437.138 5.081.458 1.513 1.466 2.85 2.774 3.734 2.539 1.717 5.96 1.62 8.627.246a9.01 9.01 0 001.926-1.328c1.478 1.995 4.518 1.932 6.677 1.364 2.69-.708 4.849-2.585 6.093-5.05 1.7 2.077 5.269 1.403 6.449-.85.288-.551.46-1.159.544-1.774.044-.323.016-.649.049-.97.043-.409.315-.806.471-1.201.305-.77.494-1.565.502-2.395.005-.433-.05-.856-.091-1.286-.037-.387.07-.747.131-1.129-.69.114-1.531-.073-2.181-.274-.638-.197-1.235-.715-1.685-1.189-1.046-1.1-1.684-2.542-2.121-3.977-.959-3.149-.566-6.928 2.592-8.656 1.472-.806 5.879-.803 7.632-.405 1.842.418 3.931 4.496 4.034 4.88.063.237.031.531.249.689.477.347 1.265-.256 1.617-.554.608-.513 1.041-1.197 1.417-1.89a23.414 23.414 0 001.943-4.781c.359-1.274.589-2.588 1.058-3.829.467-1.236 1.204-2.34 2.349-3.04 1.245-.761 2.673-1.162 4.04-1.641 1.356-.474 2.687-1.053 3.738-2.059.231-.222.455-.457.641-.717.147-.206.292-.6.516-.73.347-.203.855.325 1.156.516 1.483.945 2.72 2.263 3.718 3.703.993 1.431 1.807 2.809 2.469 4.408.491 1.186.797 2.704 1.661 3.676.385.434 3.25.697 4.178.318.928-.379 1.969-1.363 2.28-1.979a3.084 3.084 0 00.259-2.015c-.08-.406-.244-.786-.333-1.185-.076-.335-.144-.652-.307-.959a2.36 2.36 0 00-1.47-1.176 6.926 6.926 0 001.588-2.16c.393-.85.727-1.883.822-2.815.077-.758-.042-1.542-.455-2.193-.434-.683-1.202-1.128-1.866-1.554a12.14 12.14 0 002.598-2.838c1.389-2.086 2.248-4.715 1.543-7.202z" clip-rule="evenodd"/>
  <path fill="#00465D" fill-rule="evenodd" d="M552.787 491.704l54.011 143.354 37.859 105.66h21.586l-52.04-249.014h-61.416z" clip-rule="evenodd"/>
  <path fill="#005972" fill-rule="evenodd" d="M539.438 491.704c-.587 49.188-.163 115.411-1.531 118.478-1.368 3.066-85.097 69.868-85.097 69.868l11.127 18.978s99.405-64.3 104.488-72.867c5.082-8.567 30.614-87.4 43.898-134.457h-72.885z" clip-rule="evenodd"/>
  <path fill="#003145" fill-rule="evenodd" d="M433.235 692.821l18.793-14.346 15.163 18.126c1.75 20.497 13.532 45.975 13.532 45.975l-3.442 2.897-27.439-32.799-7.665-12.67-1.721 1.449-7.221-8.632zM642.653 761l1.124-23.662h23.59c16.778 11.831 43.81 19.155 43.81 19.155V761H668.49l-14.603-2.254V761h-11.234z" clip-rule="evenodd"/>
  <path fill="#D4A181" fill-rule="evenodd" d="M683.857 503.687l-35.833-26.392-7.921 19.64 35.484 14.759c10.035 11.824 15.647 16.754 16.834 14.788 1.002-1.658.219-3.209-.502-4.639-.562-1.113-1.086-2.152-.7-3.109.881-2.185 7.622-1.955 14.01-1.463 6.388.493 4.526-2.358 2.986-3.766-6.52-3.915-14.64-7.187-24.358-9.818zm-187.913 46.505c3.292-6.698 14.502-71.986 14.502-71.986l23.475.092s-21.742 70.401-23.475 74.708c-2.251 5.596 1.573 13.726 4.166 19.239.401.853.772 1.643 1.087 2.352-3.597 1.615-5.325-.337-7.147-2.395-2.058-2.324-4.236-4.783-9.362-2.391-1.98.924-3.854 2.016-5.685 3.084-6.324 3.687-12.134 7.075-20.038 2.183-1.253-.775-2.626-3.695.692-5.977 8.265-5.685 20.175-15.634 21.785-18.909z" clip-rule="evenodd"/>
  <path fill="#649700" fill-rule="evenodd" d="M577.158 379.402l9.713-1.671c36.04 31.229 50.843 91.223 95.02 123.004l-10.633 13.22c-76.638-9.518-95.634-82.696-94.1-134.553z" clip-rule="evenodd"/>
  <path fill="#E0E0E0" fill-rule="evenodd" d="M534.813 501.845h85.948c3.928 0 3.188-5.688 2.62-8.559-6.552-33.127-32.13-68.836-32.13-115.992l-24.791-3.9c-20.506 33.08-27.597 73.808-31.647 128.451z" clip-rule="evenodd"/>
  <path fill="#89BA17" fill-rule="evenodd" d="M525.149 525.507c-3.862 9.306-7.65 17.425-11.219 23.662h-18.433c-1.983-64.317 22.293-113.807 42.61-143.647-4.511-.324-8.583-2.217-11.157-6.876-9.061-16.4-5.789-25.429 3.895-28.397 5.325-1.632 10.333-.518 16.328.815 4.905 1.091 10.472 2.33 17.413 2.33h.007c.673 0 1.285.046 1.841.132l8.226.471s33.401 113.544 18.423 151.51h-67.934z" clip-rule="evenodd"/>
  <path fill="#000" fill-opacity=".1" fill-rule="evenodd" d="M525.149 525.507c5.068-12.209 10.265-26.46 15.267-41.178 1.862 16.208 4.962 32.487 10.124 41.178h-25.391z" clip-rule="evenodd"/>
</svg>
