<svg xmlns="http://www.w3.org/2000/svg" width="1200" height="800" fill="none">
  <g fill-rule="evenodd" clip-path="url(#clip0)" clip-rule="evenodd">
    <path fill="#AECE68" d="M109.48 585.501c25.297-97.804 281.27-42.087 449.084-72.323 167.813-30.236 366.35-171.053 497.746-102.074 131.39 68.979-8.41 235.722-309.773 273.35-301.365 37.628-662.354-1.149-637.057-98.953z" opacity=".1"/>
    <g opacity=".5">
      <path fill="#CFF3FF" d="M326.908 163.672c-1.573 1.571-.962 7.152-.995 9.218-.05 3.215.15 6.402.418 9.606.181 2.146 1.196 22.618 4.022 21.046 1.593-.886.594-6.808.591-8.682-.006-4.164-.18-8.318-.457-12.474-.258-3.857-.42-7.67-.272-11.535.036-.943.919-11.412-3.307-7.179z"/>
      <path fill="#CFF3FF" d="M395.409 161.149c-13.513.107-27.021.774-40.528 1.182-6.499.197-12.995.447-19.487.807-2.213.123-6.958-.586-8.801.593-4.092 2.617 2.507 3.229 4.266 3.165 26.731-.969 53.47-2.246 80.223-2.306 13.124-.029 26.241.344 39.366.26 5.017-.031 10.573-2.193 11.84 3.647 1.43 6.589-.214 13.926-.661 20.548-.298 4.42-.192 8.749.007 13.166.128 2.829-.204 6.017.296 8.794.481 2.674 2.403 4.277 4.165 1.282 1.053-1.79.529-6.209.599-8.282.094-2.792.006-5.584.006-8.377-.001-6.817.961-13.607.834-20.422-.082-4.395-.315-12.362-5.858-13.418-6.104-1.163-13.607.006-19.854-.065-15.478-.177-30.93-.695-46.413-.574z"/>
      <path fill="#CFF3FF" d="M358.174 203.786c-5.096 0-10.192.031-15.287.115-4.37.072-11.24-.839-15.307.725-2.785 1.07-3.524 4.179 0 5.007 3.843.903 9.635-.574 13.657-.645 20.163-.356 40.521-.82 60.657.456 18.868 1.194 38.099 2.353 56.994 1.092 1.59-.106 9.698-.429 5.998-3.469-2.158-1.774-10.907-.607-13.712-.692-9.894-.298-19.798-.364-29.689-.739-9.762-.371-19.481-1.468-29.247-1.74-11.345-.316-22.715-.11-34.064-.11zm-5.099-28.982c7.942.347 15.8 11.865 7.764 17.431-7.539 5.224-21.667-.501-17.475-10.629-.603 1.464.762-1.591.779-1.611.797-.94 2.228-1.979 3.211-2.72 1.124-.847 2.295-1.78 3.651-2.204.89-.279.75.77 2.07-.267zm-3.868-4.154c-3.717 1.451-5.413 3.088-7.968 6.051-1.767 2.05-4.02 3.129-4.001 5.899.005.613.793 1.287.929 1.878.188.816-.03 1.862.119 2.729 1.538 8.949 12.215 11.967 20.031 10.277 6.808-1.472 11.9-8.007 10.323-15.114-1.588-7.154-12.196-14.551-19.433-11.72z"/>
      <path fill="#CFF3FF" d="M345.896 183.143c0 3.219 5.086 3.219 5.086 0 0-3.183-5.086-3.32-5.086 0zm6.363-.652c0 2.558 4.04 2.558 4.04 0 0-2.529-4.04-2.637-4.04 0zm1.251 5.276c-1.294.497-2.936-.534-3.998.145-1.881 1.205.005 2.294 1.013 2.778 4.54 2.179 5.348-3.829 2.985-2.923zm69.34-7.135c-.136.057-.617.261 0 0zm-19.772-2.89c-3.399.767-6.268 3.941-9.96 3.516-2.829-.325-4.745-3.056-7.538-3.452-3.573-.508-13.298 7.642-8.185 9.041 2.983.816 4.638-4.635 7.273-4.925 2.085-.229 4.92 2.328 7.08 2.692 4.03.679 6.798-1.541 10.335-2.973 3.845-1.555 6.032-.154 9.375 1.575 2.639 1.364 5.125 2.253 8.144 1.69 2.834-.528 6.395-3.443 9.247-3.144 2.794.293 4.788 3.209 7.662 3.48 1.185.111 2.949.515 2.75-1.313-.16-1.464-1.793-1.216-2.815-1.748-2.628-1.369-5.086-3.793-8.257-3.586-2.386.156-4.558 1.832-6.756 2.634-7.2 2.626-11.248-5.081-18.355-3.487z"/>
      <path fill="#ACDCF0" d="M409.092 224.111c-13.888.128-27.824.334-41.673 1.447-3.284.264-36.811 3.43-36.747 3.658.117.421 4.43 1.066 4.403 1.165-.291-.72-.955-1.019-1.993-.894 31.797 0 63.494-2.847 95.334-2.335 8 .128 16.03.075 24.024.327 1.996.063 6.942 1.493 8.509.592 4.114-2.365-3.36-2.638-4.597-2.738-15.669-1.253-31.547-1.379-47.26-1.222zm-82.536 6.748c-2.077 2.082-.165 9.571-.083 12.386.119 4.069.021 8.167.378 12.226.408 4.636 1.04 9.576 2.256 14.074.67 2.478 3.022 6.416 3.954 1.913.665-3.216-.345-7.482-.697-10.758-.47-4.383-.584-8.708-.601-13.113-.016-3.837-.09-7.691-.405-11.516-.163-1.987-1.162-8.833-4.802-5.212z"/>
      <path fill="#ACDCF0" d="M378.794 268.998c-9.856.169-19.733.402-29.572 1.017-4.033.253-8.063.629-12.08 1.055-.82.087-9.895.455-5.84 3.805 1.83 1.512 9.359-.579 11.846-.797 4.182-.367 8.363-.605 12.558-.782 9.718-.413 19.466-.777 29.194-.608 17.767.308 35.419.445 53.19.049 2.525-.056 22.306.472 22.978-2.154.541-2.117-6.533-1.146-7.823-1.108-4.731.142-9.463.109-14.196.085-20.052-.103-40.219-.901-60.255-.562z"/>
      <path fill="#ACDCF0" d="M457.719 227.347c.313 8.775 1.807 17.54 2.285 26.342.218 4.023.475 8.043.672 12.068.064 1.298-.46 4.427 1.076 5.174 2.106 1.024 2.39-1.04 2.784-2.436 1.139-4.033.368-9.272.265-13.414-.1-4.011-.107-8.03-.403-12.034-.303-4.09-1.127-8.104-1.509-12.18-.161-1.724.404-4.593-1.426-5.663-1.582-.925-3.813.241-3.744 2.143zm-96.874 14.597zm-8.376-2.6c3.123.892 5.688.56 8.672 2.833 2.473 1.886 5.01 4.644 5.83 7.692 1.896 7.042-4.53 10.902-10.553 10.978-6.17.077-15.303-1.354-14.987-9.262.243-6.076 4.679-12.005 11.038-12.241zm.22-3.98c-8.099.403-14.632 9.499-14.562 17.154.085 9.279 10.598 11.67 18.067 11.734 8.429.072 16.834-5.748 14.576-15.227-1.81-7.594-10.293-14.066-18.081-13.661z"/>
      <path fill="#ACDCF0" d="M344.542 247.822c0 2.588 4.088 2.588 4.088 0 0-2.558-4.088-2.667-4.088 0zm8.575-1.135c0 2.608 4.121 2.608 4.121 0 0-2.578-4.121-2.689-4.121 0zm-4.727 5.902c-2.661 2.656 6.686 7.313 8.891 3.617 1.811-3.035-2.132-2.028-3.529-2.193-1.519-.178-4.123-2.661-5.362-1.424zm74.734-5.849c-.256.108-.256.108 0 0zm-35.102-4.324c-2.694.505-11.536 3.488-11.655 6.684-.219 5.81 8.441-.141 10.321-.905 5.108-2.076 7.792 2.159 12.924 2.382 4.456.194 8.554-3.62 12.752-3.169 4.399.473 6.515 5.152 11.592 2.668 2.687-1.315 2.619-3.341-.397-3.532-1.822-.115-3.075.638-4.975-.146-2.972-1.226-4.169-3.222-7.725-2.905-2.684.24-5.109 1.752-7.729 2.337-5.998 1.341-9.325-4.498-15.108-3.414zm55.796 6.847c-.186.078-.186.078 0 0zm.679-2.419c.03.013.233.295 0 0zm-3.088-1.847c-.116.09-.116.09 0 0zm.067-.023c.599.359 5.414 3.651 1.917 4.427-1.776.393-3.245-3.179-1.917-4.427zm-1.594-3.647c-7.713 3.517.587 16.102 6.64 10.988 2.547-2.151 2.882-6.5.405-8.742-1.485-1.343-5.03-3.167-7.045-2.246z"/>
      <path fill="#CFF3FF" d="M367.477 290.921c-9.625.003-19.334-.199-28.946.371-1.617.096-7.779-.212-8.613 1.479-1.524 3.093 4.816 1.558 5.737 1.465 19.138-1.916 39.129-.813 58.33-.267 15.704.446 31.323.723 47.008 1.533 4.123.212 8.242.447 12.362.696 1.343.081 4.723.971 5.006-1.174.262-1.985-3.954-1.537-5.007-1.592-8.375-.441-16.744-.903-25.117-1.374-20.152-1.136-40.576-1.141-60.76-1.137z"/>
      <path fill="#CFF3FF" d="M329.609 294.36c-1.797 1.787-.955 8.611-1.005 10.866-.087 3.945-.274 7.887-.357 11.83-.087 4.122.034 8.263.277 12.379.103 1.728 1.521 10.08 3.754 5.3.998-2.136-.024-8.085-.009-10.505.028-4.404.265-8.79.484-13.189.189-3.781.196-7.566.361-11.348.052-1.206.195-9.044-3.505-5.333z"/>
      <path fill="#CFF3FF" d="M459.98 329.595c-9.367.96-18.884.507-28.286 1.216-8.103.611-16.199.861-24.323 1.033-18.396.388-36.824.767-55.167 2.3-4.18.349-8.356.72-12.547.907-2.096.093-10.893-.861-11.548 1.349-1.116 3.764 8.291 2.274 10.32 2.215 4.462-.128 8.903-.451 13.352-.79 18.704-1.425 37.478-1.851 56.222-2.443 10.193-.322 20.316-1.068 30.487-1.746 5.07-.338 10.153-.349 15.222-.677 1.327-.086 6.022.083 6.976-.984.655-.733.821-2.522-.708-2.38z"/>
      <path fill="#CFF3FF" d="M456.805 295c.321 8.983.829 17.958 1.132 26.94.091 2.701-.725 7.542.779 9.924 2.419 3.831 4.307-.223 4.75-2.61 1.398-7.533-.105-15.854-.496-23.434-.148-2.891.75-9.327-.648-11.915-1.331-2.465-5.636-2.218-5.517 1.095zm-15.725 12.794c3.588.972 4.112 8.773.063 9.351-6.027.859-3.391-7.743-.063-9.351zm-1.006-3.103c-1.094-.034-3.621-.336-4.296.555-.564.746.006 2.319-.06 3.029-.237 2.538-2.301 4.004-1.378 7.001.626 2.034 2.303 3.945 4.347 4.651 10.785 3.728 10.654-17.111 1.387-15.236zm-97.372 1.4a4.04 4.04 0 00-.08.103l.08-.103zm8.471-4.507l-.127-1.083c5.848 2.76 10.501 7.895 8.559 14.787-1.481 5.258-6.834 7.123-11.821 5.825-5.52-1.438-8.158-5.988-6.67-11.575.687-2.578 2.796-6.042 5.521-6.871 1.269-.386 4.075.598 4.538-1.083zm-3.42-2.183c-1.479.1-2.919.716-4.126 1.559a6.738 6.738 0 014.126-1.559zm.043-3.396c-3.654.112-6.049 2.324-8.216 4.98-.68.834-2.98 3.045-2.695 4.168.225.889.814 2.187 2.055 1.197-6.498 12.95 10.288 23.996 20.535 14.99 9.564-8.404.075-25.729-11.679-25.335z"/>
      <path fill="#CFF3FF" d="M344.476 308.034c0 1.725 2.677 1.725 2.677 0 0-1.724-2.677-1.724-2.677 0zm4.568.295c0 1.752 2.72 1.752 2.72 0 0-1.753-2.72-1.753-2.72 0zm2.073 6.155c-1.272.103-5.931-.329-6.748.785-1.367 1.863.814 1.928 1.885 2.129.965.181 5.159.079 5.75-.778.522-.757.4-2.246-.887-2.136zm56.124-4.831c-.219.09-.219.09 0 0zm-17.601-1.287c-2.868.211-5.296 1.86-8.038 2.518-2.926.703-4.193-.589-6.854-1.435-2.768-.88-4.737-.533-6.962 1.358-1.26 1.071-4.026 3.537-3.238 5.439 1.804 4.356 5.888-2.73 7.809-3.06 2.996-.514 5.662 2.106 9.118 1.356 3.131-.678 5.909-2.828 9.179-2.851 2.735-.02 5.312 1.477 8.012 1.839 4.122.553 6.828-.911 10.638-1.997 3.304-.942 5.62.3 8.728 1.345 1.42.477 6.159 2.213 5.287-.935-.247-.889-6.492-2.479-7.46-2.785-3.414-1.078-5.576-.658-8.829.582-2.712 1.035-4.994 1.539-7.902.969-3.204-.627-6.118-2.599-9.488-2.343z"/>
    </g>
    <g opacity=".5">
      <path fill="#ACDCF0" d="M521.575 164.012c.463-9.957 1.099-19.899 1.434-29.862.167-4.936.297-9.874.423-14.811.027-1.1.056-2.199.081-3.298.081-3.735-.362-4.041 3.397-4.373 16.769-1.48 33.605-1.97 50.394-3.31 20.249-1.615 40.603-2.73 60.909-3.23 9.023-.222 18.085-.683 27.11-.403 1.999.062 5.924-.458 6.712 1.096.34.672-.374 2.983-.464 3.757-.283 2.421-.547 4.85-.71 7.283-.96 14.347-.388 29.056 2.39 43.186-6.517-3.675-14.751-6.836-22.347-6.209-7.744.64-13.537 5.114-19.736 9.233-3.506 2.329-4.687 2.941-8.185.685-3.015-1.945-5.867-4.168-8.711-6.351-4.389-3.368-8.531-7.019-12.787-10.55-7.825-6.492-18.607-15.733-29.415-13.012-7.722 1.944-14.852 6.188-21.554 10.341-9.958 6.171-18.971 13.728-28.941 19.828zm134.204-63.708c-38.473 0-76.658 3.729-115.023 5.747-4.007.211-8 .521-11.992.906-2.661.257-9.168-.822-10.912 1.452-1.164 1.517-.164 1.745 0 3.186.206 1.816.084 3.968.031 5.891-.128 4.632-.263 9.264-.368 13.897-.397 17.51-.646 35.017.063 52.522.155 3.818 1.546 9.104.785 12.814-.551 2.686-2.393 4.32 1.855 4.816 4.18.489 9.291-.754 13.475-1.151 4.208-.401 8.415-.836 12.628-1.183 18.317-1.509 36.812-1.281 55.178-1.783 18.53-.506 37.068-.538 55.605-.549 7.756-.004 16.619.432 24.187-1.702 2.662-.752 3.093-1.122 2.436-3.763-.124-.502-.928-.687-1.164-1.593-.321-1.233-.156-2.732-.231-4.015-.245-4.192-.331-8.392-.528-12.586-.33-7.009-1.538-13.811-2.432-20.749-1.031-8.012-.978-16.148-.999-24.213-.012-4.473.103-8.932.462-13.393.231-2.861 1.64-7.133.925-9.801-.356-1.329-.938-2.382-2.321-2.954-.876-.362-1.613-.079-2.479-.171-1.027-.108-1.668-.253-2.898-.531-5.273-1.195-10.911-1.094-16.283-1.094z"/>
      <path fill="#CFF3FF" d="M634.487 119.352c-.003 2.789-.438 6.903.848 9.529 1.63 3.33 3.67 2.289 4.21-.84.31-1.794.302-7.1-.274-8.689-.815-2.248-4.784-3.779-4.784 0z"/>
      <path fill="#CFF3FF" d="M639.166 120.429c-2.618.092-10.242-.536-12.013 1.569-3.038 3.61 2.251 4.249 4.522 4.047 2.628-.234 10.748.337 12.508-1.77 2.944-3.525-2.959-3.921-5.017-3.846zm-101.583 93.15c11.508 1.999 7.928 19.546-2.961 15.482-3.795-1.417-9.385-5.508-7.288-10.33 1.566-3.602 6.672-5.495 10.249-5.152zm-4.765-5.455c-7.484 1.26-12.601 9.359-10.034 16.424 2.475 6.815 11.864 11.806 18.789 9.357 6.61-2.339 9.908-11.134 7.68-17.568-2.329-6.722-9.915-9.311-16.435-8.213zm69.998 7.508c-2.865.237-5.341 2.244-8.224 2.599-2.696.332-4.93-.591-7.454-1.328-3.051-.891-5.849-1.283-8.967-.491-2.382.605-4.732 2.226-7.207 2.422-4.87.384-10.53-5.172-14.332 1.112-1.823 3.013.824 4.954 3.55 3.549 2.842-1.465 1.447-1.989 4.973-1.124 2.941.721 5.319 1.113 8.265.102 2.669-.915 5.012-2.591 7.913-2.779 2.841-.184 5.312 1.11 8.027 1.668 3.339.687 6.293.167 9.457-.879 3.009-.996 4.21-1.54 7.247-.652 1.922.562 6.123 2.349 7.994.909 3.236-2.489-1.096-2.853-2.802-3.207-2.747-.569-5.589-2.135-8.44-1.901zm65.568-1.673l.068.053-.068-.053zm-2.813-.588c4.183.269 8.706 7.889 3.164 8.16-3.901.19-8.266-6.482-3.164-8.16zm-.587-6.235c-13.226 3.693-7.18 22.341 5.578 20.187 5.795-.979 7.759-7.692 5.843-12.662-.823-2.134-2.427-3.934-4.344-5.163-1.414-.906-5.46-2.812-7.077-2.362z"/>
      <path fill="#ACDCF0" d="M603.276 246.065c11.639-.399 23.279-.799 34.93-.907 6.314-.058 12.594.052 18.899.414 2.797.16 5.591.315 8.39.433.482.021 1.149-.012 1.885-.048 1.732-.085 3.847-.189 4.842.337 5.566 2.944-5.774 3.267-7.152 3.244-3.087-.052-6.171-.204-9.255-.357-2.695-.133-5.39-.266-8.088-.333-17.307-.425-34.719.353-52.056 1.127-3.974.177-7.944.355-11.908.517-4.209.173-8.416.285-12.623.397-6.015.159-12.029.319-18.043.657-2.296.129-4.592.266-6.889.402-3.289.196-6.578.392-9.869.565-2.576.136-5.153.268-7.732.333-.465.011-1.07.076-1.731.146-1.599.171-3.523.376-4.563-.049-1.25-.511-2.261-1.226-1.574-2.741.582-1.282 2.695-1.128 4.235-1.016.421.031.799.058 1.091.052 4.924-.095 9.837-.372 14.752-.672 1.798-.111 3.595-.224 5.392-.337h.001c9.357-.588 18.705-1.176 28.085-1.336 9.664-.165 19.322-.496 28.981-.828zm60.789 76.603l3.346-.04c1.728.15 2.501 1.964 1.392 3.358-.85 1.068-4.119 1.116-6.25 1.148-.591.008-1.094.016-1.434.043-5.563.447-11.115.648-16.695.702-11.75.112-23.456.615-35.187 1.284-12.008.685-24.026.942-36.045 1.2h-.001c-8.842.189-17.685.379-26.524.738-5.062.206-10.125.36-15.189.493-.544.014-1.268.092-2.087.18-3.199.346-7.847.848-8.9-1.693-.935-2.254.364-3.292 2.264-3.764-.3-1.335-.244-3.211-.212-4.286.009-.323.017-.574.012-.715a363.865 363.865 0 01-.115-4.044c-.038-1.527-.075-3.054-.134-4.581-.053-1.385-.103-2.772-.153-4.159-.196-5.473-.392-10.959-.813-16.409-.195-2.516-.503-5.002-.811-7.484-.491-3.963-.982-7.915-1.004-11.961-.004-.728-.041-1.638-.082-2.665-.21-5.252-.542-13.556 2.718-16.085 5.749-3.354 4.613 6.328 4.105 10.65-.083.713-.15 1.28-.166 1.619-.33 7.186.118 14.055.842 21.195.488 4.822.203 9.628-.083 14.442-.102 1.719-.204 3.44-.271 5.162-.033.852-.062 1.704-.092 2.556-.09 2.62-.181 5.239-.378 7.857-.022.283-.029.826-.038 1.52-.026 1.958-.067 5.115-.486 7.032.892-.039 1.758-.029 2.473-.021.456.005.85.009 1.152 0 1.372-.042 2.745-.082 4.118-.122 4.053-.119 8.107-.238 12.16-.39 9.568-.36 19.139-.48 28.71-.6 11.305-.142 22.609-.284 33.908-.821 18.622-.885 37.308-1.112 55.95-1.339zm3.454-70.248c-.01 12.309.942 24.28 2.054 36.54a697.512 697.512 0 011.678 22.797c.021.352.017.939.014 1.675v.001c-.023 4.204-.071 13.262 4.084 11.095 3.137-1.636 1.931-11.123 1.264-16.373-.146-1.151-.267-2.099-.31-2.715l-.271-3.938c-.418-6.094-.835-12.184-1.385-18.271l-.116-1.284c-.636-7.03-1.272-14.056-1.385-21.12-.009-.584.047-1.397.111-2.316.183-2.66.428-6.201-.677-7.613-1.554-1.987-5.058-1.4-5.061 1.522z"/>
      <path fill="#CFF3FF" d="M603.808 282.595c14.866-6.726 29.906-13.53 45.366-18.375 1.117-.35 1.824.802 1.57 1.769-.262.996-2.68 1.846-4.284 2.41-.48.169-.887.312-1.141.425-2.159.965-4.324 1.917-6.489 2.87-2.217.975-4.434 1.951-6.645 2.939-4.598 2.054-9.2 4.1-13.802 6.145-4.929 2.19-9.857 4.38-14.78 6.582l-.56.25a780.71 780.71 0 0119.977 7.425c2.265.874 4.522 1.768 6.779 2.661 1.277.505 2.553 1.01 3.832 1.512.416.163 1.141.385 2.012.651 2.838.866 7.228 2.207 7.553 3.561.528 2.206-5.534.072-7.82-.733a32.87 32.87 0 00-.687-.237c-3.375-1.079-6.709-2.28-10.041-3.481l-.461-.167c-2.642-.951-5.279-1.913-7.916-2.875-5.152-1.878-10.303-3.757-15.483-5.559a813.61 813.61 0 00-2.198-.762 2379.14 2379.14 0 00-24.876 11.332 860.729 860.729 0 00-13.241 6.284c-.96.465-2.148 1.183-3.44 1.964-3.094 1.87-6.778 4.097-9.312 4.041-1.359-.03-2.275-.321-2.417-1.968-.146-1.7 2.035-2.591 3.603-3.232.375-.154.715-.293.98-.425 4.7-2.351 9.429-4.642 14.172-6.904 9.42-4.493 18.928-8.807 28.47-13.035l.164-.073a1125.769 1125.769 0 00-15.916-5.25c-.531-.171-1.62-.472-3.051-.869-6.761-1.872-21.163-5.861-20.522-8.191.735-2.665 14.238 2.206 20.215 4.363 1.121.404 1.977.713 2.435.859a931.566 931.566 0 0121.364 7.068c2.193-.985 4.39-1.979 6.59-2.975zm-63.7 58.538c4.351.763 7.421 4.938 6.944 9.309-.646 5.907-6.533 8.614-11.972 7.844-6.171-.875-7.469-6.092-4.479-11.11.662-1.111 1.423-2.441 2.627-3.026.827-.402 1.881-.047 2.547-.371 2.336-1.136.931-2.948 4.333-2.646zm-1.982-3.858c-5.31.678-15.121 6.823-14.625 12.971.431.713 1.079 1.004 1.944.875a9.553 9.553 0 00.204 3.953c.504 1.692 1.511 3.079 2.859 4.18 2.777 2.27 6.573 2.827 10.031 2.429 6.457-.742 11.545-5.155 11.908-11.871.354-6.555-5.368-13.415-12.321-12.537zm25.72 8c-2.383 1.262-6.152 3.202-7.549 5.6-1.476 2.533.052 5.304 3.162 4.106 2.469-.951 4.039-3.973 6.673-4.942 2.324-.855 3.26-.419 5.717.432 2.531.877 4.743 1.725 7.479 1.509 3.439-.27 6.417-2.264 9.783-2.717 2.834-.382 5.171.72 7.885 1.159 3.149.509 5.208-.683 8.154-1.304 2.004-.422 5.536 1.296 6.998.653 3.286-1.445-.191-3.211-2.01-3.795-3.065-.983-4.951-.116-7.866.7-3.165.885-4.532.219-7.558-.594-6.121-1.644-10.85 2.333-16.652 1.61-5.371-.67-8.586-5.399-14.216-2.417zm100.089-2.939c5.892 5.524-.727 13.383-7.223 8.968-2.286-1.553-2.323-4.049-.544-6.282 1.628-2.042 5.203-2.838 7.767-2.686zm-2.184-4.464c-5.504 1.071-10.696 3.597-11.195 9.95-.486 6.198 5.872 9.077 11.213 8.671 11.992-.914 11.125-20.775-.018-18.621z"/>
    </g>
    <path fill="#CFF3FF" d="M898.075 91.818c-6.83.1-23.698 1.965-26.205 8.031-1.904 4.605 3.75 3.594 6.781 1.918 4.1-2.266 7.695-3.621 12.774-4.31 19.351-2.629 37.944 6.795 57.11 7.986 7.259.452 16.021.746 22.952-1.019 4.936-1.257 5.58-3.998-.053-4.415-4.786-.355-10.083.763-14.99.731-20.305-.13-38.354-9.208-58.369-8.922z" opacity=".5"/>
    <g opacity=".5">
      <path fill="#ACDCF0" d="M294.07 434.54c-4.066.024-16.319-1.865-18.003 2.1-2.245 5.288 6.513 4.054 8.868 3.993 5.35-.137 10.695-.152 16.046-.149 5.25.002 10.5-.032 15.749-.157 1.521-.036 5.061.595 5.936-1.236.665-1.392.139-2.49-1.087-3.227-2.951-1.773-10.616-.745-14.07-.904-4.473-.206-8.961-.42-13.439-.42zm49.467.979c-2.324.138-7.024-.82-9.106.244-2.366 1.209-1.532 3.101.51 3.933 1.415.576 7.218.274 8.596-.393 1.436-.696 3.06-3.972 0-3.784zm48.072-1.849c-5.092.087-10.526-.136-15.568.636-4.433.679-4.979 4.964-.207 5.466 4.386.461 9.703-.4 14.11-.683 1.565-.101 3.385.042 4.135-1.688.783-1.808-.714-3.542-2.47-3.731zm38.499.45c-2.718.068-10.657-1.101-12.003 2.004-2.242 5.168 8.506 3.205 10.568 3.129 2.599-.096 12.727 1.422 12.729-2.715.002-4.057-8.805-2.48-11.294-2.418z"/>
      <path fill="#CFF3FF" d="M405.408 457.693c-2.204.299-4.042 2.186-3.058 4.578 1.239 3.012 4.93 1.835 7.368 1.644 7.75-.607 15.842.606 23.499-.309 2.091-.25 5.124-1.389 3.247-4.199-1.411-2.111-6.553-1.741-8.739-1.943-7.475-.692-14.852-.507-22.317.229zm13.08 13.141c-3.005.202-10.002.043-11.269 3.463-2.272 6.135 6.627 3.973 9.337 3.624 3.147-.405 10.567.68 12.243-2.372 2.997-5.458-7.675-4.897-10.311-4.715zm-7.729 13.464c-1.426 1.426-1.428 3.973 0 5.4 1.748 1.746 5.558 1.384 7.855 1.511 3.204.179 12.407 1.874 13.998-1.899 2.147-5.091-6.187-4.984-8.928-5.273-3.168-.334-10.299-2.366-12.925.261z"/>
      <path fill="#ACDCF0" d="M329.509 379.362a485.71 485.71 0 00-25.252.937c-7.995.507-16.67.122-24.535 1.672-2.234.44-5.251 2.475-2.281 4.714 2.087 1.574 9.724-.236 12.216-.389 9.179-.565 18.363-1.24 27.555-1.565 8.702-.308 17.403-.416 26.11-.503 1.329-.013 3.535-.439 4.859-.053 1.902.554 1.451.705 1.593 3.119.258 4.374.187 8.764.1 13.142-.084 4.237-.241 8.473-.225 12.712.01 3.024-.956 9.033.561 11.66 2.184 3.78 4.45-.326 4.613-2.838.313-4.805.173-9.668.174-14.479.001-4.515.034-9.031-.125-13.544-.116-3.26.35-8.951-1.406-11.915-1.789-3.019-6.096-2.368-9.238-2.512-4.902-.225-9.813-.209-14.719-.158z"/>
      <path fill="#ACDCF0" d="M275.91 384.81c.009 8.485-.973 16.912-1.248 25.387-.126 3.896-.382 8.174.604 11.999.995 3.862 4.155 4.699 4.519.387.737-8.73.557-17.783 1.13-26.583.203-3.108 1.522-8.802.291-11.711-1.084-2.563-5.301-3.055-5.296.521z"/>
      <path fill="#ACDCF0" d="M354.906 422.208c-14.63 1.936-29.925 1.23-44.659 1.535-7.069.146-14.136.155-21.206.229-2.468.025-8.734-.913-10.869.474-3.397 2.208.289 3.912 2.539 3.961 13.952.305 28.06-.336 42.009-.794 6.267-.206 12.555-.306 18.806-.839 3.848-.328 8.053-.646 11.79-1.68.796-.22 2.53-.175 2.708-1.261.11-.671-.089-1.767-1.118-1.625zm-56.469-25.049c0 5.473 8.548 5.473 8.548 0 0-5.444-8.548-5.527-8.548 0zm16.214.062c0 6.257 9.736 6.244 9.736 0 0-6.235-9.736-6.299-9.736 0zm-9.809 8.319c-4.732 1.307-.372 5.318 1.825 6.234 3.493 1.456 8.26 2.53 11.753.346 1.39-.869 2.518-2.023 1.5-3.709-1.086-1.796-2.571-.997-4.224-.832-2.093.211-3.785.178-5.806-.493-1.509-.501-3.402-1.999-5.048-1.546zm64.171-19.897c-2.482.681-1.729 14.771-1.793 17.004-.175 6.12-.863 13.817 1.17 19.711 1.297 3.757 3.788 3.248 3.363-.708-.372-3.472-1.012-6.904-1.289-10.398-.625-7.907-1.477-16.341-.886-24.255.252.46 2.606 4.725 3.16 4.407-.167.099-2.715-6.027-3.725-5.761z"/>
      <path fill="#ACDCF0" d="M396.93 380.453c-5.023.075-10.045.164-15.066.303-3.993.111-10.266-.545-13.927 1.135-4.36 1.999-2.292 6.454 1.803 6.548 3.623.084 7.486-.733 11.141-.858 9.873-.338 19.764-.41 29.641-.495 8.934-.077 18.247.876 27.102-.466 1.313 11.663-2.239 23.375-1.031 35.172.187 1.831.103 4.418 2.435 4.835 2.943.527 3.064-2.388 3.175-4.475.319-5.959.146-11.923.583-17.89.404-5.53 1.2-11.181.527-16.72-.827-6.815-4.093-6.269-9.866-6.552-12.193-.598-24.31-.716-36.517-.537z"/>
      <path fill="#ACDCF0" d="M380.098 421.867c-2.56.064-6.81-.725-8.45 1.729-1.706 2.554.318 4.781 2.799 5.305 2.937.62 6.766-.23 9.814-.239 3.174-.01 6.349.026 9.523.038 13.608.053 27.274.259 40.873-.303 1.899-.079 7.289.558 8.603-1.263 1.167-1.616.351-3.065-1.186-3.888-2.52-1.351-7.696-.837-10.499-.944-3.462-.132-6.929-.175-10.392-.229-13.672-.211-27.415-.545-41.085-.206zm10.592-24.362c0 3.702 5.748 3.702 5.748 0s-5.748-3.702-5.748 0zm12.712.557c0 4.113 6.386 4.114 6.386 0 0-4.113-6.386-4.112-6.386 0zm-.473 8.926c-3.354.433-13.056 1.416-13.599 5.551-.837 6.379 9.793 1.216 12.219.715 3.091-.638 5.85-.471 8.935-.347 1.694.067 3.947.342 3.769-2.238-.291-4.237-8.392-4.057-11.324-3.681z"/>
      <path fill="#8BC0D8" d="M275.47 459.804c.007 9.403-.579 18.893.279 28.272.355 3.879.294 11.31 2.541 14.598 1.595 2.334 3.807 2.171 4.678-.632.582-1.874-.349-5.621-.453-7.626-.1-1.923-.217-3.846-.306-5.77-.229-4.958-.21-9.907-.142-14.867.058-4.255 1.082-9.884.117-13.975-.901-3.813-6.714-4.705-6.714 0z"/>
      <path fill="#8BC0D8" d="M369.967 451.532c-16.313.409-32.663.044-48.961.851-8.038.398-16.045 1.273-24.043 2.144-3.929.429-7.856.871-11.778 1.354-1.184.146-11.019.527-7.32 4.267 1.615 1.634 6.756-.072 8.79-.313 3.938-.465 7.884-.87 11.827-1.287 7.505-.794 15.018-1.546 22.555-1.963 17.749-.984 35.572-.689 53.339-1.344 4.806-.177 9.597-.304 14.405-.115 1.263.05 10.54.521 6.512-2.905-1.905-1.621-9.086-.785-11.466-.834-4.62-.095-9.242.029-13.86.145z"/>
      <path fill="#8BC0D8" d="M392.205 467.373c-.08-4.344-.161-8.688-.359-13.029-.208-4.571 6.019-5.263 7.865-1.563 1.33 2.664 1.096 7.196.895 11.081-.08 1.565-.156 3.026-.121 4.216.079 2.728.28 5.55.483 8.408.512 7.194 1.041 14.625-.304 21.416-.654 3.3-3.437 5.034-5.29 3.236l-.008.011c-.697 1.027-2.866 1.025-4.464 1.023-.44 0-.837-.001-1.147.02-4.377.298-8.673.8-13.012 1.45-8.644 1.296-17.213 2.092-25.95 2.308-5.929.147-11.866.196-17.804.245-11.372.095-22.749.189-34.085.967-3.822.263-7.585.713-11.344 1.432-.32.061-.676.14-1.054.224-2.795.622-6.842 1.522-7.118-2.384-.329-4.637 9.719-5.244 14.89-5.556.79-.048 1.466-.089 1.973-.136 15.701-1.46 31.648-1.234 47.415-1.01a1725.965 1725.965 0 015.981.089c6.751.111 13.494.222 20.242-.19 3.071-.188 6.183-.285 9.3-.381 4.973-.154 9.96-.309 14.824-.836-.734-2.844-.862-6.2-.983-9.363a112.34 112.34 0 00-.173-3.566c-.427-6.029-.54-12.07-.652-18.112zm-73.613-1.558c-2.431.648-5.612 4.851-3.939 7.424 2.743 4.219 3.952-2.259 5.1-2.882 2.089-1.135 3.784 3.011 5.967.836 3.445-3.431-4.96-5.959-7.128-5.378z"/>
      <path fill="#8BC0D8" d="M346.45 462.696c-2.883.026-8.97 4.109-9.401 7.122-.256 1.792.931 3.512 2.862 3.536 2.629.032 3.464-3.386 5.743-4.101 2.458-.771 2.093 1.005 4.216 1.925 1.554.674 3.497.392 4.036-1.518 1.019-3.603-4.493-7.021-7.456-6.964zm-22.07 17.258c-4.612 2.702 2.976 8.495 5.607 9.22 3.971 1.093 11.964-.948 12.905-5.799.375-1.931-.833-3.68-2.964-3.334-1.754.285-2.879 2.485-4.504 3.274-2.194 1.063-4.144.991-6.008-.61-1.518-1.305-2.331-4.329-5.036-2.751z"/>
      <path fill="#CFF3FF" d="M327.722 519.885c-4.12.879-8.309.289-12.449 1.116-4.222.842-6.745 2.437-10.667.83l-.553-.233c-3.036-1.308-6.218-1.695-9.395.389-1.881 1.233-7.59 5.499-6.902 8.102 1.491 5.643 7.915-3.206 9.553-4.068 3.124-1.645 5.265.456 8.481 1.049 3.852.71 6.951-1.325 10.58-2.136 4.243-.948 9.017-1.278 13.335-1.786 1.705-.2 8.166 1.149 8.749-.974 1.002-3.646-9.112-2.632-10.732-2.289zm29.727 11.365c.27.204.054.04 0 0zm11.54-11.585c3.528-.358 14.813-2.878 17.131.767 1.509 2.374-.886 11.137-3.171 12.27-1.827.905-6.08-.096-8.084-.167-3.729-.131-7.465-.189-11.19-.422-1.249-.078-5.268.152-6.247-.954-1.156-1.305-1.105-8.264-1.377-9.99 3.243 1.05 9.547-1.16 12.938-1.504zm7.532-3.574c-4.517.196-9.034.536-13.518 1.141-2.499.338-5.032 1.236-7.34 1.662-.744.137-1.952-.244-2.864.197-2.667 1.288-.332 9.998.311 12.324.988 3.575 3.473 4.154 6.956 4.49 4.587.445 9.268.305 13.87.249 4.435-.055 10.416.928 12.905-3.522 1.609-2.878 3.334-9.579 1.959-12.786-1.809-4.22-8.564-3.911-12.279-3.755z"/>
      <path fill="#ACDCF0" d="M427.111 533.644c-.242.31-.242.31 0 0zm.99-1.194c-.075.114-.422.48 0 0zm-10.774-.327c1.992-.375 3.984-.746 5.977-1.11-1.887 2.643-3.876 1.551-7.101 1.321l1.124-.211zm-9.501-.936l1.515-.506a2.06 2.06 0 00.247 1.079c-.864-.093-1.727-.194-2.59-.3l.828-.273zm-4.402-3.251c-.028-.693 1.014-.217 1.612-.264-1.152 1.014-1.69 1.103-1.612.264zm15.745-7.864c.152-.194.353-.184.603.029-.273.092-1.323.537-.603-.029zm10.211-1.201c.027 0 .594.765 0 0zm-.286-.251c.148.114.148.114 0 0zm-1.275-.148c2.088.352 1.929 2.802 0 0zm-24.528-.168c-.424.353-.279.011 0 0zm7.984-5.216c-3.545.206-10.051-.001-13.011 1.887-3.863 2.465-1.83 10.951-1.485 14.671.511 5.498 3.098 7.064 8.277 7.641 6.18.689 12.529.817 18.741.654 5.594-.147 8.78-2.071 9.805-7.961.314-1.802 1.11-4.59 1.085-6.317-.017-1.197-.614-1.743-.84-2.761-1.284-5.797-3.433-6.484-9.374-6.737-4.373-.186-8.907-1.302-13.198-1.077z"/>
    </g>
    <g opacity=".5">
      <path fill="#ACDCF0" d="M599.032 379.913c9.012.192 19.236 5.18 17.811 15.746-1.044 7.74-7.745 14.024-15.507 14.565-8.342.582-17.162-5.82-18.295-14.314-1.275-9.553 7.179-16.188 15.991-15.997zm-4.419-4.301c-3.654.545-7.145 2.464-10.362 4.182-1.228.657-7.453 4.658-2.57 5.652-11.765 18.973 15.922 36.597 31.489 24.266 6.991-5.538 10.671-16.037 6.152-24.255-4.673-8.5-15.756-11.19-24.709-9.845z"/>
      <path fill="#ACDCF0" d="M592.459 391.762c0 3.544 5.5 3.544 5.5 0s-5.5-3.544-5.5 0zm10.198.567c0 3.842 5.964 3.842 5.964 0 0-3.841-5.964-3.841-5.964 0zm-6.882 7.598c-.803 2.915 8.348 4.41 8.653 1.037.145-1.612-8.095-3.07-8.653-1.037zm26.824-1.801c10.53-1.263 21.386-.68 31.966-.377 2.648.077 5.295.151 7.944.195 1.683.028 5.319.836 6.789.048 6.017-3.226-5.787-4.787-7.458-4.935-10.524-.866-26.765-1.175-37.32-.766-3.122.121-3.797 6.06-1.921 5.835z"/>
      <path fill="#CFF3FF" d="M669.98 450.469c.09-11.032.486-22.139 1.334-33.138.345-4.484.76-8.961 1.103-13.445.162-2.111.912-5.069-.329-6.922-1.279-1.909-4.085-2.306-5.776-.614-2.024 2.62-1.436 7.017-1.688 10.187-.387 4.873-.854 9.743-1.087 14.627-.449 9.452-.554 19.07.206 28.509.359 4.454 1.136 8.8 2.171 13.144.471 1.978 4.218 10.786 3.431 12.001-1.221 1.884-10.246 1.172-12.204 1.224-5.024.135-10.049.223-15.074.319-4.302.082-8.604.141-12.907.179-1.708.015-11.746-.289-9.519 2.244-24.9 1.735-50.275-1.162-75.023-2.155-1.25-.051-3.295-.406-5.183-.508-.226-.911-.412-1.726-.458-2.293-.325-3.977-.41-7.968-.763-11.944-.645-7.275-1.896-14.477-2.64-21.74-.743-7.255-.668-14.532-1.101-21.805-.074-1.246-.249-11.454-2.825-13.934 1.221.462 3.191.523 4.325.431 9.18-.74 18.293-2.336 27.395-3.705 2.604-.391 8.513-.114 10.673-1.415 1.869-1.127 2.609-5.078-.643-4.758-9.076.972-18.102 2.481-27.106 3.966-2.409.397-4.811.822-7.213 1.256-1.604.29-5.838.268-7.082 1.235-1.511 1.174-1.671 1.973-1.159 2.504-.712-.196-1.565.112-2.59 1.137-1.938 2.522-.116 8.733.115 11.69.277 3.547.414 7.099.575 10.653a176.715 176.715 0 002.138 20.451c1.24 7.61 2.295 15.252 3.538 22.86a52.703 52.703 0 001.284 5.827c-3.349 1.712-1.072 4.436 1.583 4.919l.058.01c.828 2.019 1.986 3.889 2.89 1.184.069-.208.102-.463.11-.75 6.859.776 14.399.294 21.152.57 14.628.598 29.346 1.495 43.989 1.04 5.797-.18 11.611-.695 17.359-1.468 3.368-.453 6.749-.994 10.063-1.745.237-.054.598-.11 1.015-.179l.201-.004a575.958 575.958 0 0015.215-.424c4.256-.177 8.531-.268 12.773-.669 2.635-.249 8.204-.203 9.821-2.853 1.471-2.409-.988-8.616-1.337-11.322-.614-4.766-.849-9.576-.81-14.377z"/>
      <path fill="#ACDCF0" d="M618.556 418.614c-4.055.347-7.804 2.251-11.896 2.275-3.435.019-6.816-1.007-10.27-.855-4.051.176-6.28 2.796-9.828 3.673-2.825.697-4.605-1.466-7.09-2.422-3.137-1.208-5.455-.584-8.144 1.243-1.976 1.342-6.584 4.355-6.548 7.071.106 8.226 9.703-3.137 11.637-3.275 2.571-.183 5.443 2.747 8.178 2.914 3.616.221 5.934-2.11 9.264-2.959 3.367-.859 7.007.193 10.383.52 3.851.372 7.222-.486 10.948-1.405 3.611-.891 6.688-.844 10.357-.096 2.476.505 8.646 3.441 9.729-.334 1.475-5.141-13.886-6.591-16.72-6.35zm1.234 15.688c-8.308.807-16.667 1.514-25.013 1.74-3.615.099-17.511-1.451-16.279 3.143 1.057 3.938 19.967 1.458 23.819 1.158 4.252-.33 8.498-.792 12.729-1.327 1.499-.19 5.12.006 6.179-1.251 1.008-1.2.511-3.657-1.435-3.463zm-57.315 20.919c-.189.08-.189.08 0 0zm1.753-.024c2.071-.065 1.627-1.157 3.693-.588.953.262 1.051-.127 1.79.784 1.441 1.777.084 5.646-1.337 7.078-5.261 5.302-11.575-7.038-4.146-7.274zm0-5.202c-14.403.484-8.377 22.733 4.159 18.191 5.177-1.875 8.431-10.325 5.386-15.074-1.481-2.31-3.37-2.721-5.852-2.881-.576-.037-1.301.8-1.66.762-.855-.09-.775-1.045-2.033-.998zm34.443 5.988c-.257-.079 4.547 1.318 4.022.771 1.122 1.167-.387 3.926-1.656 4.407-3.073 1.167-4.797-3.612-2.366-5.178zm2.132-6.033c-4.51.639-7.99 2.517-8.607 7.532-.569 4.629 2.559 9.317 7.492 9.407 10.754.197 11.081-18.329 1.115-16.939zm49.09 6.236c.63 8.22-7.894.696 0 0zm-3.658-8.794c-.746 1.274-.11 2.626 1.015 3.367-10.054 2.125-7.777 17.255 2.454 15.019 5.203-1.137 6.159-6.607 5.384-11.125-.369-2.148-5.722-12.615-8.853-7.261z"/>
    </g>
    <path fill="#CFF3FF" d="M708.627 468.345c-4.65.621-15.641 4.476-15.545 8.617.148 6.463 9.49-.597 11.568-1.546 11.163-5.101 25.622 1.509 37.245 2.915 5.33.645 15.755 1.836 20.462-.846 8.371-4.768-10.989-3.574-13.454-3.766-13.402-1.039-26.735-7.19-40.276-5.374z" opacity=".5"/>
    <g opacity=".5">
      <path fill="#8BC0D8" d="M811.586 416.268c-.003 5.678-.29 11.474.757 17.084.317 1.699.567 4.952 2.358 5.833 1.8.885 3.545-.109 3.992-1.954.522-2.146-.622-5.359-.738-7.612-.159-3.079-.17-6.161-.171-9.243-.001-2.226.731-5.807-1.897-6.952-1.953-.852-4.301.732-4.301 2.844z"/>
      <path fill="#8BC0D8" d="M901.353 407.287c-18.812 1.889-37.896 2.281-56.777 3.266-8.727.455-19.275-.126-27.497 3.252-1.527.628-6.995 4.12-2.556 5.542 1.384.443 2.79-1.048 3.926-1.547 1.892-.831 4.083-1.088 6.101-1.413 17.156-2.755 35.101-2.275 52.434-3.563 4.441-.33 8.885-.669 13.317-1.105 3.166-.312 9.821-2.594 12.743-1.427 4.994 1.995 4.877 14.955 4.975 19.412.052 2.305-2.186 10.579 2.262 9.74 3.559-.671 2.271-9.267 1.993-11.618-.728-6.164-1.969-21.446-10.921-20.539z"/>
      <path fill="#8BC0D8" d="M908.291 439.146c-16.341 1.475-33.058.027-49.467.608-8.6.304-17.192.789-25.794 1.073-3.72.123-7.444.128-11.166.155-1.78.012-9.881 1.091-4.87 4.62 2.219 1.563 9.291.304 11.837.274 3.825-.045 7.647-.204 11.469-.354 8.852-.346 17.699-.826 26.556-1.065 8.472-.23 16.949-.279 25.421-.508 4.215-.115 8.488-.244 12.666-.859.943-.139 4.005-.25 4.66-1.301.619-.994.184-2.788-1.312-2.643zm-80.312-12.269c-.088.208-.088.208 0 0zm7.076-2.151c.258.109.258.109 0 0zm-.331-.06c3.813 3.887-2.051 8.527-5.623 4.734-3.792-4.027 3.168-4.721 5.623-4.734zm-4.045-5.88c-13.135 2.337-8.485 19.843 3.784 17.313 5.386-1.11 8.466-6.536 6.612-11.748-.724-2.037-2.303-4.272-4.501-4.913-1.096-.32-2.066.183-3.11.065-.996-.112-1.549-.94-2.785-.717zm50.271 4.927c-7.92.025-15.843.361-23.763.512-2.429.045-8.673-1.042-8.682 2.788-.011 4.092 6.944 2.581 9.258 2.526 7.856-.188 15.732-.532 23.556-1.28 1.977-.189 8.819.137 8.812-2.551-.008-2.848-7.585-1.995-9.181-1.995z"/>
      <path fill="#ACDCF0" d="M899.869 450.421c-19.59.526-39.151.709-58.725 1.712-7.322.375-14.634.654-21.966.654-1.412 0-4.256-.547-5.585.342-3.607 2.412.5 4.483 2.851 4.613 16.081.892 32.394-1.329 48.465-1.83 9.409-.293 18.819-.38 28.222-.859 2.565-.13 5.131-.282 7.692-.481 1.473-.114 5.368.199 6.558-.663 5.198-3.762-5.76-3.535-7.512-3.488z"/>
      <path fill="#ACDCF0" d="M809.986 460c-.184 5.079-.203 10.07.461 15.121.261 1.987.382 4.243 2.711 4.748 2.116.458 3.189-1.142 3.627-2.916 1.07-4.333.129-10.569.116-15.071-.005-2.225-.008-4.716-2.758-5.219-2.098-.384-4.077 1.132-4.157 3.337z"/>
      <path fill="#ACDCF0" d="M920.634 472.245c-31.712 1.671-63.382 3.13-95.116 4.471-2.475.105-21.701-.104-14.98 6.6 2.076 2.071 7.425.668 10.11.537 4.034-.198 8.071-.35 12.106-.555 15.996-.815 32.035-1.034 48.019-1.948a445.14 445.14 0 0026.324-2.314c4.162-.487 9.329-.437 13.227-2.068 2.006-.839 4.17-4.928.31-4.723z"/>
      <path fill="#ACDCF0" d="M902.4 446.48c-2.412 2.401-1.172 7.14-.99 10.109.25 4.085.554 8.173 1.064 12.236.332 2.639.156 6.746 1.564 9.026 1.649 2.67 5.279 2.374 6.77-.205 1.319-2.281.651-7.08.617-9.608-.047-3.496-.265-6.997-.472-10.486-.174-2.915.487-7.588-1.117-10.083-1.63-2.536-5.176-3.237-7.436-.989zm-72.483 18.639c-.283.218-.283.218 0 0zm5.632-.706c5.256 1.057-3.242 7.193-5.928 2.982-.419-.658-.638-1.467.036-2.039.614-.522 1 .402 1.581.154 1-.428 3.244-1.137 4.311-1.097zm-.725-5.038c-3.588.284-8.521.506-10.297 4.103-2.386 4.831 1.694 9.562 6.415 10.297 4.543.708 11.325-1.808 11.689-7.106.293-4.272-3.77-7.621-7.807-7.294zm29.957 2.555c-3.714.06-11.016-1.038-14.252.772-3.202 1.792-1.774 4.982 1.147 5.745 1.931.504 5.087-.309 7.097-.391 2.645-.108 5.291-.131 7.938-.168 4.45-.059 8.898-.009 13.349-.009 4.545 0 9.169.124 13.706-.21 5.742-.422 5.587-4.722-.028-5.259-9.538-.913-19.387-.63-28.957-.48zm-9.488 48.15c0 2.042 1.812 0 1.799 0 .013 0-1.799-2.043-1.799 0zm-40.996-16.443c.117 5.937.194 11.88.447 17.813.081 1.876-.457 5.539 1.817 6.495 2.531 1.065 3.318-1.589 3.61-3.387.923-5.696.018-12.2-.071-17.964-.03-1.935.389-4.629-1.809-5.594-1.793-.788-4.03.674-3.994 2.637z"/>
      <path fill="#ACDCF0" d="M911.935 493.73c.15.354.15.354 0 0zm.212-.06c.122.05.613.257 0 0zm-47.964-4.799c-9.114.143-18.235.251-27.344.641-3.887.167-7.82.301-11.694.668-2.744.26-9.56.367-11.34 2.61-3.673 4.629 4.115 3.366 5.793 2.99 3.053-.684 6.169-.903 9.288-1.068 6.767-.357 13.537-.548 20.313-.684 18.375-.37 36.763-.314 55.141-.396 1.779-.008 4.995-.724 6.638-.004 1.647.721 1.554 2.495 1.725 4.554.227 2.74-1.58 7.961-.203 10.266 2.136 3.575 5.242.539 5.717-2.067.656-3.601-.384-7.925-1.402-11.368-1.436-4.856-3.43-5.049-8.127-5.429a230.822 230.822 0 00-16.464-.763c-9.345-.086-18.696-.095-28.041.05zm36.051 24.543c-19.77 2.296-40.102.943-59.977 1.024-4.833.02-9.67.059-14.499.293-2.55.123-8.595-.58-10.342 1.388-3.683 4.147 2.951 4.75 5.373 4.579 4.897-.349 9.805-.507 14.715-.545 17.292-.134 34.683.673 51.961-.18 7.239-.358 14.316-1.596 21.421-2.98 1.574-.306 12.349-2.355 6.205-4.81-3.631-1.451-11.043.786-14.857 1.231z"/>
      <path fill="#ACDCF0" d="M842.512 505.822c-.137.177-.137.177 0 0zm-.132-.031c-.047.127-.192.441 0 0zm-1.247-1.608c.029.037.146.188 0 0zm-.048-.012c.476.568.796 1.202.961 1.901-4.096 1.11-5.674-2.204-.961-1.901zm-.259-.155c.001.001.577.243 0 0zm-6.729-4.937c-2.651 3.301-4.839 7.148-1.534 10.919 2.955 3.372 8.9 3.807 12.651 1.556 3.863-2.319 3.53-7.202.835-10.389-1.736-2.052-3.142-1.995-5.66-2.33-1.714-.228-4.838-1.561-6.292.244zm27.403 6.11c0 4.396 18.981 2.504 22.358 2.499 2.829-.004 19.933 1.556 18.705-2.968-1.009-3.717-17.856-1.869-21.444-1.875-3.101-.004-19.619-2.133-19.619 2.344z"/>
    </g>
    <g fill="#ACDCF0" opacity=".5">
      <path d="M613.7 546.376c9.506 1.38 19.394 5.851 19.311 16.916-.07 9.303-7.873 19.204-17.892 18.648-9.017-.499-17.507-10.36-18.636-18.81-.585-4.378.51-9.091 3.085-12.693 3.374-4.718 8.728-4.711 14.132-4.061zm-4.491-6.014c-6.875.037-11.905 2.524-16.16 7.774-1.526 1.882-3.301 3.908-4.463 6.041-1.085 1.992-.895 7.057 2.829 4.682-.917 9.806 4.814 19.323 13.052 24.348 8.955 5.462 19.077 4.397 26.53-3.259 6.822-7.008 9.223-18.845 4.232-27.512-4.988-8.662-16.546-12.167-26.02-12.074z"/>
      <path d="M629.826 537.734c-4.402 3.226-8.421 7.474-11.759 11.783-3.263 4.211-5.42 9.47-9.34 13.143-1.979-2.156-4.298-7.979-8.247-5.669-3.277 1.917-1.167 5.214.429 7.378 4.121 5.589 8.697 7.839 13.982 2.316 4.8-5.015 7.526-11.705 12.014-17.008 1.968-2.328 5.01-4.637 6.577-7.207 1.421-2.328-.336-7.176-3.656-4.736z"/>
    </g>
    <g opacity=".5">
      <path fill="#ACDCF0" d="M796.175 187.878c.007.44.013.853.023 1.234.205 8.304.086 17.034-.589 25.319-.233 2.861-2.314 6.486-4.688 2.543-1.043-1.734-.897-5.294-.79-7.913a48.62 48.62 0 00.055-1.851c-.002-2.922.151-5.874.305-8.835.301-5.787.604-11.605-.253-17.289l-.049-.332c-.372-2.499-.398-2.672-3.147-2.615-1.146.024-2.291.055-3.437.086-1.127.03-2.254.061-3.381.084-1.12.024-2.239.045-3.358.067-3.51.067-7.02.135-10.528.263-.586.022-1.679.159-3.057.332-2.757.345-6.657.835-9.939.832l.003.042c.002.026.004.051.004.077.037 1.812-.43 3.834-.898 5.866-.393 1.702-.787 3.411-.888 5.007-.241 3.799-.244 7.638-.246 11.478-.004 4.675-.007 9.35-.44 13.952a18.363 18.363 0 00-.052.798c.149-.023.293-.039.432-.048 2.366-.15 4.751-.163 7.133-.177 1.314-.007 2.626-.014 3.934-.045 2.347-.054 4.724-.051 7.11-.049 5.267.006 10.581.012 15.733-.595 1.522-.197 2.054 1.754 1.371 2.766-.611.906-2.293 1.053-3.526 1.16-.313.028-.597.052-.827.086-3.323.492-6.69.664-10.043.813-3.521.156-7.045.272-10.569.37-.839.024-1.958.137-3.199.262-3.276.331-7.402.748-9.449-.178-2.201-.996-2.149-2.101-1.251-2.957-.394-.867-.456-2.132-.505-3.122a14.357 14.357 0 00-.067-.976c-.488-3.941-.783-7.832-.79-11.807-.013-7.786.002-15.873 2.156-23.41-.862-.378-1.383-.935-1.381-1.737.01-4.044 12.596-3.838 18.578-3.74 1.07.017 1.928.031 2.466.017 4.358-.114 8.717-.129 13.076-.105.921.005 1.946-.056 3.008-.118 2.259-.133 4.686-.275 6.637.178 5.126 1.19 5.249 9.354 5.323 14.267zm32.06-13.381c4.759-.252 9.521-.309 14.286-.327 5.045-.025 10.098.065 15.141.22l.116.004c2.235.067 14.654.44 8.949 3.535a6.102 6.102 0 01-1.117.457c.242 1.433.271 2.912.232 3.625-.147 2.703-.244 5.41-.341 8.116-.066 1.834-.132 3.668-.213 5.501-.225 5.064-.439 10.129-.613 15.196-.022.622.011 1.435.048 2.342.121 2.997.284 7.014-1.344 8.499-1.429 1.303-2.405 1.042-3.063.156-4.088 1.188-12.483.802-16.705.608-1.017-.047-1.792-.083-2.206-.083-.74.001-2.115.093-3.852.21-7.229.485-20.723 1.392-20.751-2.172a1.48 1.48 0 01.318-.926c-.573-.584-1.088-1.442-1.419-2.513-1.188-3.844-1.3-7.991-1.388-11.977-.124-5.628-.126-11.263-.127-16.896a1568.28 1568.28 0 00-.019-8.678c-.773-1.038-.314-2.225.65-3.053 2.053-1.762 7.149-1.783 10.835-1.799.992-.004 1.882-.008 2.583-.045zm-7.744 43.398c4.587-.979 12.316-.664 16.457-.495 1.084.044 1.923.078 2.394.076 4.229-.016 8.46.043 12.685.212.438.017 1.087.001 1.85-.019 1.535-.038 3.535-.089 5.234.1a12.62 12.62 0 01-.047-.623c-.191-3.762-.053-7.556.083-11.329.03-.802.059-1.603.084-2.402.091-2.821.212-5.641.332-8.46v-.002c.076-1.775.152-3.55.22-5.325.03-.779-.015-1.838-.065-3.028-.102-2.422-.228-5.392.206-7.674-1.565-.029-3.168-.14-4.638-.242-1.417-.098-2.711-.187-3.728-.188-1.29 0-2.579-.004-3.869-.008-3.573-.011-7.146-.022-10.72.049l-1.017.02c-4.92.095-9.882.191-14.761.839-.286.038-.629.111-1.009.2.534 2.236.272 5.387.043 8.146-.112 1.34-.215 2.588-.217 3.594-.007 6.256.159 12.487.324 18.712v.001c.062 2.355.124 4.708.177 7.062.007.281 0 .542-.018.784z"/>
      <path fill="#CFF3FF" d="M768.284 221.123c-3.127 1.827-1.441 9.136-.357 11.663 1.781 4.157 5.395 7.409 9.295 9.566 7.882 4.36 19.244 3.202 25.205 10.762.062.078 2.122 2.118 2.591-.524.386-2.168-3.461-5.479-4.952-6.565-4.239-3.091-9.675-4.087-14.578-5.631-5.229-1.646-10.967-4.681-13.16-10.072-.776-1.909.704-11.985-4.044-9.199zm71.496 3.514c-2.866.79-.971 4.734-.976 6.708-.005 2.464-.793 5.042-2.311 7.008-3.85 4.985-11.389 5.732-17.041 7.162-4.104 1.038-13.923 3.265-14.307 8.816-.429 6.198 8.24-1.345 8.972-1.654 8.102-2.972 18.584-3.546 24.838-10.088 2.582-2.701 4.107-6.305 4.35-10.025.136-2.095.16-8.934-3.525-7.927z"/>
      <path fill="#ACDCF0" d="M780.561 279.616c-.067-11.468 10.908-18.405 20.832-21.015 11.929-3.142 23.041 5.216 24.447 17.239 1.484 12.689-8.08 22.904-20.691 23.464-11.095.492-24.517-7.451-24.588-19.688zm26.646-15.501c.645.877 1.228 2.277-.072 3.039-1.251.729-1.875-.147-2.504-1.029-.397-.557-.796-1.116-1.355-1.274-1.45-.408-3.78 1.117-4.988 2.006-.49.361-1.188 1.138-2.004 2.047-2.596 2.891-6.387 7.113-8.482 3.48-8.356 14.429 12.476 25.228 24.322 19.767 13.01-5.997 10.478-27.922-4.917-28.036z"/>
      <path fill="#ACDCF0" d="M796.289 275.777c0 2.632 4.157 2.632 4.157 0 0-2.603-4.157-2.714-4.157 0zm7.314-.494c0 3.224 5.094 3.224 5.094 0 0-3.188-5.094-3.324-5.094 0zm-5.234 7.513c-4.166 2.451 7.748 7.32 8.218 2.344.203-2.147-1.876-1.568-3.262-1.725-1.326-.152-3.698-1.351-4.956-.619z"/>
      <path fill="#CFF3FF" d="M796.562 300.181c.181 6.259.094 12.515 1.281 18.686.226 1.172.382 5.424 1.309 6.295 2.279 2.142 2.316-1.963 2.405-3.537.316-5.635-.276-11.446-.406-17.093-.029-1.216.293-3.733-.28-4.91-.911-1.867-4.398-2.422-4.309.559zm-4.456-5.075c-9.133 10.251-21.71 9.496-34.38 10.394-6.694.474-13.463 1.448-18.85 5.778-2.506 2.015-4.666 4.538-6.118 7.413-.634 1.257-3.644 8.51.876 6.79 1.603-.611 3.182-5.407 4.218-6.826 1.975-2.702 4.502-4.933 7.533-6.383 5.847-2.797 12.829-2.749 19.169-3.104 6.627-.371 13.74-.718 19.832-3.6 2.866-1.355 5.554-3.046 7.861-5.225.824-.779 2.591-2.102 2.722-3.293.151-1.361-1.157-3.853-2.863-1.944zm81.601 22.257c.349.448.349.448 0 0zm-54.234-26.476c-4.868 2.861 4.141 11.256 6.436 12.554 5.164 2.922 12.261 3.363 18.027 4.184 7.298 1.041 15.24 1.424 22.254 3.815 2.988 1.019 4.887 2.609 6.844 5.053.991 1.239 3.379 6.576 5.553 5.312 4.377-2.544-7.418-13.222-10.017-14.37-5.908-2.61-12.892-3.341-19.21-4.354-5.874-.943-11.874-1.644-17.603-3.306-3.15-.913-5.389-2.387-7.205-5.208-1.132-1.758-2.06-5.446-5.079-3.68z"/>
      <path fill="#ACDCF0" d="M746 326.569c-8.579.287-17.147.634-25.715 1.177-1.755.111-7.609-.244-6.118 3.354 1.195 2.883 8.334.976 10.695.836 8.927-.53 17.891-.714 26.8-1.517 2.001-.18 11.047-.109 7.312-3.655-1.777-1.688-10.519-.278-12.974-.195z"/>
      <path fill="#ACDCF0" d="M708.72 330.707c-2.705 3.552-1.462 12.184-1.258 16.454.198 4.137-.606 11.702 4.795 12.344-1.715-.225 1.302.104 1.793.13 1.097.059 2.198.078 3.296.09 2.537.028 5.075-.006 7.611-.057 5.745-.114 11.505-.282 17.243-.599 2.412-.134 15.496-.022 16.014-2.528.662-3.201-11.883-1.39-14.129-1.288-5.469.251-10.947.304-16.421.375-2.713.036-5.429.063-8.142.01-1.121-.022-5.557.438-6.238-.31-.581-.636-.128-6.486-.14-7.38-.04-2.918-.037-5.841.067-8.757.07-1.963 1.131-5.698.267-7.542-.842-1.793-3.293-2.405-4.758-.942z"/>
      <path fill="#ACDCF0" d="M752.895 330.873c.157 6.498.205 13.126 1.74 19.481.511 2.114 1.226 6.475 3.351 7.57 2.23 1.149 4.155-.491 4.3-2.701.184-2.777-1.303-6.424-1.608-9.274-.357-3.325-.564-6.653-.686-9.995-.092-2.513.672-6.281-1.724-7.901-2.152-1.456-5.443.01-5.373 2.82zm17.073-1.586c-2.668 2.658-1.476 11.073-1.142 14.488.244 2.501 2.982 14.806 7.084 8.389 1.815-2.838-.491-10.343-.474-13.653.01-2.108.757-4.773.396-6.798-.476-2.676-3.444-4.843-5.864-2.426z"/>
      <path fill="#ACDCF0" d="M788.443 327.093c8.014-.827 16.038-1.447 24.096-1.524.387-.003.794-.008 1.217-.013 5.523-.07 13.823-.176 17.54 3.972 2.025 2.259 2.942 5.752 3.742 8.797.149.567.294 1.12.441 1.646.126.449.29.961.467 1.515.835 2.614 1.964 6.151.819 8.34-.628 1.201-1.639 2.225-3.174 1.8a2.914 2.914 0 01-.86-.377c.588.636.849 1.543.467 2.429-.738 1.714-3.07 1.751-4.907 1.779a18.91 18.91 0 00-1.219.044c-6.119.51-12.266.85-18.406.904a523.47 523.47 0 01-8.772-.022c-3.009-.025-6.019-.05-9.028-.02-2.185.021-4.409.229-6.635.437-2.809.262-5.62.524-8.353.412-2.044-.084-4.227-.753-3.709-3.395.423-2.157 2.453-2.345 4.272-2.514.158-.014.315-.029.469-.045 5.792-.589 11.588-.798 17.41-.777 12.231.042 24.453-.021 36.683-.085.503.042.976.234 1.366.526-.44-.534-.432-1.246-.422-2.003a8.932 8.932 0 00-.029-1.045c-.075-.703-.144-1.403-.212-2.102-.226-2.309-.45-4.601-.891-6.923-.066-.351-.13-.737-.198-1.145-.401-2.411-.931-5.606-2.848-6.908-1.928-1.309-5.708-1.246-8.654-1.197-.795.013-1.53.025-2.151.009-7.861-.203-15.767.356-23.593 1.067-.601.055-1.203.107-1.806.16-2.977.259-5.97.52-8.904 1.052-.537.098-1.357.384-2.298.713-2.503.873-5.86 2.044-7.001.754-3.778-4.273 12.826-6.028 15.081-6.261zm105.648-3.412c-5.612.125-11.213.557-16.813.988-3.142.242-6.283.484-9.425.672-.983.059-1.967.112-2.951.165-2.769.149-5.541.298-8.296.577-.418.042-.903.082-1.432.125-2.34.192-5.53.454-7.569 1.308-1.869-1.414-4.754-.212-4.799 2.308-.077 4.59-.034 9.099.525 13.661.13 1.059.8 6.42 2.255 9.211-.518 2.636 1.729 3.374 3.82 3.576 8.1.782 16.593.175 24.972-.423 4.261-.305 8.493-.607 12.628-.724 1.375-.039 2.768-.054 4.169-.07 4.572-.051 9.232-.103 13.658-.968.178-.035.369-.069.569-.105 1.75-.313 4.163-.746 4.347-2.672.11-1.156-.542-2.214-1.633-2.363.075-.963-.046-2.014-.135-2.786-.021-.18-.04-.345-.054-.49-.266-2.678-.933-5.339-1.592-7.966-.148-.591-.295-1.18-.438-1.766-.158-.65-.304-1.424-.462-2.257-.556-2.942-1.255-6.64-3.115-8.357-1.951-1.8-5.126-1.721-7.67-1.657-.19.005-.377.01-.559.013zm9.875 25.554c-.665-1.742-.86-4.097-1.045-6.336-.116-1.405-.229-2.765-.451-3.897-.167-.851-.304-1.747-.444-2.658-.338-2.213-.689-4.512-1.519-6.451-1.113-2.597-2.103-2.498-4.445-2.263a44.22 44.22 0 01-1.456.129c-2.387.162-4.772.368-7.156.575-1.144.099-2.288.198-3.432.292-4.896.402-9.795.712-14.694 1.021-2.862.181-5.725.362-8.587.561-2.246.156-4.439.583-6.622 1.008-1.729.337-3.453.673-5.193.872a41.96 41.96 0 01-.123 1.761c-.065.775-.125 1.497-.112 2.088.057 2.622.288 5.227.52 7.837l.106 1.204c.042.481.146 1.099.261 1.785.177 1.061.382 2.283.428 3.408h.629c.269.001.531.002.784-.002a884.413 884.413 0 0018.497-.532l2.361-.091c5.5-.214 11.001-.429 16.505-.492 2.187-.025 4.403.044 6.625.113 2.859.088 5.729.177 8.563.068z"/>
    </g>
    <path fill="#D4A181" d="M453.181 462.584c7.274 4.387 14.421 6.507 17.776 5.642 8.413-2.17 9.187-32.969 2.677-45.111-6.509-12.141-39.974-17.434-41.66 6.623-.586 8.35 2.918 15.801 8.094 21.881l-9.281 43.29h26.96l-4.566-32.325z"/>
    <path fill="#915B3C" d="M437.996 457.034c-3.383-15.064-13.023-25.333-11.551-32.066 1.472-6.733 7.848-8.374 7.848-8.374s3.297-13.349 21.269-11.356c17.973 1.993 28.942 9.462 24.205 25.897-4.355 0-9.611-1.576-16.88 1.124-3.46 1.285-4.949 7.97-4.949 7.97h-3.285s-4.782-7.933-9.431-5.83c-4.648 2.102-2.113 10.215-2.113 10.215l-1.618 12.42h-3.495z"/>
    <path fill="#DDEABE" d="M428.54 784.932c47.771 0 86.497-36.991 86.497-82.623 0-45.631-38.726-82.623-86.497-82.623s-86.497 36.992-86.497 82.623c0 45.632 38.726 82.623 86.497 82.623z"/>
    <path fill="#D4A181" d="M563.015 697.903c4.179 14.645 14.587 42.403 28.98 74.281l13.677-3.993c-11.965-73.354-21.923-121.918-27.627-136.699-3.769-9.766-32.281-8.622-29.001 11.028 1.375 8.241 6.818 30.306 13.971 55.383zM506.8 645.947c-22.305 4.624-68.55 20.971-81.755 26.195-8.3 3.282-2.949 14.416 4.131 13.442 1.199-.165 5.441-.64 11.77-1.349 20.33-2.276 62.197-6.963 93.95-11.536 16.719-2.408 7.725-33.748-9.635-30.431-5.84 1.116-12.052 2.35-18.461 3.679z"/>
    <path fill="#00465D" d="M578.919 623.214c-2.28-7.447-105.937-33.879-105.937-33.879h-8.495v7.921l71.429 36.388a14.598 14.598 0 00.194 3.724c-.516 26.975 11.021 47.127 22.444 67.079 7.469 13.047 14.89 26.009 18.859 40.738l26.243-3.918c-.765-1.957-1.973-10.778-3.626-22.839-4.168-30.412-11.157-81.421-20.963-94.916l-.105-.141a2.29 2.29 0 00-.043-.157z"/>
    <path fill="#005972" d="M470.421 655.254c-6.535-1.309-12.554-2.478-17.704-3.382-33.266-5.839-42.966-23.658-37.231-62.537h61.292c10.012 2.878 62.044 24.714 89.041 36.327 17.868 7.687 12.235 35.397 2.116 42.608-.054.443-.237.743-.561.878-38.363 15.911-71.077 14.724-92.084 13.961-8.799-.319-15.544-.564-19.79.553l-6.653-21.002 21.574-7.406z"/>
    <path fill="#BDBDBD" d="M432.043 670.783c-.039-1.171-1.026-2.105-2.19-1.986-2.382.244-6.109.746-7.888 1.614-2.731 1.333-7.527 4.801-7.527 4.801l27.775 56.986s8.421-1.361 6.673-6.432c-1.747-5.071-2.819-8.467-2.819-8.467l-1.114-32.373a1 1 0 00-1.061-.964l-5.084.32s-4.225-3.422-5.575-6.192c-.856-1.756-1.115-5.098-1.19-7.307zm156.271 94.126c-1.069-.478-2.343-.001-2.746 1.099-.825 2.25-2.008 5.821-2.008 7.802 0 3.04 1.012 8.874 1.012 8.874h63.358s2.47-8.171-2.851-8.822c-5.321-.651-8.84-1.176-8.84-1.176l-29.564-13.189a1 1 0 00-1.332.532l-1.941 4.712s-4.926 2.3-8.006 2.3c-1.952 0-5.064-1.231-7.082-2.132z"/>
    <path fill="#D4A181" d="M559.61 600.166l-35.832-26.331-7.922 19.594 35.484 14.725c10.035 11.796 15.647 16.714 16.835 14.753 1.001-1.654.218-3.202-.503-4.628-.562-1.11-1.086-2.147-.7-3.102.882-2.18 7.623-1.95 14.01-1.459 6.388.492 4.527-2.353 2.986-3.757-6.52-3.906-14.64-7.171-24.358-9.795zm-187.913 46.396c3.292-6.683 14.502-71.818 14.502-71.818l23.475.092s-21.742 70.236-23.475 74.533c-2.251 5.583 1.573 13.694 4.166 19.194.401.851.773 1.639 1.088 2.346-3.598 1.611-5.326-.336-7.148-2.389-2.058-2.319-4.236-4.772-9.362-2.386-1.98.922-3.854 2.012-5.685 3.077-6.324 3.679-12.134 7.059-20.038 2.178-1.253-.773-2.626-3.686.692-5.963 8.265-5.671 20.176-15.597 21.785-18.864z"/>
    <path fill="#649700" d="M452.911 476.172l9.713-1.667c36.041 31.155 50.844 91.009 95.02 122.715l-10.633 13.19c-76.638-9.496-95.633-82.503-94.1-134.238z"/>
    <path fill="#E0E0E0" d="M410.567 598.328h85.948c3.927 0 3.187-5.675 2.619-8.539-6.552-33.049-32.13-68.675-32.13-115.721l-24.791-3.89c-20.506 33.002-27.597 73.635-31.646 128.15z"/>
    <path fill="#89BA17" d="M400.902 621.934c-3.862 9.284-7.65 17.385-11.219 23.607H371.25c-1.983-64.166 22.293-113.54 42.61-143.311-4.511-.323-8.583-2.212-11.157-6.859-9.061-16.362-5.789-25.37 3.895-28.331 5.325-1.629 10.333-.517 16.328.813 4.906 1.089 10.472 2.324 17.413 2.325h.007c.673 0 1.285.045 1.841.131l8.226.47s33.401 113.279 18.424 151.155h-67.935z"/>
    <path fill="#000" fill-opacity=".1" d="M400.902 621.934c5.069-12.181 10.266-26.398 15.267-41.081 1.862 16.17 4.962 32.41 10.124 41.081h-25.391z"/>
    <path fill="#D4A181" d="M735.823 341.474c-7.285 4.382-14.443 6.499-17.803 5.635-8.426-2.168-9.2-32.926-2.681-45.052 6.519-12.126 40.033-17.411 41.722 6.614.586 8.338-2.922 15.78-8.106 21.852l9.295 43.234h-27l4.573-32.283z"/>
    <path fill="#212121" d="M726.004 288.85c3.689-1.123 9.045-1.504 11.298-1.246-1.282-3.064-1.791-6.478-1.376-9.802.403-3.23 1.849-5.98 3.187-8.862.616-1.328 1.315-2.65 2.357-3.666 1.061-1.035 2.404-1.718 3.813-2.044 1.442-.334 2.949-.306 4.393-.003.638.134 1.211.425 1.838.587.641.166.952-.234 1.418-.637 1.122-.97 2.767-1.449 4.186-1.62 1.593-.193 3.245.047 4.764.57 1.479.508 2.899 1.334 3.968 2.537.476.536.908 1.145 1.188 1.818.116.277.135.44.411.541.255.094.554.097.818.186 2.549.862 4.728 2.827 5.915 5.351.692 1.472 1.02 4.064.93 6.969-.09 2.906-2.718 10.486-5.177 13.251-2.195 2.469-5.421 4.097-8.534 4.81 2.067 2.357 3.442 5.303 4.459 8.298a40.507 40.507 0 012.041 10.08c.24 3.273.263 6.734-.506 9.937-.72 2.996-2.258 5.453-4.826 7.012-1.176.714-2.442 1.251-3.715 1.741-1.254.483-2.512.953-3.826 1.224-2.487.513-5.353.425-7.269-1.551-.69-.712-1.449-1.607-1.953-2.477-.181-.312-.29-.517-.07-.823.263-.366.69-.647 1.028-.933 1.931-1.634 3.127-3.815 3.428-6.406.306-2.63-.402-6.024-2.964-7.172-3.162-1.416-6.645.21-9.456 1.725-1.195-4.207-3.648-7.996-7.493-9.926-4.255-2.135-9.137-2.385-13.509-4.216-1.139-.478-2.3-1.02-3.139-1.992-.35-.407-.761-.934-.901-1.472-.184-.706.272-1.298.625-1.849 1.869-2.919 8.959-8.817 12.649-9.94z"/>
    <path fill="#D4A181" d="M776.213 468.559l-41.148 141.776-19.355 106.448h-19.425l19.391-248.224h60.537z"/>
    <path fill="#D4A181" d="M794.706 468.559c-2.871 73.652-1.739 113.824-1.096 120.515.642 6.692 4.29 51.508 29.15 129.955h-20.204c-32.923-75.257-44.416-120.072-48.192-129.955-3.776-9.882-14.928-50.053-31.21-120.515h71.552z"/>
    <path fill="#67A4BF" d="M777.097 468.559c-10.704 48.786-29.216 126.66-55.537 233.622h-28.413c-2.098-109.787 6.829-182.045 22.289-233.622h61.661z"/>
    <path fill="#8BC0D8" d="M794.849 468.559c-2.812 73.652 4.476 146.213 27.05 234.769h-30.315c-32.983-74.134-56.623-146.336-72.779-234.769h76.044z"/>
    <path fill="#003145" d="M825.64 733.63l-1.037-16.721c-.04-.64-.663-1.078-1.289-.94-9.748 2.149-23.315-2.556-23.315-2.556-13.708 9.709-33.555 14.089-40.144 15.334a2.054 2.054 0 00-1.601 2.571l1.612 5.682h63.544l2.23-3.37zm-105.593 0l-1.038-16.721c-.039-.64-.662-1.078-1.288-.94-9.748 2.149-23.315-2.556-23.315-2.556-13.708 9.709-33.556 14.089-40.145 15.334a2.054 2.054 0 00-1.6 2.571l1.611 5.682h63.545l2.23-3.37z"/>
    <path fill="#D4A181" d="M621.054 356.634l44.005 6.705-8.261 19.403-35.543-14.643c-15.454 1.24-22.908.75-22.361-1.47.462-1.873 2.112-2.412 3.631-2.909 1.184-.387 2.289-.748 2.692-1.694.919-2.159-4.016-6.751-8.886-10.91-4.87-4.158-1.539-4.851.545-4.755 7.381 1.845 15.44 5.269 24.178 10.273zm26.305 111.322l31.876-30.979 10.58 18.243-33.143 19.471c-8.313 13.042-13.194 18.677-14.645 16.906-1.223-1.493-.662-3.13-.145-4.638.403-1.175.779-2.271.263-3.16-1.177-2.03-7.83-.865-14.097.508-6.267 1.374-4.816-1.693-3.484-3.294 5.924-4.762 13.522-9.115 22.795-13.057z"/>
    <path fill="#AE3C50" d="M724.573 359.231c-14.29 38.659-38.393 70.137-74.928 104.471l17.791 15.098c42.935-23.121 65.417-36.591 72.374-72.197 1.746-8.937-.021-36.396-.268-50.94l-14.969 3.568z"/>
    <path fill="#E0E0E0" d="M795.538 471.401l-85.782 12.031s16.676-92.637 12.66-125.726c-.137-1.125 1.665-3.393 2.621-3.263 10.492 1.424 21.299-5.152 21.299-5.152 24.925 29.728 37.606 68.855 49.202 122.11z"/>
    <path fill="#D34757" d="M731.819 402.015c-5.335 59.127 1.882 105.904 31.461 101.756l45.739-6.415c.415-49.65-28.173-114.402-50.663-145.93-.859-1.204-2.643-3.45-6.032-2.975l-13.291 1.864-.01.055c-3.995.594-8.378 1.357-13.126 2.184-24.44 4.255-58.519 10.189-98.78 3.272l-1.358 23.247c37.911 17.401 75.552 29.72 106.06 22.942z"/>
    <path fill="#F2C57C" d="M962.125 319.312c11.874 0 21.5 9.626 21.5 21.5v28.85c0 11.874-9.626 21.5-21.5 21.5h-.005l-.002.025h-32.625c-5.039-4.913-.329-35.629 3.507-50.336v-.039c0-11.874 9.626-21.5 21.5-21.5h7.625z"/>
    <path fill="#D4A181" d="M957.823 373.474c-7.285 4.382-14.443 6.499-17.803 5.635-8.426-2.168-9.2-32.926-2.681-45.052 6.519-12.126 40.033-17.411 41.722 6.614.586 8.338-2.922 15.78-8.106 21.852l9.295 43.234h-27l4.573-32.283z"/>
    <path fill="#F2C57C" d="M982.634 340.811c-.784-.773-1.543-1.522-2.295-2.192l.036-.872s-8.474-17.312-21.502-17.312c-13.015 0-17.132 6.038-20.631 11.171l-.009.014c1.83 6.267 7.346 8.802 13.584 11.67 2.686 1.234 5.505 2.53 8.222 4.211a6.174 6.174 0 013.899-1.38c3.417 0 6.187 2.765 6.187 6.175 0 3.41-2.77 6.175-6.187 6.175-.095 0-.188-.002-.282-.007-1.244 13.335-.745 28.564 2.962 32.179h32.625c.937-16.239-3.273-20.871-7.574-25.604-4.047-4.454-8.176-8.998-8.176-23.383-.29-.283-.576-.566-.859-.845z"/>
    <path fill="#00465D" d="M998.213 500.559l-54.011 142.899-37.859 105.325h-21.586l52.04-248.224h61.416z"/>
    <path fill="#005972" d="M1011.56 500.559c.59 49.032.16 115.045 1.53 118.101 1.37 3.057 85.1 69.647 85.1 69.647l-11.13 18.918s-99.402-64.096-104.485-72.636c-5.082-8.539-30.614-87.122-43.898-134.03h72.883z"/>
    <path fill="#003145" d="M1117.77 701.038l-18.8-14.301-15.16 18.068c-1.75 20.432-13.53 45.83-13.53 45.83l3.44 2.888 27.44-32.696 7.66-12.629 1.72 1.444 7.23-8.604zM908.347 769l-1.124-23.587h-23.59c-16.778 11.794-43.81 19.094-43.81 19.094V769h42.687l14.603-2.246V769h11.234z"/>
    <path fill="#D4A181" d="M1090.47 524.049c-5.01-5.498-38.15-66.791-38.15-66.791l-19.33 5.622s41.44 64.209 44.29 67.851c3.71 4.73 2.26 13.555 1.28 19.539-.15.926-.29 1.783-.4 2.547 3.91.554 5.03-1.788 6.22-4.256 1.34-2.789 2.76-5.739 8.36-4.863 2.16.339 4.26.867 6.32 1.384 7.1 1.785 13.62 3.424 19.89-3.428.99-1.086 1.51-4.255-2.31-5.524-9.52-3.16-23.72-9.393-26.17-12.081zm-218.335-.027l29.63-33.117 11.832 17.462-31.7 21.727c-7.38 13.587-11.855 19.547-13.426 17.881-1.325-1.404-.88-3.076-.469-4.616.319-1.2.617-2.32.041-3.17-1.317-1.944-7.873-.32-14.028 1.486-6.156 1.806-4.923-1.354-3.706-3.044 5.576-5.162 12.851-10.032 21.826-14.609z"/>
    <path fill="#E0E0E0" d="M958.56 388.696l-12.794-2.313c-10.773 43.598-29.884 87-66.462 126.526l12.694 16.13c33.319-26.407 65.37-47.785 74.818-81.723 3.17-11.39-6.067-45.839-8.256-58.62z"/>
    <path fill="#424242" d="M1016.91 498.962s-51.752 12.917-82.7 11.599c-2.557-.109-3.535-4.209-2.777-7.192 11.809-46.444 18.751-86.497 14.455-117.003 5.303 1.792 17.44-1.686 17.44-1.686 26.613 28.326 41.892 62.967 53.582 114.282z"/>
    <path fill="#EEE" d="M969.315 381.154a39.507 39.507 0 00-.956-.453l.113.571-9.245 1.296c-.081 2.787.659 12.971 1.738 27.82 3.922 53.959 12.323 169.526 2.055 215.644l113.42-15.907c-9.41-49.474-36.24-106.455-62.46-154.355 16.06 11.99 35.82 33.095 54.61 70.203l20.48-8.411c-34.74-89.894-104.919-128.925-118.432-135.752l-.475-.775-.848.119z"/>
    <path fill="#915B3C" d="M200.177 360.474c7.285 4.382 14.443 6.499 17.803 5.635 8.426-2.168 9.2-32.926 2.681-45.052-6.519-12.126-40.033-17.411-41.722 6.614-.586 8.338 2.922 15.78 8.106 21.852l-9.295 43.234h27l-4.573-32.283z"/>
    <path fill="#212121" d="M201.527 330.324c2.336-3.47 4.578-6.117 7.494-7.654 11.87.187 13.26-1.936 13.26-9.093-1.917-1.369-8.682-3.675-16.257-4.323-3.865-1.104-8.443-.896-12.853.945-5.444 1.541-10.054 4.861-12.09 11.076-7.367 12.687-1.776 25.893 5.759 30.405a101.69 101.69 0 005.318-6.87 6.71 6.71 0 01-2.033-4.818c0-3.72 3.022-6.736 6.75-6.736.274 0 .544.016.81.048.168 4.651.858 20.387 2.671 25.853 2.138 6.444 14.613 8.027 18.964 8.027 3.758 0 3.63-3.552 3.538-6.097a29.908 29.908 0 01-.025-1.023c0-.65-.848-.648-1.805-.647-1.244.003-2.672.006-2.672-1.418 0-1.551 2.148-2.742 4.071-3.807 1.2-.664 2.312-1.28 2.759-1.904 1.41-1.97 1.885-4.627-.243-4.627-1.163 0-2.758.669-4.678 1.474-2.898 1.215-6.535 2.74-10.536 2.74-6.61 0-8.182-21.284-8.202-21.551z"/>
    <path fill="#00465D" d="M159.787 487.559l40.726 142.899 29.714 105.325H251.9l-31.576-248.224h-60.537z"/>
    <path fill="#005972" d="M148.895 487.559c-.942 73.652-4.154 113.824-5.143 120.515-.989 6.692-15.944 49.261-44.865 127.709h22.451c36.819-75.257 57.372-117.826 61.66-127.709 4.287-9.882 17.519-50.053 37.449-120.515h-71.552z"/>
    <path fill="#003145" d="M96.88 756l1.123-23.587h23.59c16.779 11.794 43.81 19.094 43.81 19.094V756h-42.686l-14.604-2.246V756H96.88zm130.307 0l1.123-23.587h23.59c16.779 11.794 43.81 19.094 43.81 19.094V756h-42.687l-14.603-2.246V756h-11.233z"/>
    <path fill="#915B3C" d="M287.501 514.144l-27.24-35.095-13.026 16.597 30.102 23.876c6.411 14.066 10.458 20.323 12.142 18.771 1.42-1.309 1.092-3.008.791-4.573-.234-1.219-.453-2.357.181-3.165 1.45-1.847 7.876.228 13.89 2.458 6.015 2.229 5.006-1.009 3.911-2.779-5.201-5.537-12.118-10.901-20.751-16.09zM95.208 532.612c4.193-6.14 24.367-68.883 24.367-68.883l23.268 3.356s-31.327 66.314-33.643 70.316c-3.009 5.198-.345 13.737 1.462 19.528.28.895.539 1.725.753 2.467-3.792 1.09-5.235-1.073-6.757-3.353-1.718-2.575-3.537-5.3-8.952-3.657-2.092.635-4.102 1.45-6.066 2.247-6.784 2.752-13.016 5.28-20.175-.637-1.135-.938-2.092-4.005 1.514-5.791 8.986-4.449 22.178-12.591 24.228-15.593z"/>
    <path fill="#005972" d="M199.44 375.696l9.865-.295c10.773 43.598 34.448 85.16 71.026 124.686l-36.552 33.414c-34.559-53.822-53.052-106.944-44.339-157.805z"/>
    <path fill="#E0E0E0" d="M140.462 490.401l85.782 12.031s-19.642-76.384-12.534-126.852l-25.335-7.47c-24.925 29.728-36.317 69.036-47.913 122.291z"/>
    <path fill="#287C9A" d="M96.313 521.554c24.229-104.115 91.493-153.524 91.493-153.524l.018.021.013-.016 1.689.236c3.017.53 9.183 1.67 9.183 1.67l3.745 18.677c-3.592 32.692-6.891 132.83-6.891 132.83l-56.149-7.875a267.12 267.12 0 00-1.29 13.845l-41.811-5.864z"/>
    <path fill="#000" fill-opacity=".1" d="M139.362 514.012c2.326-19.761 6.685-38.01 11.969-54.337-1.267 20.075-1.434 44.422 3.674 56.531l-15.643-2.194z"/>
    <path fill="#fff" fill-opacity=".2" d="M156.631 481.352l29.536-8.952-1.808 12.841-27.728-3.889z"/>
  </g>
  <defs>
    <clipPath id="clip0">
      <path fill="#fff" d="M0 0h1200v800H0z"/>
    </clipPath>
  </defs>
</svg>
