<svg xmlns="http://www.w3.org/2000/svg" width="1200" height="800" fill="none">
  <g clip-path="url(#clip0)">
    <path fill="#ACDCF0" fill-rule="evenodd" d="M920.225 219.334c-.533-.388-1.799-.525-2.387-.642-2.448-.482-4.969-.692-7.464-.692-7.693.012-15.511.767-23.076 2.074-4.804.829-10.611 3.622-15.389 2.105-8.324-2.642-16.737-2.512-24.635 1.26-7.221 3.449-12.702 10-15.901 17.078-.483 1.069-2.441 5.002-2.995 7.653a30.662 30.662 0 00-.67 1.641 82.997 82.997 0 00-1.59 4.777c-.208.684-.729 2.194-.11 2.486a45.5 45.5 0 00-2.597 5.652c-2.125 5.652-4.449 11.852-5.196 17.842a27.931 27.931 0 00-.03 6.671c.127 1.099.075 3.307.819 4.143 1.581 1.772 2.392-.709 2.214-1.891-1.36-9.006 1.267-17.464 4.38-25.93 2.014-5.474 5.322-10.483 9.028-15.018 2.999-3.672 6.216-6.563 10.327-8.997 5.028-2.977 10.403-5.383 15.728-7.797 3.503-1.588 7.01-3.134 10.61-4.502.801-.305 2.06-1.086 2.948-1.089 1.877-.006 4.538 1.379 6.351 1.894 5.964 1.696 12.004 3.867 18.168 4.733 3.954.556 7.658-.07 11.355-1.387.378-.134 1.012-.48 1.788-.974 2.745-1.056 5.342-2.385 7.603-4.303 1.302-1.104 2.485-2.532 3.563-3.839.322-.39.465-.838.47-1.264.244-.127.406-.277.443-.451.269-1.286-2.184-1.309-3.755-1.233z" clip-rule="evenodd"/>
    <path fill="#E0E0E0" fill-rule="evenodd" d="M295.273 326.541a112.87 112.87 0 00-4.433 3.769c-1.101.991-3.049 2.175-3.444 3.675-.411 1.559.886 3.018 1.91 3.96 5.417 4.984 11.517 8.353 19.023 8.914 11.558.863 21.617-2.089 31.645-7.896 7.044-4.08 11.71-10.114 12.729-18.262 8.389 3.486 16.502 8.292 23.397 14.19 3.402 2.91 6.332 6.134 9.042 9.708 1.736 2.29 3.415 4.616 4.973 7.032.677 1.049 1.366 2.911 2.484 3.515 1.313.71 2.9-.403 2.835-1.862-.055-1.215-1.366-2.624-1.98-3.617a133.146 133.146 0 00-3.141-4.891c-1.762-2.597-3.583-5.156-5.569-7.586-4.464-5.46-10.143-9.969-16.03-13.815-11.294-7.378-23.689-12.026-37.431-12.42-8.45-.242-15.558 2.645-22.784 6.956-4.499 2.684-9.143 5.324-13.226 8.63z" clip-rule="evenodd"/>
    <path fill="#CFF3FF" fill-rule="evenodd" d="M404.883 290.856c-8.806-9.069-17.642-18.024-27.48-26.009-5.798-4.706-11.908-8.984-17.892-13.446a57.62 57.62 0 012.028 1.865c-1.868-1.268-4.313-1.985-6.293-3.159-2.209-1.309-4.321-2.806-6.392-4.316-4.043-2.946-8.025-5.948-12.181-8.74-4.63-3.111-9.428-5.985-14.137-8.979-3.997-2.54-8.042-5.321-12.318-7.398-2.33-1.132-4.665-2.473-7.005-3.654-.783-.395-8.729-5.412-8.709-5.427.439-.331 4.438 1.547 5.056 1.8 1.806.738 3.534 1.62 5.27 2.5-.953-1.88-1.707-3.855-2.118-5.935-.127-.641-1.143-5.314-.623-5.706.259-.195 2.794 8.164 2.924 8.967.106.653.09 1.593.304 2.212.345.998.328.696 1.088 1.259 1.393 1.031 3.242 1.675 4.749 2.537.814.453 3.331 2.253 4.847 2.766 4.587 2.228 9.237 5.656 13.596 8.502a32.002 32.002 0 01-2.649-6.754c-.151-.559-1.781-5.576-1.385-5.874.445-.335 3.549 7.328 3.733 8.053.341 1.348.412 2.847.84 4.159.469 1.439 1.934 1.949 3.254 2.788 4.857 3.086 9.548 6.365 14.16 9.795 5.033-8.951-.77-19.759-5.66-27.269-3.526-5.413-8.271-10.053-13.282-14.104-6.688-5.407-14.339-9.726-21.981-13.677-8.904-4.603-18.528-7.456-28.534-8.773-5.233-.69-10.586-.67-15.872-.449-2.582.108-5.061.45-7.535 1.292a24.57 24.57 0 00-3.244 1.395c-.798.407-2.729.837-3.187 1.444-3.778 4.917-5.71 9.816-5.415 15.994.279 5.848 2.126 11.699 4.632 16.916 2.792 5.809 6.382 11.081 11.078 15.505 3.582 3.376 7.587 6.314 11.566 9.214 14.151 10.313 32.092 19.283 50.42 16.978 5.933-.745 11.576-2.82 16.849-5.64 1.243-.664 2.478-1.336 3.651-2.12.791-.529 2.905-2.912 3.7-2.998 1.091-.119 3.439 2.099 4.462 2.774 7.774 5.131 15.344 10.541 22.755 16.169 7.886 5.988 15.384 12.384 22.662 19.08 3.095 2.849 6.171 5.703 9.176 8.647.7.685 2.411 3.207 3.68 3.321.802.073 1.343-.612 1.229-1.355-.199-1.291-2.915-3.222-3.817-4.15z" clip-rule="evenodd"/>
    <path fill="#8BC0D8" fill-rule="evenodd" d="M910.98 255.66c-3.41-.745-7.177-.688-10.651-.627-18.634.254-36.932 9.076-48.84 23.172-10.138 12-12.926 26.92-14.929 42.002-.198 1.497-.283 2.985-.395 4.486-.024.322-.06.609-.099.88-.787.704-1.201 1.525-.734 2.427-1.735 3.797-3.203 7.69-4.463 11.706-3.707 11.82-7.477 23.865-5.155 36.294.543-6.84 1.685-13.834 3.05-20.562.078-.386.163-.769.251-1.151.01-.04.018-.081.027-.121a44.902 44.902 0 011.875-6.025l.024-.064c.101-.259.208-.517.314-.774.219-.533.444-1.065.682-1.594.081-.181.158-.363.233-.546 1.112-2.726 1.581-5.798 2.578-8.618.238-.641.487-1.28.748-1.916l.047-.111a83.211 83.211 0 012.31-5.072c.448-.337.687-1.172 1.074-1.931.079-.15.704-1.147.89-1.722.486-.939.969-1.878 1.458-2.816l-.044.017c.489-.901.98-1.797 1.467-2.69l.323-.589.524-.938a176.942 176.942 0 015.16-8.61c.642-1.009 2.174-2.456 2.468-3.588.011-.043.013-.082.02-.122 3.9-5.478 8.389-10.53 13.774-14.533-.651.704-2.035 3.091-2.4 3.564-1.12 1.447-2.335 2.794-3.554 4.158-2.185 2.443-4.317 4.963-6.212 7.628-3.466 4.874-6.455 10.003-9.282 15.236-.026.03-.056.059-.081.091-1.421 1.751-2.315 4.397-3.337 6.4 4.046-1.874 8.521-3.095 12.673-4.759 4.142-1.659 8.17-3.507 12.06-5.676 5.169-2.884 10.532-6.139 15.416-9.823 5.597-3.472 10.301-8.251 14.453-13.266 4.912-5.934 9.414-11.919 12.198-19.124 1.368-3.54 2.444-7.232 3.082-10.967.028-.162.063-.339.102-.522a35.958 35.958 0 001.726-3.958c.777-2.14 2.614-4.494-.831-5.246z" clip-rule="evenodd"/>
    <path fill="#ACDCF0" fill-rule="evenodd" d="M262.292 267.013c-1.352-1.347-2.87-2.563-4.652-3.43-.451-.219-3.807-1.688-4.026-1.365-.509.75 8.272 4.365 8.678 4.795zm15.913-9.001c-.011.057 1.153 1.875 1.47 2.434a61.827 61.827 0 011.883 3.615c-.867-2.145-1.758-4.133-3.353-6.049zm-81.387 14.802c-1.121.332-2.468-.978-1.014-1.301 1.176-.259 1.118-.32 1.646-1.192.429-.709.694-1.573 1.07-2.316.798-1.578 1.704-3.082 2.816-4.491 2.382-3.021 5.285-5.624 8.541-7.818 5.682-3.829 12.052-7.327 18.81-9.085 10.746-2.795 22.975-2.968 33.737-1.03 6.665 1.2 12.757 3.286 17.182 8.228 2.213 2.469 3.949 5.363 4.708 8.549.198.832.161 1.758.409 2.574.381 1.253.213.919 1.805 1.163 1.739.267 3.476.538 5.212.815 4.547.724 9.121 1.493 13.551 2.668 1.459.387 2.885.859 4.278 1.409 1.054.415 5.249 1.717 5.759 2.978.849 2.097-1.995 1.146-2.878.69a34.747 34.747 0 00-2.375-1.117c-2.03-.865-4.145-1.534-6.308-2.067-2.337-.576-4.722-1.005-7.098-1.436a285.845 285.845 0 00-6.666-1.114c-1.237-.194-2.475-.382-3.713-.571-.423-.064-1.168-.401-1.112.105-2.603-.462-5.418-.395-8.069-.523-3.247-.155-6.507-.283-9.765-.19-2.35.068-4.702.21-7.04.5-1.366.17-2.71.419-4.051.734-.736.173-3.639.539-4.04 1.13.172-.254 3.376-.007 3.784-.022 1.631-.056 3.25-.205 4.875-.372a82.403 82.403 0 019.059-.449c-.011.489-2.078 1.36-2.583 1.684a28.858 28.858 0 00-3.225 2.39c-1.78 1.532-3.912 3.429-5.144 5.244.363-.535 2.154-1.231 2.789-1.639a37.27 37.27 0 002.959-2.101c.871-.689 1.684-1.434 2.483-2.195.799-.761 1.884-2.343 2.934-2.85.064-.031.522.302.782.189.262-.114.588-.685.655-.708.978-.347 2.834.085 3.862.129 2.666.113 5.329.261 7.992.396.825.041 1.527-.131 1.838.429.332.598-.276 2.169-.449 2.82-.643 2.418-1.783 4.587-3.579 6.46-3.362 3.509-7.509 5.848-12.193 7.413-17.941 5.994-37.029 8.394-54.965 2.159-7.425-2.581-18.608-7.194-17.269-16.269z" clip-rule="evenodd"/>
    <path fill="#AECE68" fill-rule="evenodd" d="M1028.63 555.189c12.5 76.083-290.809 125.71-551.876 91.077-261.068-34.633-380.833-169.879-256.256-241.944 124.577-72.064 795.622 74.784 808.132 150.867z" clip-rule="evenodd" opacity=".1"/>
    <rect width="159" height="302" x="368" y="100" fill="#EEE" rx="8"/>
    <path fill="#fff" fill-rule="evenodd" d="M447 383c8.284 0 15-6.716 15-15 0-8.284-6.716-15-15-15-8.284 0-15 6.716-15 15 0 8.284 6.716 15 15 15zm-13-263a2 2 0 10.001-3.999A2 2 0 00434 120z" clip-rule="evenodd"/>
    <rect width="21" height="4" x="441" y="116" fill="#fff" rx="2"/>
    <rect width="131" height="54" x="382" y="128" fill="#fff" rx="4"/>
    <rect width="73" height="8.1" x="421" y="144.2" fill="#E0E0E0" rx="3"/>
    <rect width="49" height="8.1" x="421" y="157.7" fill="#E0E0E0" rx="3"/>
    <path fill="#BDBDBD" fill-rule="evenodd" d="M403 167c6.627 0 12-5.373 12-12s-5.373-12-12-12-12 5.373-12 12 5.373 12 12 12z" clip-rule="evenodd"/>
    <rect width="131" height="42" x="382" y="190" fill="#fff" rx="4"/>
    <rect width="73" height="6.3" x="421" y="202.6" fill="#E0E0E0" rx="3"/>
    <rect width="49" height="6.3" x="421" y="213.1" fill="#E0E0E0" rx="3"/>
    <path fill="#BDBDBD" fill-rule="evenodd" d="M403 223c6.627 0 12-5.373 12-12s-5.373-12-12-12-12 5.373-12 12 5.373 12 12 12z" clip-rule="evenodd"/>
    <rect width="131" height="42" x="382" y="240" fill="#fff" rx="4"/>
    <rect width="73" height="6.3" x="421" y="252.6" fill="#E0E0E0" rx="3"/>
    <rect width="49" height="6.3" x="421" y="263.1" fill="#E0E0E0" rx="3"/>
    <path fill="#9E9E9E" fill-rule="evenodd" d="M403 273c6.627 0 12-5.373 12-12s-5.373-12-12-12-12 5.373-12 12 5.373 12 12 12z" clip-rule="evenodd"/>
    <rect width="131" height="42" x="382" y="290" fill="#fff" rx="4"/>
    <rect width="73" height="6.3" x="421" y="302.6" fill="#E0E0E0" rx="3"/>
    <rect width="49" height="6.3" x="421" y="313.1" fill="#E0E0E0" rx="3"/>
    <path fill="#BDBDBD" fill-rule="evenodd" d="M403 323c6.627 0 12-5.373 12-12s-5.373-12-12-12-12 5.373-12 12 5.373 12 12 12z" clip-rule="evenodd"/>
    <rect width="159" height="302" x="434" y="126" fill="#E0E0E0" rx="8"/>
    <path fill="#fff" fill-rule="evenodd" d="M513 409c8.284 0 15-6.716 15-15 0-8.284-6.716-15-15-15-8.284 0-15 6.716-15 15 0 8.284 6.716 15 15 15zm-13-263a2 2 0 10.001-3.999A2 2 0 00500 146z" clip-rule="evenodd"/>
    <rect width="21" height="4" x="507" y="142" fill="#fff" rx="2"/>
    <rect width="131" height="54" x="448" y="154" fill="#fff" rx="4"/>
    <rect width="73" height="8.1" x="457" y="170.2" fill="#E0E0E0" rx="3"/>
    <rect width="49" height="8.1" x="457" y="183.7" fill="#E0E0E0" rx="3"/>
    <path fill="#E0E0E0" fill-rule="evenodd" d="M565 188a7 7 0 100-14 7 7 0 000 14z" clip-rule="evenodd"/>
    <path fill="#EEE" fill-rule="evenodd" d="M565 184a3 3 0 100-6 3 3 0 000 6z" clip-rule="evenodd"/>
    <rect width="131" height="42" x="448" y="266" fill="#fff" rx="4"/>
    <rect width="73" height="6.3" x="457" y="278.6" fill="#E0E0E0" rx="3"/>
    <rect width="49" height="6.3" x="457" y="289.1" fill="#BDBDBD" rx="3"/>
    <path fill="#E0E0E0" fill-rule="evenodd" d="M565 294a7 7 0 100-14 7 7 0 000 14z" clip-rule="evenodd"/>
    <path fill="#EEE" fill-rule="evenodd" d="M565 290a3 3 0 100-6 3 3 0 000 6z" clip-rule="evenodd"/>
    <rect width="131" height="42" x="448" y="316" fill="#fff" rx="4"/>
    <rect width="73" height="6.3" x="487" y="328.6" fill="#E0E0E0" rx="3"/>
    <rect width="49" height="6.3" x="487" y="339.1" fill="#E0E0E0" rx="3"/>
    <path fill="#BDBDBD" fill-rule="evenodd" d="M469 349c6.627 0 12-5.373 12-12s-5.373-12-12-12-12 5.373-12 12 5.373 12 12 12z" clip-rule="evenodd"/>
    <rect width="131" height="42" x="448" y="216" fill="#fff" rx="4"/>
    <rect width="73" height="6.3" x="487" y="228.6" fill="#E0E0E0" rx="3"/>
    <rect width="49" height="6.3" x="487" y="239.1" fill="#E0E0E0" rx="3"/>
    <path fill="#BDBDBD" fill-rule="evenodd" d="M469 249c6.627 0 12-5.373 12-12s-5.373-12-12-12-12 5.373-12 12 5.373 12 12 12z" clip-rule="evenodd"/>
    <rect width="335" height="346" x="500" y="151" fill="#EEE" rx="8"/>
    <rect width="70" height="81" x="749" y="194" fill="#fff" rx="8"/>
    <path fill="#E0E0E0" fill-rule="evenodd" d="M784 241c8.837 0 16-7.163 16-16s-7.163-16-16-16-16 7.163-16 16 7.163 16 16 16z" clip-rule="evenodd"/>
    <rect width="50" height="6" x="759" y="245" fill="#E0E0E0" rx="3"/>
    <rect width="34" height="6" x="767" y="255" fill="#E0E0E0" rx="3"/>
    <path fill="#BDBDBD" d="M500 159a8 8 0 018-8h319a8 8 0 018 8v19H500v-19z"/>
    <path fill="#EEE" fill-rule="evenodd" d="M513 169a4 4 0 100-8 4 4 0 000 8zm12 0a4 4 0 100-8 4 4 0 000 8zm12 0a4 4 0 100-8 4 4 0 000 8z" clip-rule="evenodd"/>
    <rect width="70" height="194" x="749" y="283" fill="#fff" rx="8"/>
    <rect width="34" height="26" x="767" y="301" fill="#E0E0E0" rx="4"/>
    <rect width="34" height="25" x="767" y="335" fill="#BDBDBD" rx="4"/>
    <rect width="34" height="25" x="767" y="368" fill="#E0E0E0" rx="4"/>
    <rect width="34" height="25" x="767" y="434" fill="#E0E0E0" rx="4"/>
    <rect width="34" height="25" x="767" y="401" fill="#9E9E9E" rx="4"/>
    <rect width="225" height="47" x="516" y="195" fill="#fff" rx="4"/>
    <rect width="167" height="7.05" x="525" y="209.1" fill="#E0E0E0" rx="3"/>
    <rect width="112.096" height="7.05" x="525" y="220.85" fill="#E0E0E0" rx="3"/>
    <path fill="#E0E0E0" fill-rule="evenodd" d="M716.954 225.5a7 7 0 100-14 7 7 0 000 14z" clip-rule="evenodd"/>
    <path fill="#EEE" fill-rule="evenodd" d="M716.954 221.5a3 3 0 100-6 3 3 0 000 6z" clip-rule="evenodd"/>
    <rect width="225" height="39" x="516" y="344" fill="#fff" rx="4"/>
    <rect width="167" height="5.85" x="525" y="355.7" fill="#E0E0E0" rx="2.925"/>
    <rect width="112.096" height="5.85" x="525" y="365.45" fill="#E0E0E0" rx="2.925"/>
    <path fill="#E0E0E0" fill-rule="evenodd" d="M716.954 370.5a7 7 0 100-14 7 7 0 000 14z" clip-rule="evenodd"/>
    <path fill="#EEE" fill-rule="evenodd" d="M716.954 366.5a3 3 0 100-6 3 3 0 000 6z" clip-rule="evenodd"/>
    <rect width="225" height="39" x="516" y="297" fill="#fff" rx="4"/>
    <rect width="167" height="5.85" x="525" y="308.7" fill="#E0E0E0" rx="2.925"/>
    <rect width="112.096" height="5.85" x="525" y="318.45" fill="#E0E0E0" rx="2.925"/>
    <path fill="#E0E0E0" fill-rule="evenodd" d="M716.954 323.5a7 7 0 100-14 7 7 0 000 14z" clip-rule="evenodd"/>
    <path fill="#BDBDBD" fill-rule="evenodd" d="M716.954 319.5a3 3 0 100-6 3 3 0 000 6z" clip-rule="evenodd"/>
    <rect width="225" height="39" x="516" y="250" fill="#fff" rx="4"/>
    <rect width="167" height="5.85" x="525" y="261.7" fill="#E0E0E0" rx="2.925"/>
    <rect width="112.096" height="5.85" x="525" y="271.45" fill="#E0E0E0" rx="2.925"/>
    <path fill="#E0E0E0" fill-rule="evenodd" d="M716.954 276.5a7 7 0 100-14 7 7 0 000 14z" clip-rule="evenodd"/>
    <path fill="#EEE" fill-rule="evenodd" d="M716.954 272.5a3 3 0 100-6 3 3 0 000 6z" clip-rule="evenodd"/>
    <rect width="225" height="39" x="516" y="391" fill="#fff" rx="4"/>
    <rect width="167" height="5.85" x="525" y="402.7" fill="#E0E0E0" rx="2.925"/>
    <rect width="112.096" height="5.85" x="525" y="412.45" fill="#E0E0E0" rx="2.925"/>
    <path fill="#E0E0E0" fill-rule="evenodd" d="M716.954 417.5a7 7 0 100-14 7 7 0 000 14z" clip-rule="evenodd"/>
    <path fill="#EEE" fill-rule="evenodd" d="M716.954 413.5a3 3 0 100-6 3 3 0 000 6z" clip-rule="evenodd"/>
    <rect width="225" height="39" x="516" y="438" fill="#fff" rx="4"/>
    <rect width="167" height="5.85" x="525" y="449.7" fill="#E0E0E0" rx="2.925"/>
    <rect width="112.096" height="5.85" x="525" y="459.45" fill="#E0E0E0" rx="2.925"/>
    <path fill="#E0E0E0" fill-rule="evenodd" d="M716.954 464.5a7 7 0 100-14 7 7 0 000 14z" clip-rule="evenodd"/>
    <path fill="#EEE" fill-rule="evenodd" d="M716.954 460.5a3 3 0 100-6 3 3 0 000 6z" clip-rule="evenodd"/>
    <path fill="#CFF3FF" fill-rule="evenodd" d="M917.986 321.376c-3.945-2.675-9.19-3.376-13.91-3.376-18.436 0-35.765 6.84-50.735 17.032-8.203 5.584-15.541 12.696-22.019 20.1-3.74 4.275-7.074 8.898-9.435 14.041-1.593 3.471-2.686 7.088-3.427 10.818-.903 4.546-1.621 9.184-1.945 13.806-.128 1.82-1.185 11.477 1.841 11.641a4.038 4.038 0 00-.003.668c-6.571 10.274-10.63 22.314-14.395 33.729-3.275 9.934-6.194 19.951-8.088 30.228a329.228 329.228 0 00-4.912 40.987c-.167 2.949-.282 5.9-.381 8.853-.084 2.519-.169 5.038-.252 7.558-.092 2.823-.589 6.073-.14 8.879.391 2.444 2.506 2.074 2.6-.358.113-2.937.094-5.88.223-8.819.171-3.901.347-7.802.538-11.702 1.329-27.092 6.314-53.786 15.515-79.377 3.724-10.356 7.99-20.159 13.474-29.739 4.821-8.423 10.621-16.578 16.549-24.172 5.761-7.381 11.752-14.59 18.811-20.843 5.729-5.074 12.031-9.495 18.509-13.608 8.227-5.224 16.439-10.321 25.351-14.331 4.633-2.084 9.353-3.95 14.022-5.951.84-.359 1.74-.708 2.548-1.125 2.695-1.39 1.808-3.483-.339-4.939z" clip-rule="evenodd"/>
    <path fill="#ACDCF0" fill-rule="evenodd" d="M843.818 416c7.477 0 14.131.972 21.02 3.943 5.947 2.565 11.367 5.96 16.629 9.656 7.401 5.199 13.231 11.249 17.312 19.266 2.438 4.789 4.227 11.566 2.589 16.79-1.928 6.152-7.224 11.284-14.199 10.2-4.313-.67-8.266-3.525-11.544-6.212-3.922-3.215-7.061-7.08-9.653-11.373-4.228-7.003-6.712-14.919-10.304-22.237-1.704-3.473-3.351-6.97-5.393-10.271-1.01-1.634-2.086-3.253-3.619-4.468-.82-.65-4.278-1.774-2.956-3.233-19.39.254-36.568 15.146-40.291 33.58-.346 1.718-.617 3.45-.904 5.179-.18 1.091-.107 5.117-1.083 5.814-2.152 1.538-1.248-3.135-1.155-3.808.239-1.739.493-3.476.76-5.211 1.454-9.434 5.654-18.204 12.658-24.932C821.694 420.99 832.501 416 843.818 416z" clip-rule="evenodd"/>
    <path fill="#E0E0E0" fill-rule="evenodd" d="M104.938 438.736c18.666 31.316 40.407 61.638 53.463 95.877a499.394 499.394 0 00-1.709-12.093c-3.312-21.341-7.43-42.526-11.756-63.685-2.203-10.773-4.534-21.508-6.924-32.241-1.285-5.765-2.555-11.533-3.867-17.292-.318-1.396-.591-3.833-.988-6.302 12.688 41.637 24.924 83.305 33.874 125.942a279.278 279.278 0 012.993 16.758c.28-1.272.556-2.544.857-3.813 3.622-15.207 9.054-30.293 15.522-44.513 3.092-6.799 6.643-13.45 10.825-19.648 2.608-3.863 8.758-8.455 11.136-12.412-13.009 23.862-17.707 53.718-25.219 79.659-1.833 6.331-3.678 12.651-5.486 18.982 11.328-22.718 28.904-41.384 53.341-49.472-29.58 19.544-47.322 53.771-59.278 88.777-.039.415-.086.83-.127 1.246 3.519-6.677 7.95-12.717 13.956-16.946 12.856-9.056 27.116-6.418 39.586 1.35-9.787-6.221-27.474-.556-35.709 5.767-5.895 4.526-10.933 10.598-15.308 16.523-1.048 1.42-2.479 3.077-3.99 4.844A218.333 218.333 0 01159.672 657c.807-3.889.224-10.108.448-13.007.024-.313.044-.628.068-.94a866.281 866.281 0 00-2.152 8.784c1.374-5.506 2.12-11.254 2.703-17.061.15-2.495.297-4.991.451-7.486a242.558 242.558 0 00-.574-14.254c-1.169-4.628-2.479-8.994-3.56-12.625-3.897-13.101-9.612-25.651-16.645-37.36-6.417-10.685-14.099-20.363-22.966-29.116-4.781-4.718-9.784-9.21-14.716-13.765-1.784-1.647-4.972-5.696-7.729-7.807 20.08 11.071 40.749 23.047 55.398 40.885a445.534 445.534 0 00-5.556-19.468c-10.011-32.326-22.651-65.827-39.904-95.044z" clip-rule="evenodd"/>
    <path fill="#BDBDBD" fill-rule="evenodd" d="M125 616c0 35.899 2.843 65 41 65s41-29.101 41-65" clip-rule="evenodd"/>
    <rect width="6" height="25" x="750" y="108" fill="#E0E0E0" rx="3"/>
    <rect width="6" height="41" x="764" y="92" fill="#E0E0E0" rx="3"/>
    <rect width="6" height="49" x="778" y="84" fill="#E0E0E0" rx="3"/>
    <rect width="6" height="41" x="792" y="92" fill="#E0E0E0" rx="3"/>
    <rect width="6" height="57" x="806" y="76" fill="#BDBDBD" rx="3"/>
    <path fill="#EEE" fill-rule="evenodd" d="M191 367.256c0-11.139 9.002-20.256 20-20.256v20.256L197.332 382c-3.888-3.605-6.332-8.893-6.332-14.744z" clip-rule="evenodd"/>
    <path fill="#9E9E9E" fill-rule="evenodd" d="M210.471 367h20.197c0 5.221-2.13 10.113-5.497 13.668-3.703 3.888-8.976 6.332-14.7 6.332-5.273 0-10.099-2.109-13.803-5.443L210.471 367z" clip-rule="evenodd"/>
    <path fill="#BDBDBD" fill-rule="evenodd" d="M231 367c0-10.998-9.002-20-20-20v20h20zm-30-20l8 18-18-8c1.78-4.666 5.777-8.22 10-10z" clip-rule="evenodd"/>
    <path fill="#EEE" fill-rule="evenodd" d="M995.766 417.179a10.505 10.505 0 01-7.671 3.321c-5.817 0-10.533-4.701-10.533-10.5s4.716-10.5 10.533-10.5V380C971.546 380 958 393.503 958 410s13.546 30 30.095 30c8.693 0 16.545-3.666 21.905-9.498l-14.234-13.323z" clip-rule="evenodd"/>
    <path fill="#9E9E9E" fill-rule="evenodd" d="M988 380v19.5c5.799 0 10.5 4.701 10.5 10.5h19.5c0-16.497-13.5-30-30-30z" clip-rule="evenodd"/>
    <path fill="#BDBDBD" fill-rule="evenodd" d="M998.097 410c0 3.407-1.605 6.435-4.097 8.391L1006.26 434c7.14-5.588 11.74-14.251 11.74-24h-19.903z" clip-rule="evenodd"/>
    <path fill="#EEE" fill-rule="evenodd" d="M718.051 115.504a8.095 8.095 0 01-5.901 2.546c-4.475 0-8.102-3.604-8.102-8.05 0-4.446 3.627-8.05 8.102-8.05V87C699.42 87 689 97.352 689 110s10.42 23 23.15 23c6.687 0 12.73-2.811 16.85-7.282l-10.949-10.214z" clip-rule="evenodd"/>
    <path fill="#9E9E9E" fill-rule="evenodd" d="M712 87v14.95a8.05 8.05 0 018.05 8.05H735c0-12.648-10.352-23-23-23z" clip-rule="evenodd"/>
    <path fill="#BDBDBD" fill-rule="evenodd" d="M720.073 110a7.98 7.98 0 01-3.073 6.293L726.196 128c5.354-4.191 8.804-10.688 8.804-18h-14.927z" clip-rule="evenodd"/>
    <rect width="95" height="63" x="239" y="49" fill="#E0E0E0" rx="4"/>
    <path fill="#9E9E9E" fill-rule="evenodd" d="M275 67l-28 45h56l-28-45z" clip-rule="evenodd"/>
    <path fill="#BDBDBD" fill-rule="evenodd" d="M302.5 79L278 112h49l-24.5-33z" clip-rule="evenodd"/>
    <path fill="#fff" fill-rule="evenodd" d="M313 79a9 9 0 009-9 9 9 0 00-9-9 9 9 0 00-9 9 9 9 0 009 9z" clip-rule="evenodd"/>
    <rect width="142" height="94" fill="#E0E0E0" rx="4" transform="matrix(-1 0 0 1 1029 532)"/>
    <path fill="#9E9E9E" fill-rule="evenodd" d="M976.274 559l41.056 67h-82.111l41.055-67z" clip-rule="evenodd"/>
    <path fill="#BDBDBD" fill-rule="evenodd" d="M933.944 576.946L970.239 626h-72.59l36.295-49.054z" clip-rule="evenodd"/>
    <path fill="#fff" fill-rule="evenodd" d="M918.5 577c-7.456 0-13.5-6.044-13.5-13.5s6.044-13.5 13.5-13.5 13.5 6.044 13.5 13.5-6.044 13.5-13.5 13.5z" clip-rule="evenodd"/>
    <path fill="#915B3C" fill-rule="evenodd" d="M422.181 383.584c7.274 4.387 14.421 6.507 17.776 5.642 8.413-2.17 9.187-32.969 2.677-45.111-6.509-12.141-39.973-17.434-41.66 6.623-.586 8.35 2.918 15.801 8.094 21.881l-9.281 43.29h26.96l-4.566-32.325z" clip-rule="evenodd"/>
    <path fill="#212121" fill-rule="evenodd" d="M389.22 342.73c-.871-.863-1.346-2.096-1.757-3.266-.426-1.216-.841-2.444-1.124-3.71-.566-2.528-.572-5.436 1.231-7.399 1.445-1.574 3.614-2.281 5.616-2.434a10.313 10.313 0 013.982.505c1.268.417 2.362 1.249 3.591 1.765.047-2.725.514-5.576 1.895-7.902 1.329-2.239 3.449-3.495 5.862-3.827 2.477-.341 4.923.239 7.141 1.439.555.3 1.105.615 1.632.972.441.298.899.658 1.416.779.577.135.862-.198 1.237-.619a9.383 9.383 0 011.458-1.313c2.316-1.704 5.355-2.404 8.038-1.383 1.236.47 2.438 1.269 3.277 2.37.748.982 1.281 2.539 2.313 3.222.438.291.747-.094 1.146-.378.599-.427 1.17-.899 1.776-1.314.851-.584 1.773-1.02 2.76-1.249 1.445-.334 3.442-.256 3.855 1.638.155.711.036 1.472-.014 2.189-.068.984-.14 1.968-.226 2.951a21.041 21.041 0 01-.287 2.2c-.075.39-.31 1.118-.143 1.51.209.489 1.175.211 1.587.228.815.033 1.633.176 2.386.525.584.27 1.198.667 1.444 1.336.152.411.112.834.04 1.257-.086.508.012.777.077 1.29 1.094-.539 4.885-1.737 5.362.225.159.653-.203 1.391-.479 1.942-.484.967-1.118 1.85-1.767 2.693-1.353 1.757-2.968 3.273-4.706 4.569 2.036.906 2.567 3.578.804 5.17-.778.703-1.825.86-2.807.815-.359-.017-.877-.155-1.16-.092-.152.033-.315.162-.526.177-1.386.095-2.95-.239-4.305-.547-2.414-.548-4.699-1.693-6.565-3.436-.479-.447-.874-.704-1.519-.698-.564.006-1.118.161-1.682.175-1.493.038-2.839-.692-4.225-1.178-.084 1.874-.618 3.938-1.384 5.623-.624 1.375-1.929 1.575-3.21 1.695-4.099.386-8.212-.045-12.315-.039 3.972.899 8.077 1.269 12.014 2.326 1.78.478.421 1.679-.34 2.511-1.253 1.37-2.185 3.068-2.831 4.856-1.943-2.535-5.378-4.205-8.421-3.426-3.363.86-5.73 5.41-3.58 8.682 1.248 1.899 3.502 2.632 5.378 3.448-1.463 1.522-1.817 3.77-2.698 5.664-.434.934-1.044 1.99-2.015 2.316-.36.12-.781.131-1.065.424-.351.363-.434.769-.883 1.081-1.79 1.245-4.585 1.149-6.172-.476-1.434-1.47-1.061-3.795.137-5.285-1.907-.796-5.382-1.819-4.624-4.792-4.133-.275-14.167-6.982-8.62-11.883-3.044-1.722-5.84-5.929-3.885-9.638 1.505-2.856 5.007-4.132 7.88-4.284z" clip-rule="evenodd"/>
    <path fill="#DDEABE" fill-rule="evenodd" d="M331.537 557.548c-8.837 0-16 7.163-16 16v107.391c0 8.837 7.163 16 16 16h133.13c8.836 0 16-7.163 16-16V573.548c0-8.837-7.164-16-16-16h-133.13zm19.453 31.475a4 4 0 00-4 4v68.441a4 4 0 004 4h94.223a4 4 0 004-4v-68.441a4 4 0 00-4-4H350.99z" clip-rule="evenodd"/>
    <path fill="#915B3C" fill-rule="evenodd" d="M592.055 691.319c-22.147-27.065-37.133-47.129-44.956-60.193-13.396-22.369-24.36-42.273-27.82-49.877-8.251-18.131 18.994-26.621 25.16-18.164 9.333 12.8 29.264 53.078 59.794 120.834l-12.178 7.4z" clip-rule="evenodd"/>
    <path fill="#005972" fill-rule="evenodd" d="M546.671 683.45l-41.218-103.828c-8.815-18.927 33.757-31.368 40.236-22.56 14.709 19.998 49.669 98.885 54.051 104.843l-53.069 21.545z" clip-rule="evenodd"/>
    <path fill="#915B3C" fill-rule="evenodd" d="M436.894 662.628c8.029-11.721 37.233-51.151 53.14-67.466 4.571-4.688 9.031-9.188 13.25-13.381 12.538-12.464 37.508 8.485 24.992 19.838-31.169 28.272-76.646 66.438-80.446 69.841-5.325 4.769-15.982-1.467-10.936-8.832z" clip-rule="evenodd"/>
    <path fill="#BDBDBD" fill-rule="evenodd" d="M441.938 657.586c-.688-.949-2.029-1.172-2.927-.422-1.839 1.536-4.648 4.037-5.637 5.752-1.52 2.634-3.558 8.192-3.558 8.192l54.87 31.701s6.221-5.84 1.939-9.066c-4.283-3.227-7.069-5.442-7.069-5.442l-19.013-26.215a1 1 0 00-1.419-.205l-4.036 3.11s-5.415-.473-8.082-2.014c-1.691-.977-3.772-3.601-5.068-5.391zm143.459 28.323c-1.069-.478-2.343-.001-2.746 1.099-.825 2.25-2.008 5.821-2.008 7.802 0 3.04 1.013 8.874 1.013 8.874h63.358s2.469-8.171-2.852-8.822c-5.32-.651-8.84-1.176-8.84-1.176l-29.564-13.189a1 1 0 00-1.332.532l-1.941 4.712s-4.926 2.3-8.005 2.3c-1.953 0-5.065-1.231-7.083-2.132z" clip-rule="evenodd"/>
    <path fill="#287C9A" fill-rule="evenodd" d="M490.622 584.808s-51.387-8.377-68.84-11.457c-33.164-5.852-42.835-23.711-37.117-62.676h61.104c12.13 3.505 101.362 43.356 101.362 43.356 10.704 5.317 8.71 20.994 6.754 26.159-.12.316-54.13 92.82-54.13 92.82l-49.987-31.866 40.948-52.581s1.622-3.269-.094-3.755z" clip-rule="evenodd"/>
    <path fill="#915B3C" fill-rule="evenodd" d="M495.661 417.808l-38.991 21.37 14.399 15.465 28.331-25.958c14.925-4.117 21.75-7.128 20.476-9.034-1.074-1.607-2.807-1.551-4.403-1.5-1.244.04-2.404.078-3.105-.676-1.603-1.721 1.454-7.737 4.599-13.323 3.145-5.586-.218-5.099-2.141-4.296-6.293 4.263-12.681 10.247-19.165 17.952zm39.203 29.985l-17.127 9.416.975 17.199s11.093-8.012 20.636-10.674c12.168-3.395 17.091-5.988 23.037-13.57 3.182-4.056 5.882-12.211 2.853-14.867-1.161-1.019-5.489 1.388-9.905 3.844-3.366 1.871-6.783 3.771-8.888 4.205-2.834.584-2.502-3.092-2.237-6.029.19-2.108.346-3.835-.726-3.336-5.014.086-8.618 13.812-8.618 13.812z" clip-rule="evenodd"/>
    <path fill="#00465D" fill-rule="evenodd" d="M437.681 434.418c13.657-.145 31.869-3.031 51.301-15.374l7.631 17.03c-13.403 13.311-32.25 24.248-48.73 23.785-12.986-.365-19.624-16.084-10.202-25.441z" clip-rule="evenodd"/>
    <path fill="#005972" fill-rule="evenodd" d="M400.848 551.094c-12.984-1.694-24.914-3.251-31.984-1.858-7.932-25.779-1.345-42.011 4.735-56.994 3.665-9.031 7.146-17.609 7.153-27.55.022-28.951 23.252-73.514 26.67-73.514h31.169c1.393 17.916 7.341 37.313 13.327 56.835 1.397 4.559 2.797 9.125 4.142 13.68 22.652 5.146 72.95-12.765 72.95-12.765s12.698 26.288 11.74 37.482c-29.277 15.304-54.369 22.127-75.043 22.578.657 12.275-.836 23.955-5.851 34.628-6.721 14.3-34.709 10.648-59.008 7.478z" clip-rule="evenodd"/>
    <path fill="#D4A181" fill-rule="evenodd" d="M720.823 365.474c-7.285 4.382-14.443 6.499-17.803 5.635-8.426-2.168-9.2-32.926-2.681-45.052 6.519-12.126 40.033-17.411 41.722 6.614.586 8.338-2.922 15.78-8.106 21.852l9.295 43.234h-27l4.573-32.283z" clip-rule="evenodd"/>
    <path fill="#212121" fill-rule="evenodd" d="M715.728 312.081c3.559-.582 13.14-.983 14.907-.982 1.129 0 2.353.257 3.022-.778.547-.847.347-2.28.51-3.263.19-1.142.46-2.27.732-3.394.776-3.201 1.95-6.245 3.591-9.104 3.081-5.362 7.594-9.563 13.291-12.008 6.292-2.699 13.411-3.317 20.178-2.769 7.242.586 13.798 2.971 20.636 5.216 6.516 2.14 13.34 2.982 20.155 1.937 6.867-1.052 12.055-4.766 17.846-8.291 5.929-3.609 12.705-5.969 19.714-5.426 6.543.506 12.573 3.202 17.983 6.804 5.062 3.369 9.239 7.423 11.597 13.129 2.537 6.137 2.534 12.874-1.637 18.298-6.047 7.863-17.272 9.896-26.61 9.694a50.949 50.949 0 01-15.807-2.891c-6.801-2.387-12.679-6.433-19.041-9.716-2.986-1.541-6.073-2.806-9.308-3.717-3.14-.885-6.232-1.291-9.074.602-3.007 2.002-5.702 3.968-9.142 5.222-3.3 1.202-6.795 1.875-10.311 1.848-6.841-.053-13.584-2.18-20.228-3.605-5.418-1.161-11.215-2.319-16.739-1.203-2.305.467-5.671 1.429-6.504 3.819 14.011 2.534 19.514 19.826 15.564 32.52-2.132 6.851-14.947 14.861-19.929 11.259-3.157-2.282-1.24-5.278 0-7.255 2.375-3.788 3.188-8.652-1.207-11.289-3.791-2.274-7.777 3.126-7.853 3.12-1.041-.082-10.045-5.163-16.247-12.577-6.12.362-7.048-3.665-5.587-6.958 1.461-3.293 10.581-7.437 15.498-8.242z" clip-rule="evenodd"/>
    <path fill="#BA8B72" fill-rule="evenodd" d="M761.213 492.559l-42.272 138.179-20.477 117.512h-16.056l21.638-255.691h57.167z" clip-rule="evenodd"/>
    <path fill="#D4A181" fill-rule="evenodd" d="M776.336 492.559c-2.871 75.868.508 115.002 1.15 121.894.643 6.893 9.442 51.587 30.274 136.111l-17.109-5.875c-32.922-77.521-44.141-117.81-47.917-127.989-3.776-10.18-13.805-51.56-30.086-124.141h63.688z" clip-rule="evenodd"/>
    <path fill="#BDBDBD" fill-rule="evenodd" d="M804.764 743.239c1.069-.477 2.342 0 2.745 1.099.825 2.249 2.008 5.817 2.008 7.795 0 3.038-1.013 8.867-1.013 8.867h-63.358s-2.469-8.164 2.852-8.814c5.32-.651 8.84-1.176 8.84-1.176l29.564-13.178a1 1 0 011.332.532l1.941 4.709s4.926 2.297 8.005 2.297c1.953 0 5.066-1.23 7.084-2.131zm-105.594 0c1.069-.477 2.342 0 2.746 1.099.825 2.249 2.007 5.817 2.007 7.795 0 3.038-1.012 8.867-1.012 8.867h-63.358s-2.47-8.164 2.851-8.814a375.384 375.384 0 008.841-1.176l29.564-13.178a1 1 0 011.331.532l1.942 4.709s4.925 2.297 8.005 2.297c1.952 0 5.066-1.23 7.083-2.131z" clip-rule="evenodd"/>
    <path fill="#67A4BF" fill-rule="evenodd" d="M766.83 492.559l-17.973 70.401h-54.898l8.185-70.401h64.686z" clip-rule="evenodd"/>
    <path fill="#8BC0D8" fill-rule="evenodd" d="M776.94 492.559c8.871 26.587 3.37 70.401 3.37 70.401h-56.021l-15.405-70.401h68.056z" clip-rule="evenodd"/>
    <path fill="#D4A181" fill-rule="evenodd" d="M838.067 527.969c-4.194-6.14-32.463-88.763-32.463-88.763l-24.382 3.512s40.537 86.038 42.853 90.04c3.009 5.198.344 13.737-1.462 19.527-.28.896-.539 1.726-.753 2.468 3.792 1.09 5.235-1.073 6.756-3.353 1.719-2.575 3.537-5.3 8.953-3.657 2.092.635 4.102 1.45 6.066 2.247 6.783 2.752 13.015 5.28 20.175-.637 1.135-.938 2.092-4.005-1.515-5.791-8.985-4.449-22.178-12.591-24.228-15.593zm-210.116-4.27l27.239-35.094 13.027 16.597-30.103 23.876c-6.41 14.066-10.457 20.323-12.141 18.77-1.42-1.309-1.093-3.008-.792-4.572.235-1.219.454-2.357-.181-3.166-1.449-1.846-7.876.229-13.89 2.458s-5.006-1.009-3.91-2.779c5.201-5.537 12.118-10.9 20.751-16.09z" clip-rule="evenodd"/>
    <path fill="#649700" fill-rule="evenodd" d="M721.56 380.696l-9.865-.295c-7.65 55.565-80.491 102.925-82.464 123.572-.724 7.572 5.09 10.533 2.671 13.148l13.807 7.375c1.773-2.762 6.933 1.111 15.938-3.367 9.006-4.479 68.824-77.159 59.913-140.433z" clip-rule="evenodd"/>
    <path fill="#89BA17" fill-rule="evenodd" d="M737.611 367.033a4.006 4.006 0 014.747 3.083l1.472 6.909c20.087 11.355 70.87 46.582 93.466 122.25 2.374 7.948.762 12.61-.525 16.335-.881 2.548-1.611 4.657-.809 7.08l-15.753 6.805c-.258-1.836-2.52-2.943-5.439-4.372-4.243-2.076-9.874-4.832-12.751-11.496-2.727-6.317-6.522-14.152-10.959-22.837 1.404 12.13.669 23.571-3.048 33.482-9.272 24.727-85.102 9.67-95.954-12.707-5.791-11.94-1.552-23.242 4.055-38.188 7.117-18.973 16.437-43.82 10.243-83.304l-2.514-11.792a3.996 3.996 0 013.08-4.742l30.689-6.506z" clip-rule="evenodd"/>
  </g>
  <defs>
    <clipPath id="clip0">
      <path fill="#fff" d="M0 0h1200v800H0z"/>
    </clipPath>
  </defs>
</svg>
